<svg viewBox="0 0 1440 1096" fill="none" xmlns="http://www.w3.org/2000/svg">
<g clip-path="url(#clip0_2020_1052)">
<path d="M1440 0H0V1219H1440V0Z" fill="#172D1D"/>
<path d="M989.636 203.024L1004.57 196.881L972.436 119.929L877.999 150.539L882.78 163.413L960.952 140.148L980.769 206.683L976.789 208.313L984.748 391.678L786.901 410.482L798.145 416.839L671.312 429.954L691.877 263.015L671.74 277.092L641.106 444.912L834.68 437.54L818.87 428.592L1014.42 419.323L989.636 203.024Z" fill="#114841"/>
<path d="M712.014 248.966L689.767 416.359L781.453 404.446L781.64 395.605L966.347 375.038L961.727 214.536L963.089 213.975L946.21 158.204L887.347 175.7L889.431 181.282L807.065 204.226L785.646 197.602L785.326 213.628L844.002 237.187L841.037 214.697L830.274 211.358L831.369 216.566L818.256 207.645L841.037 214.697L854.097 218.73L899.472 208.366L901.369 213.441L917.366 207.057L919.797 231.711L923.776 230.082L926.286 326.318L783.243 318.199L783.162 322.606L781.934 322.953L783.269 317.317L783.536 303.828L912.773 311.975L908.74 235.557L909.701 235.851L906.283 226.609L890.739 230.002L891.834 230.349L898.19 297.578L784.097 276.103L784.418 260.104L880.03 278.935L874.528 225.033L857.462 219.772L864.726 265.099L785.005 231.39L784.685 247.283L767.298 338.498L782.922 335.427L782.815 340.502L937.049 339.086L936.542 224.9L935.314 225.407L927.114 189.081L896.321 199.872L891.434 186.704L937.023 172.067L948.16 220.092L949.548 219.531L950.163 358.344L782.361 359.119L782.548 349.717L749.191 356.314L779.691 201.742L755.547 218.57L657.612 245.6L664.582 264.778L711.988 248.966H712.014ZM754.88 219.077L728.787 376.507L782.201 367.265L781.667 393.601L781.881 382.356L708.275 395.204L737.039 231.497L754.853 219.077H754.88Z" fill="#114841"/>
<path d="M1309.48 76.4713L1204.68 0H1181.58L1098.63 262.508L1117.72 267.93L1203.48 32.1324L1298.13 91.7495L1296.66 93.7261L1311.11 96.7176L1306.12 81.012L1309.48 76.4713Z" fill="#114841"/>
<path d="M1334.35 115.522L1305.69 112.824L1364.53 194.691L1425.04 139.561L1416.34 124.843L1366.45 174.257L1334.35 115.522Z" fill="#114841"/>
<path d="M1055.47 905.209L1076.33 936.62L1091.92 921.048L1055.47 905.209Z" fill="#5C427F"/>
<path d="M546.403 704.588L529.444 707.42L679.886 816.21L653.098 819.282L669.256 829.726L707.02 822.995L546.403 704.588Z" fill="#114841"/>
<path d="M813.075 1147.23L794.914 1026.53L793.578 1025.3L808.267 1027.59L805.944 1036.6L814.677 1034.51L835.455 1163.9L961.38 1134.94L965.092 1137.29L968.137 1123.8L981.864 1112.16L859.599 1131.28L838.126 1028.88L827.149 1031.49L808.668 1025.97L812.113 1012.66L853.91 1025.11L854.578 1024.95L874.101 1111.14L1004.94 1092.61L1022.73 1077.54L888.896 1093.19L880.19 1018.83L889.618 1016.59L817.188 993.112L819.805 983.042L772.186 1005.69L775.524 1008.76L778.702 1040.52L783.804 1056.33L798.493 1141.49L643.911 1191.52L647.864 1215.66L818.63 1164.4L813.075 1147.2V1147.23ZM815.158 1000.86L812.487 1011.14L792.991 1009.59L815.158 1000.86Z" fill="#114841"/>
<path d="M423.763 115.522L395.106 112.824L453.916 194.691L514.434 139.561L505.728 124.843L455.839 174.257L423.763 115.522Z" fill="#114841"/>
<path d="M461.741 1027.92L463.557 1035.85L271.505 1077.68L272.36 1084.54L271.399 1088.01L254.199 1082.35L250.06 1087.27L444.755 1214.03L446.945 1217.58L723.899 1104.04L718.584 1089.96L455.972 1178.32L440.375 1117.18L428.223 1115.1L382.153 1097.74L475.709 1088.89L478.834 1102.54L454.183 1103.61L481.478 1114.08L483.908 1124.63L461.153 1120.73L470.688 1156.6L670.351 1086.3L491.466 1121.75L461.714 1027.89L461.741 1027.92ZM335.175 1092.85L356.595 1102.84L378.388 1106.58L313.917 1095.52L398.712 1139.46L413.695 1163.74L403.065 1110.8L416.766 1113.15L433.512 1195.87L414.469 1165.05L277.167 1089.22L297.785 1092.74L287.503 1087.8L468.525 1057.75L471.436 1070.44L335.122 1092.79L335.175 1092.85Z" fill="#114841"/>
<path d="M646.582 477.151L614.079 410.589L640.599 410.963L599.363 340.341L579.253 373.542H570.787L624.041 477.151H646.582Z" fill="#114841"/>
<path d="M505.033 709.85L579.253 592.218L599.737 594.756L529.337 707.5L545.789 705.523L623.453 597.667L639.664 599.671L565.258 701.65L587.559 695.747L653.018 625.206L653.659 574.884L557.914 373.542H561.92L597.547 316.569L643.243 393.308L653.018 337.777L632.373 338.685L623.881 324.369L654.914 321.484L659.508 294.587L605.96 302.119L594.876 284.731L535.853 373.542H543.278L626.444 584.312L578.692 592.165L544.427 587.945L482.279 714.524L660.202 823.689L672.007 818.668L505.033 709.85Z" fill="#114841"/>
<path d="M684.079 606.295L653.098 607.016L652.217 625.473L659.455 624.912L609.672 693.29L676.921 766.129L629.222 692.408L684.079 606.295Z" fill="#114841"/>
<path d="M698.794 807.102L565.258 701.65L587.559 695.747L680.687 779.19L698.794 807.102Z" fill="#114841"/>
<path d="M1.54883 715.86V722.057L14.4751 714.311L1.54883 715.86Z" fill="#5C427F"/>
<path d="M1.54883 583.645V651.168L11.6175 687.307L1.54883 687.2V702.024L28.4964 698.926L1.54883 583.645Z" fill="#114841"/>
<path d="M1.54883 983.496V1008.42L6.56979 1010.02L17.8936 1007.32L20.0302 1050.86L112.063 1035.58L125.764 1040.1L131.64 1031.79L1.54883 983.496ZM32.7162 1034.75L34.559 1010.07L79.7209 1024.92L32.7429 1034.75H32.7162Z" fill="#114841"/>
<path d="M1.54883 1090.5V1105.78L94.2763 1092.63L112.063 1077.6L1.54883 1090.5Z" fill="#114841"/>
<path d="M1.54883 154.652L50.3696 140.148L70.1597 206.683L66.1803 208.313L74.1391 391.678L1.54883 398.57V424.185L103.811 419.323L79.0265 203.024L93.9558 196.881L61.827 119.929L1.54883 139.454V154.652Z" fill="#114841"/>
<path d="M1.54883 180.053L26.4133 172.094L37.5502 220.119L38.9389 219.531L39.5799 358.344L1.54883 358.504V381.074L55.7378 375.038L51.1174 214.51L52.4795 213.975L35.6005 158.204L1.54883 168.328V180.053Z" fill="#114841"/>
<path d="M25.8791 224.9L24.6506 225.407L16.4782 189.081L1.54883 194.317V209.194L6.73003 207.138L9.16039 231.791L13.1398 230.162L15.6502 326.372L1.54883 325.597V339.326L26.3865 339.113L25.8791 224.9Z" fill="#114841"/>
<path d="M1.54883 301.478V312.055L2.10968 312.082L1.54883 301.478Z" fill="#114841"/>
<path d="M1440 725.235L1415.64 709.85L1440 671.254V618.581L1392.86 714.524L1440 742.704V725.235Z" fill="#114841"/>
<path d="M1440 964.131L1433.43 922.33L1428.97 926.336L1415.22 938.703L1440 1048.75V964.131Z" fill="#5C427F"/>
<path d="M1440 1152.73L1366.64 1178.35L1351.04 1117.21L1338.89 1115.12L1292.82 1097.76L1386.37 1088.92L1389.5 1102.57L1364.87 1103.64L1392.17 1114.11L1394.6 1124.66L1371.84 1120.76L1381.38 1156.63L1440.05 1136.79V1111.89L1402.16 1121.8L1372.4 1027.94L1374.22 1035.87L1182.17 1077.7L1183.02 1084.57L1182.06 1088.04L1164.86 1082.38L1160.72 1087.29L1355.42 1214.06L1357.61 1217.61L1440.03 1180.91V1152.76L1440 1152.73ZM1325.13 1165.07L1187.83 1089.24L1208.45 1092.77L1198.17 1087.83L1379.19 1057.78L1382.1 1070.46L1245.79 1092.82L1267.2 1102.81L1289 1106.55L1295.62 1107.67L1297.2 1119.85L1288.97 1106.55L1224.5 1095.49L1309.29 1139.43L1324.28 1163.71L1313.65 1110.77L1327.35 1113.12L1344.09 1195.84L1325.08 1165.02L1325.13 1165.07Z" fill="#114841"/>
<path d="M1119.91 0H1099.22L1094.25 23.7187L1091.74 0H1082.58L1097.93 76.0172L1102.1 97.973L1110.35 66.8289L1107.41 59.3501L1119.91 0Z" fill="#114841"/>
<path d="M1324.04 56.866L1294.45 0H1274.66L1284.22 15.4118L1267.58 0H1237.05L1315.81 63.9175L1332.64 135.314L1357.29 159.193L1330.18 48.5858L1324.04 56.866Z" fill="#114841"/>
<path d="M1357.69 11.5922L1355.63 14.3167L1349.78 0H1321.37L1339.21 36.4327L1343 31.3311L1366.31 151.66L1396.25 121.344L1383.03 120.116L1357.69 11.5922Z" fill="#114841"/>
<path d="M1372.83 0L1397.83 121.505L1409.98 122.653L1387.49 0H1372.83Z" fill="#114841"/>
<path d="M1440 180.614L1356.7 249.473L1363.88 234.703L1327.22 217.581L1323.5 217.902L1260.79 142.045L1265.04 136.302L1237.18 121.077L1141.92 326.799L1083.89 304.336L1077.88 321.911L1147.53 342.371L1243.97 158.552L1258.31 173.59L1154.47 360.214L1088.83 340.528L1084.47 334.812L1070.88 342.345L1077.32 323.514L1055.23 244.131L1105.28 241.834L1110.59 226.289L1039.93 231.764L1065.43 358.291L1063.77 363.152L1095 348.702L1104.18 360.775L1057.61 382.65L1103.06 585.781L998.796 614.815L990.143 599.831L1082.02 572.64L1062.15 477.391L900.781 475.068L900.033 474.64L892.689 514.278L919.529 494.913L921.586 486.873L926.687 489.758L927.221 490.693L877.439 526.485L922.2 687.414L815.905 686.425L825.573 712.04L939.106 699.059L898.591 525.737L934.085 502.606L928.209 492.429L931.441 492.483L929.358 491.307L1063.86 502.446L1066.05 521.196L956.118 506.479L959.056 508.162L937.129 507.948L941.429 515.4L917.9 530.865L954.916 710.785L926.366 714.231L932.189 723.179L918.648 729.936L967.255 777.32L959.029 764.606L1002.99 751.598L961.54 552.848L962.742 552.287L965.893 557.736L1026.52 546.33L1052.56 561.074L975.935 575.124L985.202 591.23L1024.03 764.74L969.044 780.045L984.268 803.576L1058.11 786.722L1015.14 643.182L1011.32 636.531L1137.19 607.817L1072.16 390.637L1114.84 374.798L1105.6 362.618L1159.01 374.504L1257.56 211.331L1348.74 265.713L1345.8 272.177L1349.89 276.157L1440.08 197.842V180.721L1440 180.614ZM956.359 541.122L956.252 540.908L948.747 545.048L984.107 737.869L946.29 744.814L935.02 727.426L967.736 721.255L934.245 538.558L949.388 529.049L948.774 527.98L986.645 523.653L1006.76 535.032L956.359 541.122ZM1029.3 534.017L1068.48 541.95L1069.94 554.557L1029.27 534.017H1029.3Z" fill="#114841"/>
<path d="M1440 0H1409.66L1401.62 4.4606L1426.99 142.873L1432.98 152.943L1362.01 214.216L1286.89 111.061L1300.05 112.29L1285.34 108.951L1290.36 102.22L1212.4 53.3135L1127.63 292.103L1094.01 274.714L1099.38 259.062L1071.71 260.05L1084.63 302.146L1089.12 288.978L1135.4 308.342L1231.58 95.4355L1276.63 120.677L1272.25 126.606L1346.68 215.845L1360.09 214.643L1371.01 219.958L1370.45 221.107L1439.52 164.027L1440 164.802V134.913L1414.36 12.0997L1440 0.240392V0Z" fill="#114841"/>
<path d="M200.918 1218.97L84.9019 1116.54L94.3295 1092.61L75.127 1108.87L68.103 1129.41L178.484 1218.97H200.918Z" fill="#114841"/>
<path d="M423.523 1218.97L224.287 1091.43L236.332 1076.47L223.406 1072.17L206.714 1095.33L368.48 1218.97H423.523Z" fill="#114841"/>
<path d="M473.999 1218.97H533.663L782.868 1128.93L758.965 993.646L761.957 996.397L823.971 966.776L820.819 978.982L917.179 1010.02L928.503 1007.32L930.639 1050.86L1022.67 1035.58L1036.37 1040.1L1042.25 1031.79L827.737 952.192L830.888 940.012L748.817 984.404L741.98 978.154L768.26 1112.37L473.973 1219L473.999 1218.97ZM945.168 1010.05L990.33 1024.9L943.352 1034.73L945.195 1010.05H945.168Z" fill="#114841"/>
<path d="M1111.53 1218.97L995.512 1116.54L1004.94 1092.61L985.737 1108.87L978.713 1129.41L1089.09 1218.97H1111.53Z" fill="#114841"/>
<path d="M804.902 524.214L800.736 580.546L794.086 585.327L821.541 600.258L811.178 573.014L820.606 566.203L842.185 619.276L783.429 593.02L782.281 593.875L785.406 539.546L642.495 514.679L653.098 533.937L766.257 552.687L741.152 704.268L751.541 710.037L843.681 878.098L734.261 944.286L721.896 932.987L819.831 871.313L727.344 696.629L723.819 694.652L745.078 562.437L655.929 544.087L664.422 561.261L730.736 570.904L704.803 684.102L710.973 687.547L710.439 688.081L795.314 862.098L654.54 940.519L694.521 1057.3L628.528 1074.26L717.943 1084.7L673.155 946.048L694.361 938.97L739.122 1099.87L756.001 1111.52L720.187 958.148L734.796 971.53L837.432 914.717L832.197 934.937L1064.92 1028.37L1052.99 1045.54L917.927 1065.9L914.856 1010.58L898.751 1014.43L906.47 1078L1040.7 1062.32L1028.6 1072.57L1014.21 1109.49L1131.72 1218.97H1147.77L1032.07 1106.42L1060.97 1047.84L1066.93 1050.14L1084.07 1023.75L858.61 913.649L879.362 887.313L880.59 886.752L775.23 723.179L774.803 722.938L782.121 596.679L792.27 623.63L858.236 637.359L832.838 557.388L829.847 559.552L837.138 499.561L627.78 486.019L638.703 504.502L804.902 524.214Z" fill="#114841"/>
<path d="M1188.55 1218.97L1062.47 1102.17L1087.81 1057.88L1072.29 1051.9L1047.64 1103.34L1166.54 1218.97H1188.55Z" fill="#114841"/>
<path d="M1253.74 1218.97L1097.88 1097.52L1118.26 1067.66L1102.31 1062.48L1081.43 1099.47L1214.24 1218.97H1253.74Z" fill="#114841"/>
<path d="M1334.13 1218.97L1134.9 1091.43L1146.94 1076.47L1134.02 1072.17L1117.32 1095.33L1279.09 1218.97H1334.13Z" fill="#114841"/>
<path d="M1440 16.8274L1431.4 20.8607L1440 59.2699V16.8274Z" fill="#114841"/>
<path d="M1440 1078.18L1427.39 1080.96L1399.22 953.073L1396.52 955.504L1362.9 843.187L1358.04 844.416L1254.79 815.89L1247.04 803.336L1276.18 908.173L1160.62 907.105L1159.36 897.035L1137.09 883.092L1142.91 876.976L1034.88 881.704L1026.38 868.589L1163.23 855.661L1169.3 849.304L1212.21 858.225L1199.37 817.786L1210.88 805.713L1237.51 882.078L1155.75 863.514L1155.19 864.102L1148.6 871.02L1156.69 876.014L1158.61 891.346L1254.97 893.055L1225.57 790.275L1233.66 781.781L1241.62 794.682L1383.73 838.006L1376.49 839.822L1408.89 944.392L1428.94 926.363L1392.43 835.842L1409.39 831.595L1439.97 909.108V866.479L1427.82 841.211L1439.97 847.995V840.41L1240.1 763.244L1275.59 709.263L1290.33 710.651L1261.46 754.75L1440 822.113V801.092L1303.95 736.4L1317.52 713.216L1326.81 714.097L1322.19 705.229L1395.19 580.573L1414.57 582.95L1329.65 731.272L1439.95 785.013V762.149L1368.91 721.095L1438.05 585.835L1439.95 586.075V562.944L1372.08 577.715L1376.94 578.302L1309.59 681.163L1302.7 667.969L1362.82 576.566L1328.02 572.293L1325.8 573.201L1303.85 592.592L1267.42 600.525L1258.92 584.286L1440 542.992V497.05L1439.57 495.661L1438.13 524.989L1434.68 530.972L1425.39 519.674L1439.63 494.86L1440 487.221V455.836L1411.53 502.819L1416.79 509.23L1418.77 518.071L1249.02 565.348L1241.59 551.138L1397.75 504.903L1392.46 479.582L1401.7 490.827L1439.97 427.39V383.238L1383.33 468.47L1372.19 454.928L1378.87 491.307L1225.67 519.407L1225.35 520.101L1217.29 509.497L1231.87 506.639L1235.8 498.546L1362.5 474.694L1355.04 434.067L1371.82 454.474L1439.95 357.623V324.395L1352.64 431.129L1339.63 415.317L1349.65 464.036L1246.43 476.51L1253.72 461.499L1333.81 452.337L1319.42 390.717L1299.71 366.731L1297.57 371.138L1316.93 440.718L1264.05 440.237L1271.4 425.12L1295.78 425.547L1286.65 393.682L1285.66 395.712L1287.85 389.461L1288.25 390.343L1295.43 375.519L1287.8 365.289L1242.42 467.749L1189.75 473.358L1179.2 459.469L1233.1 456.504L1284.67 330.672L1304.09 357.703L1303.47 358.958L1346.95 413.42L1439.95 297.926V265.286L1342.79 367.292L1314.8 335.64L1312.05 341.303L1278.82 310.827L1213.68 447.075L1170.04 447.369L1166.33 442.481L1295.99 694.786L1177.92 699.941L1169.05 699.113L1222.58 793.293L1212.05 804.351L1151.05 697.403L1125.07 694.946L1192.08 825.292L1190.71 826.734L1196.14 840.089L1183.42 834.4L1179.02 839.021L1108.99 693.45L1087.2 691.393L1142.21 830.821L1015.38 851.628L1023.42 864.048L1014.9 878.178L1047.99 902.03L1043.66 895.353L1103.44 918.27L1108.75 912.687L1166.81 956.706L1168.6 970.889L1321.66 942.069L1306.12 857.264L1294.2 860.229L1308.84 931.411L1165.8 948.693L1164.54 938.623L1116.9 904.087L1116.98 904.007L1092.83 896.795L1123.2 897.489L1126.7 893.803L1161.92 917.923L1164.01 934.456L1293 919.712L1277.27 852.376L1273.67 846.553L1312.87 855.554L1318.83 854.059L1338 958.656L1170.9 989.319L1169.08 974.815L1099.64 922.17L1090.03 932.266L1171.08 990.655L1173.65 1010.98L1146.38 1076.1L1164.51 1082.14L1177.68 1042.95L1179.87 1060.31L1369.79 1016.99L1363.46 989.399L1177.47 1041.22L1175.54 1025.91L1356.91 972.224L1331.6 850.88L1346.98 847.034L1375.45 974.281L1373.02 976.471L1414.44 1100.17L1439.95 1093.89V1078.05L1440 1078.18ZM1277.57 412.512L1278.31 414.622L1276.74 414.275L1277.59 412.512H1277.57ZM1198.75 485.137L1244.61 480.463L1239.51 490.96L1207.46 496.596L1198.75 485.137ZM1293.06 649.512L1274.71 614.468L1344.09 582.389L1293.06 649.539V649.512ZM1186.41 705.069L1192.61 701.383L1183.64 700.528L1178.96 700.074L1205.3 702.558L1192.85 715.459L1186.41 705.016V705.069ZM1215.29 751.839L1204.36 734.13L1229.04 704.855L1249.52 706.805L1215.29 751.865V751.839Z" fill="#114841"/>
<path d="M209.331 0H188.633L183.639 23.7187L181.155 0H171.968L187.324 76.0172L191.491 97.973L199.743 66.8289L196.805 59.3501L209.331 0Z" fill="#114841"/>
<path d="M398.872 76.4713L294.1 0H271.238L200.518 249.393L193.413 245.493L188.9 258.662L207.114 267.93L292.871 32.1324L387.521 91.7495L386.053 93.7261L400.501 96.7176L395.507 81.012L398.872 76.4713Z" fill="#114841"/>
<path d="M413.427 56.866L383.836 0H364.046L373.607 15.4118L356.968 0H326.469L407.125 65.3599L406.724 65.8941L424.057 115.548L439.147 116.991L419.57 48.5858L413.427 56.866Z" fill="#114841"/>
<path d="M447.079 11.5922L445.049 14.3434L439.2 0.0267029H410.784L428.624 36.4594L432.417 31.3578L456.693 118.647L442.111 117.284L458.777 148.402L485.671 121.371L472.451 120.116L447.079 11.5922ZM459.791 127.755L457.121 118.673L467.029 119.608L459.791 127.755Z" fill="#114841"/>
<path d="M462.222 0L487.22 121.505L499.371 122.653L476.911 0H462.222Z" fill="#114841"/>
<path d="M503.778 12.0997L529.951 0H499.078L491.039 4.4606L516.411 142.873L522.393 152.969L451.432 214.242L376.305 111.088L389.471 112.316L374.756 108.978L379.75 102.247L301.791 53.3403L217.023 292.129L183.398 274.768L188.766 259.089L161.098 260.104L174.024 302.199L178.538 289.031L224.821 308.396L320.994 95.489L366.076 120.73L361.669 126.66L436.129 215.899L449.536 214.723L460.459 220.039L459.898 221.187L528.99 164.081L535.747 175.486L446.144 249.553L453.328 234.783L416.659 217.661L412.947 217.982L350.238 142.125L354.485 136.382L326.629 121.157L231.364 326.879L173.33 304.416L167.321 321.991L236.973 342.451L300.162 227.972L308.361 227.25L296.744 214.109L307.56 199.552L330.742 225.274L320.486 226.182L243.89 360.321L178.244 340.635L173.891 334.919L160.297 342.451L166.733 323.621L144.646 244.238L194.695 241.941L200.01 226.396L129.343 231.871L154.848 358.397L153.192 363.259L184.413 348.808L193.6 360.882L147.023 382.757L192.479 585.888L88.2138 614.922L79.5606 599.938L171.433 572.747L151.563 477.498L1.54883 475.335V500.335L8.94673 494.993L11.0032 486.954L16.1043 489.838L16.6384 490.773L1.54883 501.618V516.976L23.4755 502.686L17.5999 492.509L20.8314 492.563L18.7483 491.388L153.246 502.526L155.436 521.276L45.5089 506.559L48.4467 508.242L26.5201 508.028L30.8199 515.48L7.29088 530.945L44.3071 710.865L15.7571 714.311L21.5792 723.259L8.03868 730.016L56.6458 777.4L48.42 764.686L92.3801 751.678L50.9038 552.928L52.1056 552.367L55.2571 557.816L115.882 546.411L141.922 561.155L65.299 575.204L74.5664 591.31L113.399 764.82L58.4085 780.125L73.6316 803.656L147.477 786.802L104.505 643.262L100.686 636.611L226.557 607.897L161.525 390.717L204.203 374.878L194.963 362.698L248.377 374.584L338.914 224.633L360.414 222.736L320.406 182.351L329.968 169.476L382.474 220.76L374.115 221.508L440.375 261.52L435.167 272.257L439.254 276.237L542.343 186.731L539.085 181.229L503.832 12.2867L503.778 12.0997ZM285.447 229.2L287.289 226.716L289.025 228.906L285.42 229.227L285.447 229.2ZM45.7493 541.122L45.6425 540.908L38.1377 545.048L73.4981 737.869L35.6807 744.814L24.4102 727.426L57.1266 721.255L23.6357 538.558L38.7787 529.049L38.1644 527.98L76.0353 523.653L96.1458 535.032L45.7493 541.122ZM118.713 534.017L157.893 541.95L159.362 554.557L118.687 534.017H118.713Z" fill="#114841"/>
<path d="M1134.58 128.369L1132.15 122.199L1163.34 0H1134.84L1117.22 84.2707L1122.64 98.0531L1108.14 154.251L1101.33 157.056L1069.14 0H1043.9L1088.83 162.184L1076.89 167.126L1030.23 0H1018.51L854.711 87.6362L848.729 71.4498L984.748 0H936.675L843.681 57.8276L839.488 46.5025L910.048 0H873.032L839.915 23.959L833.025 0H822.262L834.734 33.6816L856.554 152.622L640.092 193.515L653.098 232.005L875.409 166.191L864.566 114.213L861.121 104.944L1014.53 38.6229L1059.77 174.15L1042.76 181.175L1001.44 61.3533L866.088 118.38L872.391 135.341L983.253 97.5991L1020.24 190.417L1029.14 186.758L1130.36 168.488L1139.65 141.27L1128.65 145.811L1134.58 128.369Z" fill="#5C427F"/>
<path d="M777.607 852.055L694.708 685.838L714.365 581.855L653.098 574.697V590.482L697.699 593.794L642.602 690.405L724.433 832.076L623.373 855.554L616.349 896.287L743.876 838.567L661.591 688.001L671.766 670.666L762.331 845.405L614.827 914.37L605.773 957.107L777.607 852.055Z" fill="#5C427F"/>
<path d="M532.835 1064.03L676.414 1036.94L669.63 1016.94L542.984 1050.83L522.82 922.33L518.387 926.336L504.606 938.703L532.835 1064.03Z" fill="#5C427F"/>
<path d="M1.54883 442.802V462.273L148.786 464.036L141.121 398.356L144.432 388.66L108.271 216.272L205.779 209.328L213.017 188.147L93.1813 206.443L121.972 438.288L1.54883 442.802Z" fill="#5C427F"/>
<path d="M117.992 1072.57L103.597 1109.49L221.109 1218.97H237.16L121.464 1106.42L144.913 1049.76L147.798 1047.31L156.317 1050.14L173.463 1023.75L1.54883 939.798V967.043L154.314 1028.37L142.376 1045.54L145.821 1046.67L7.31759 1065.9L4.24626 1010.58L1.54883 1011.22V1077.33L130.091 1062.32L117.992 1072.57Z" fill="#5C427F"/>
<path d="M172.796 1055.53L161.712 1051.9L137.035 1103.34L255.935 1218.97H277.942L151.884 1102.17L177.63 1057.14L187.992 1060.56L215.5 1010.42L13.9143 892.388L41.5028 853.391L51.1174 848.903L1.54883 793.453V826.547L27.348 859.988L12.4988 866.906L1.54883 852.937V922.143L198.515 1016.43L172.796 1055.53Z" fill="#5C427F"/>
<path d="M76.2222 837.204L40.0072 889.503L234.516 1005.88L203.776 1065.74L192.051 1061.89L170.819 1099.47L303.634 1218.97H343.134L187.271 1097.52L207.942 1067.13L221.83 1071.69L250.62 1001.93L168.148 944.312L166.172 946.396L162.059 940.065L79.9879 882.719L102.075 847.381L97.1607 839.795L210.96 820.911L158.026 689.684L176.588 691.447L354.485 674.619L235.878 428.084L243.463 426.348L247.282 431.37L289.319 435.67L362.497 285.505L408.46 326.986L413.374 316.89L435.381 341.33L558.688 214.296L550.409 200.3L437.972 300.837L426.674 289.458L432.043 278.4L350.906 229.895L254.867 388.9L209.224 381.315L214.245 387.912L178.618 400.039L247.736 623.176L110.301 653.118L120.156 670.212L290.04 642.006L195.23 407.037L223.379 399.932L223.459 400.039L261.918 405.594L353.443 246.348L423.977 295.041L417.781 307.782L357.556 265.606L273.001 422.208L236.145 416.733L234.436 414.462L218.652 418.576L310.738 651.969L126.993 682.125L129.824 687.04L133.135 687.334L168.683 802.081L84.6083 820.404L91.018 830.287L90.3503 830.607L1.54883 744.306V773.233L66.2604 841.852L76.2222 837.204Z" fill="#5C427F"/>
<path d="M653.018 4.03324L550.729 32.533L621.53 261.466L590.603 268.197L581.389 254.495L442.058 431.183L429.051 415.37L439.066 464.09L335.843 476.563L343.134 461.552L423.229 452.391L408.834 390.77L389.124 366.784L386.987 371.192L406.35 440.772L353.47 440.291L360.814 425.173L385.198 425.6L376.091 393.735L375.103 395.765L377.293 389.515L377.693 390.396L384.877 375.572L377.239 365.342L331.864 467.802L279.197 473.412L268.648 459.522L322.543 456.557L374.114 330.726L393.531 357.756L392.916 359.012L436.396 413.474L573.11 242.422L600.351 245.974L535.319 28.7936L612.877 0H565.231L520.79 20.8607L566.246 223.992L432.203 367.372L404.213 335.72L401.463 341.383L368.239 310.907L303.1 447.155L259.46 447.449L255.748 442.561L385.411 694.866L267.339 700.021L258.472 699.193L311.993 793.373L301.471 804.431L240.471 697.483L214.485 695.026L281.494 825.372L280.132 826.814L285.553 840.169L272.841 834.48L268.434 839.101L198.408 693.53L176.641 691.474L231.658 830.901L104.825 851.708L112.864 864.128L104.345 878.258L137.435 902.11L133.108 895.433L192.879 918.35L198.194 912.768L256.255 956.786L258.045 970.969L411.104 942.149L395.56 857.344L383.649 860.309L398.284 931.491L255.241 948.773L253.985 938.703L206.34 904.167L206.42 904.087L182.276 896.875L212.643 897.57L216.141 893.883L251.368 918.003L253.451 934.536L382.447 919.792L366.716 852.456L363.111 846.633L402.317 855.634L408.273 854.139L427.449 958.736L260.342 989.399L258.526 974.896L189.087 922.25L179.472 932.346L260.529 990.735L263.092 1011.06L235.824 1076.18L253.959 1082.22L267.125 1043.03L269.315 1060.39L459.23 1017.07L452.901 989.479L266.912 1041.3L264.989 1025.99L446.357 972.305L421.039 850.96L436.422 847.114L464.892 974.361L462.462 976.552L503.885 1100.25L676.039 1044.05L516.784 1080.91L488.608 953.02L485.911 955.45L452.286 843.134L447.426 844.363L344.176 815.836L336.43 803.282L365.595 908.12L250.033 907.052L248.777 896.982L226.504 883.039L232.326 876.922L124.295 881.65L115.802 868.536L252.65 855.608L258.712 849.251L301.631 858.172L288.785 817.733L300.296 805.66L326.923 882.024L245.172 863.461L244.611 864.048L238.014 870.966L246.107 875.961L248.03 891.293L344.389 893.002L314.985 790.221L323.077 781.727L331.036 794.628L473.145 837.952L465.907 839.769L498.303 944.339L518.36 926.31L481.851 835.789L498.81 831.542L531.527 914.477L535.533 910.871L554.121 1034.57L667.734 1005.21L662.445 987.877L565.124 1017.26L561.733 887.286L571.668 878.338L566.006 868.402L557.994 863.915L563.522 853.524L329.46 763.164L364.954 709.182L379.696 710.571L350.826 754.67L587.879 844.096L572.709 872.115L577.41 874.732L579.546 995.516L658.306 970.088L652.991 953.073L589.882 977.647L606.36 890.919L616.082 896.367L638.516 825.185L458.322 721.015L527.467 585.755L532.622 586.396L605.693 574.269L533.85 396.192L534.919 374.824L472.717 468.417L461.581 454.875L468.257 491.254L315.065 519.353L314.744 520.048L306.679 509.444L321.261 506.586L325.187 498.492L451.886 474.64L444.434 434.014L461.207 454.421L591.351 269.426L603.636 290.18L652.964 281.98L567.341 39.5044L697.405 24.9473L653.018 4.00653V4.03324ZM366.984 412.512L367.731 414.622L366.156 414.275L367.01 412.512H366.984ZM535.319 851.307L556.338 892.201L546.162 901.336L517.238 841.184L535.319 851.307ZM275.832 705.069L282.028 701.383L273.054 700.528L268.407 700.074L294.714 702.558L282.268 715.459L275.832 705.016V705.069ZM304.676 751.839L293.752 734.13L318.43 704.855L338.914 706.805L304.676 751.865V751.839ZM382.447 649.512L364.099 614.468L433.484 582.389L382.447 649.539V649.512ZM419.089 731.272L622.865 830.554L599.657 887.233L585.475 879.3L604.304 836.697L393.37 736.373L406.938 713.189L416.232 714.07L411.611 705.203L484.602 580.546L503.992 582.923L419.063 731.245L419.089 731.272ZM487.139 504.93L481.851 479.608L491.092 490.853L532.595 422.075L531.153 451.269L563.442 555.519L461.527 577.715L466.388 578.302L399.032 681.163L392.142 667.969L452.26 576.566L417.46 572.293L415.243 573.201L393.29 592.592L356.861 600.525L348.369 584.286L542.316 540.054L529.016 495.661L527.574 524.989L524.129 530.972L514.835 519.674L529.07 494.86L531.126 453.032L500.974 502.793L506.235 509.203L508.211 518.044L338.46 565.321L331.036 551.112L487.193 504.876L487.139 504.93ZM328.899 490.96L296.85 496.596L288.144 485.137L334 480.463L328.899 490.96Z" fill="#5C427F"/>
<path d="M1440 219.104L1348.58 300.837L1337.28 289.458L1342.65 278.4L1261.52 229.895L1165.48 388.9L1119.83 381.315L1124.83 387.912L1089.23 400.039L1158.35 623.176L1020.91 653.118L1030.74 670.212L1200.62 642.006L1105.81 407.037L1133.96 399.932L1134.07 400.039L1172.5 405.594L1264.05 246.348L1334.59 295.041L1328.39 307.782L1268.17 265.606L1183.61 422.208L1146.75 416.733L1145.05 414.462L1129.26 418.576L1221.35 651.969L1037.6 682.125L1040.43 687.04L1043.74 687.333L1079.29 802.081L995.218 820.404L1001.63 830.286L1000.96 830.607L898.003 730.551L925.084 714.311L830.754 725.663L828.057 718.558L823.891 750.156L807.706 741.181L814.757 683.247L809.949 670.533L901.048 672.135L862.162 536.234L877.412 525.256L887.935 467.722L877.599 461.846L1059.39 464.036L1051.7 398.329L1055.04 388.66L1018.88 216.272L1115.48 208.954L1122.24 187.773L1003.79 206.443L1032.55 438.288L848.194 445.206L861.227 452.578L642.869 455.729L653.098 475.575L858.877 484.87L851.052 544.274L844.429 549.028L883.528 661.184L799.213 642.033L796.676 635.302L789.599 731.138L801.243 737.602L894.905 880.074L905.748 874.999L880.617 907.025L1109.12 1016.43L1084.31 1056.6L1099.14 1061.92L1126.11 1010.42L924.524 892.388L952.112 853.391L961.727 848.904L870.201 746.523L856.5 754.403L937.957 859.988L923.108 866.906L837.538 757.742L833.078 755.258L839.995 750.183L838.286 745.642L888.041 736.267L881.071 740.273L976.843 841.852L986.831 837.204L950.59 889.503L1145.13 1005.88L1115.03 1066.75L1132.63 1072.84L1161.2 1001.93L1079.53 944.873L1078.76 944.312L990.597 882.719L1012.68 847.381L1007.77 839.795L1121.57 820.911L1068.61 689.684L1087.2 691.447L1265.07 674.62L1146.49 428.084L1154.07 426.348L1157.89 431.37L1199.93 435.67L1273.08 285.505L1319.07 326.986L1323.98 316.89L1345.99 341.33L1440 244.478V219.104Z" fill="#5C427F"/>
<path d="M26.0928 0L1.54883 15.2515V38.1155L74.1391 0H26.0928Z" fill="#5C427F"/>
<path d="M223.993 128.369L221.536 122.199L252.73 0H224.234L206.607 84.2707L212.028 98.0531L197.526 154.251L190.716 157.056L158.534 0H133.296L178.244 162.184L166.279 167.126L119.621 0H107.897L1.54883 56.9194V82.8817L103.944 38.6229L149.186 174.15L132.147 181.175L90.8311 61.3533L1.54883 98.9613V121.798L72.6435 97.5991L109.633 190.417L118.526 186.758L219.747 168.488L229.068 141.27L218.038 145.811L223.993 128.369Z" fill="#5C427F"/>
<path d="M666.425 0L693.96 14.9577L688.272 0H666.425Z" fill="#5C427F"/>
<path d="M700.797 0L714.631 34.0021L583.152 44.9533L738.134 61.9142L714.605 0H700.797Z" fill="#5C427F"/>
<path d="M729.507 0L755.974 75.8837L586.303 54.2484L598.802 88.758L773.467 86.8616L748.63 0H729.507Z" fill="#5C427F"/>
<path d="M766.257 0L794.646 102.033L606.921 104.544L618.486 136.703L811.525 113.652L784.978 0H766.257Z" fill="#5C427F"/>
<path d="M801.591 0L827.363 125.351L625.51 152.302L635.071 179.947L840.182 135.982L815.265 0H801.591Z" fill="#5C427F"/>
</g>
<defs>
<clipPath id="clip0_2020_1052">
<rect width="1440" height="1096" fill="white"/>
</clipPath>
</defs>
</svg>
