<svg width="1110" height="1500" viewBox="0 0 1110 1500" fill="none" xmlns="http://www.w3.org/2000/svg">
<g clip-path="url(#clip0_4606_1658)">
<rect width="1110" height="1500" fill="white"/>
<g clip-path="url(#clip1_4606_1658)">
<path d="M1110 0H0V939.831H1110V0Z" fill="#172D1D"/>
<path d="M762.845 156.528L774.354 151.792L749.588 92.4629L676.793 116.063L680.478 125.989L740.735 108.052L756.011 159.35L752.943 160.606L759.078 301.978L606.571 316.475L615.238 321.377L517.471 331.488L533.323 202.781L517.801 213.633L494.188 343.02L643.401 337.336L631.213 330.438L781.95 323.292L762.845 156.528Z" fill="#114841"/>
<path d="M548.849 191.949L531.701 321.007L602.375 311.822L602.519 305.006L744.898 289.149L741.336 165.405L742.386 164.972L729.375 121.974L684.002 135.462L685.608 139.766L622.118 157.456L605.607 152.349L605.36 164.704L650.589 182.868L648.304 165.528L640.008 162.954L640.852 166.97L630.744 160.092L648.304 165.528L658.371 168.638L693.348 160.648L694.81 164.56L707.141 159.639L709.015 178.646L712.082 177.39L714.017 251.587L603.754 245.327L603.693 248.725L602.746 248.992L603.775 244.647L603.981 234.248L703.601 240.529L700.492 181.611L701.233 181.838L698.598 174.713L686.616 177.328L687.46 177.596L692.36 229.429L604.413 212.872L604.66 200.537L678.361 215.055L674.12 173.498L660.965 169.441L666.565 204.388L605.113 178.399L604.866 190.652L591.464 260.978L603.507 258.609L603.425 262.522L722.314 261.431L721.923 173.395L720.976 173.786L714.656 145.779L690.919 154.099L687.152 143.947L722.293 132.661L730.878 169.688L731.949 169.256L732.422 276.278L603.075 276.875L603.219 269.627L577.506 274.713L601.016 155.541L582.406 168.514L506.914 189.354L512.287 204.14L548.829 191.949H548.849ZM581.891 168.905L561.778 290.282L602.952 283.156L602.54 303.461L602.705 294.792L545.967 304.697L568.139 178.481L581.871 168.905H581.891Z" fill="#114841"/>
<path d="M1009.39 58.9583L928.61 0H910.802L846.859 202.39L861.579 206.57L927.683 24.7736L1000.64 70.7375L999.511 72.2614L1010.65 74.5679L1006.8 62.4591L1009.39 58.9583Z" fill="#114841"/>
<path d="M1028.56 89.0653L1006.47 86.9854L1051.82 150.103L1098.47 107.599L1091.76 96.2523L1053.3 134.35L1028.56 89.0653Z" fill="#114841"/>
<path d="M813.594 697.902L829.672 722.12L841.695 710.114L813.594 697.902Z" fill="#5C427F"/>
<path d="M421.19 543.228L408.117 545.41L524.083 629.286L503.434 631.655L515.889 639.707L544.999 634.517L421.19 543.228Z" fill="#114841"/>
<path d="M626.748 884.497L612.749 791.437L611.72 790.489L623.043 792.261L621.252 799.2L627.984 797.594L644 897.347L741.067 875.024L743.929 876.837L746.276 866.437L756.857 857.459L662.611 872.203L646.059 793.249L637.598 795.267L623.352 791.004L626.007 780.749L658.226 790.345L658.74 790.222L673.789 856.676L774.644 842.384L788.355 830.77L685.194 842.837L678.483 785.506L685.75 783.776L629.919 765.675L631.936 757.911L595.23 775.374L597.803 777.742L600.253 802.228L604.185 814.419L615.508 880.07L496.352 918.641L499.398 937.257L631.03 897.739L626.748 884.477V884.497ZM628.354 771.647L626.296 779.575L611.267 778.381L628.354 771.647Z" fill="#114841"/>
<path d="M326.652 89.0653L304.562 86.9854L349.895 150.103L396.544 107.599L389.833 96.2523L351.377 134.35L326.652 89.0653Z" fill="#114841"/>
<path d="M355.929 792.508L357.329 798.624L209.289 830.873L209.948 836.165L209.207 838.843L195.949 834.477L192.758 838.266L342.836 936.001L344.524 938.74L558.009 851.198L553.912 840.346L351.482 908.468L339.459 861.33L330.092 859.724L294.58 846.339L366.696 839.522L369.104 850.045L350.103 850.869L371.143 858.942L373.016 867.076L355.476 864.069L362.826 891.726L516.733 837.525L378.842 864.852L355.908 792.487L355.929 792.508ZM258.368 842.57L274.879 850.272L291.677 853.155L241.981 844.629L307.344 878.505L318.893 897.224L310.7 856.409L321.261 858.221L334.169 921.998L319.49 898.233L213.653 839.769L229.546 842.488L221.621 838.678L361.158 815.511L363.402 825.292L258.327 842.529L258.368 842.57Z" fill="#114841"/>
<path d="M498.41 367.877L473.356 316.558L493.798 316.847L462.012 262.398L446.51 287.996H439.984L481.034 367.877H498.41Z" fill="#114841"/>
<path d="M389.298 547.284L446.509 456.592L462.299 458.548L408.032 545.472L420.713 543.948L480.58 460.793L493.076 462.338L435.721 540.962L452.911 536.411L503.369 482.025L503.863 443.227L430.06 287.996H433.148L460.611 244.07L495.835 303.235L503.369 260.421L487.456 261.122L480.909 250.084L504.831 247.86L508.372 227.122L467.095 232.93L458.552 219.523L413.055 287.996H418.778L482.885 450.496L446.076 456.551L419.663 453.297L371.758 550.888L508.907 635.052L518.007 631.181L389.298 547.284Z" fill="#114841"/>
<path d="M527.316 467.444L503.435 468L502.756 482.23L508.335 481.798L469.961 534.516L521.799 590.674L485.031 533.837L527.316 467.444Z" fill="#114841"/>
<path d="M538.653 622.264L435.719 540.962L452.909 536.411L524.695 600.744L538.653 622.264Z" fill="#114841"/>
<path d="M1.19531 551.918V556.696L11.1593 550.724L1.19531 551.918Z" fill="#5C427F"/>
<path d="M1.19531 449.981V502.041L8.95654 529.904L1.19531 529.821V541.25L21.9674 538.862L1.19531 449.981Z" fill="#114841"/>
<path d="M1.19531 758.261V777.474L5.06563 778.71L13.7944 776.63L15.4414 810.197L86.3836 798.417L96.9446 801.898L101.474 795.493L1.19531 758.261ZM25.2201 797.779L26.6406 778.751L61.4529 790.201L25.2407 797.779H25.2201Z" fill="#114841"/>
<path d="M1.19531 840.757V852.536L72.6727 842.405L86.3836 830.811L1.19531 840.757Z" fill="#114841"/>
<path d="M1.19531 119.234L38.828 108.052L54.0828 159.35L51.0154 160.606L57.1503 301.978L1.19531 307.291V327.04L80.0222 323.292L60.9177 156.528L72.4257 151.792L47.6598 92.4629L1.19531 107.516V119.234Z" fill="#114841"/>
<path d="M1.19531 138.819L20.3616 132.682L28.9463 169.709L30.0169 169.256L30.5109 276.278L1.19531 276.402V293.803L42.966 289.149L39.4044 165.384L40.4544 164.972L27.4435 121.974L1.19531 129.778V138.819Z" fill="#114841"/>
<path d="M19.9499 173.395L19.0029 173.786L12.7033 145.779L1.19531 149.816V161.286L5.18916 159.7L7.06256 178.708L10.13 177.452L12.0652 251.628L1.19531 251.031V261.616L20.3411 261.451L19.9499 173.395Z" fill="#114841"/>
<path d="M1.19531 232.436V240.59L1.62764 240.611L1.19531 232.436Z" fill="#114841"/>
<path d="M1110 559.146L1091.22 547.284L1110 517.527V476.917L1073.66 550.888L1110 572.613V559.146Z" fill="#114841"/>
<path d="M1110 743.331L1104.94 711.103L1101.5 714.192L1090.9 723.726L1110 808.57V743.331Z" fill="#5C427F"/>
<path d="M1110 888.74L1053.45 908.488L1041.43 861.351L1032.06 859.744L996.549 846.359L1068.66 839.542L1071.07 850.066L1052.09 850.889L1073.13 858.962L1075.01 867.096L1057.47 864.09L1064.81 891.746L1110.04 876.445V857.253L1080.83 864.893L1057.9 792.528L1059.3 798.644L911.258 830.893L911.917 836.186L911.175 838.863L897.918 834.497L894.727 838.286L1044.8 936.022L1046.49 938.76L1110.02 910.465V888.76L1110 888.74ZM1021.46 898.254L915.622 839.79L931.515 842.508L923.589 838.698L1063.13 815.531L1065.37 825.313L960.296 842.549L976.806 850.251L993.605 853.134L998.711 853.999L999.925 863.389L993.584 853.134L943.888 844.608L1009.25 878.484L1020.8 897.203L1012.61 856.388L1023.17 858.2L1036.08 921.977L1021.42 898.212L1021.46 898.254Z" fill="#114841"/>
<path d="M863.265 0H847.31L843.481 18.2867L841.546 0H834.484L846.322 58.6082L849.533 75.5358L855.895 51.5241L853.63 45.758L863.265 0Z" fill="#114841"/>
<path d="M1020.61 43.8429L997.804 0H982.549L989.919 11.8823L977.093 0H953.562L1014.27 49.2795L1027.24 104.325L1046.24 122.735L1025.35 37.459L1020.61 43.8429Z" fill="#114841"/>
<path d="M1046.55 8.93744L1044.97 11.0379L1040.46 0H1018.55L1032.31 28.0891L1035.23 24.1558L1053.2 116.928L1076.28 93.5548L1066.09 92.6075L1046.55 8.93744Z" fill="#114841"/>
<path d="M1058.23 0L1077.5 93.6783L1086.86 94.5638L1069.53 0H1058.23Z" fill="#114841"/>
<path d="M1110 139.251L1045.79 192.34L1051.33 180.952L1023.06 167.752L1020.2 167.999L971.865 109.514L975.138 105.087L953.666 93.3486L880.233 251.957L835.498 234.638L830.866 248.189L884.556 263.963L958.895 122.241L969.95 133.835L889.909 277.719L839.306 262.542L835.951 258.135L825.472 263.942L830.433 249.424L813.408 188.221L851.988 186.45L856.085 174.465L801.612 178.687L821.272 276.237L819.996 279.985L844.062 268.844L851.144 278.152L815.24 295.018L850.279 451.629L769.908 474.013L763.238 462.461L834.057 441.497L818.74 368.062L694.355 366.27L693.778 365.94L688.117 396.501L708.807 381.571L710.392 375.372L714.324 377.596L714.736 378.317L676.362 405.912L710.865 529.986L628.93 529.224L636.382 548.973L723.897 538.964L692.666 405.335L720.026 387.501L715.497 379.655L717.988 379.697L716.383 378.791L820.058 387.378L821.746 401.834L737.01 390.487L739.275 391.785L722.373 391.62L725.688 397.366L707.551 409.289L736.084 548.005L714.077 550.661L718.565 557.56L708.127 562.77L745.595 599.302L739.254 589.5L773.14 579.471L741.19 426.237L742.116 425.805L744.545 430.006L791.277 421.212L811.349 432.58L752.286 443.412L759.43 455.83L789.363 589.603L746.974 601.403L758.709 619.545L815.632 606.551L782.507 495.883L779.563 490.756L876.589 468.618L826.46 301.175L859.358 288.963L852.235 279.573L893.409 288.737L969.374 162.933L1039.66 204.861L1037.39 209.844L1040.54 212.913L1110.06 152.533V139.333L1110 139.251ZM737.196 417.197L737.113 417.032L731.328 420.224L758.585 568.886L729.435 574.24L720.747 560.834L745.966 556.077L720.15 415.22L731.823 407.889L731.349 407.065L760.541 403.729L776.043 412.502L737.196 417.197ZM793.418 411.719L823.619 417.835L824.751 427.555L793.398 411.719H793.418Z" fill="#114841"/>
<path d="M1110 0H1086.61L1080.42 3.43906L1099.98 110.153L1104.59 117.916L1049.89 165.157L991.977 85.6264L1002.13 86.5737L990.783 83.9995L994.654 78.8101L934.561 41.104L869.218 225.207L843.299 211.801L847.437 199.733L826.109 200.495L836.073 232.95L839.532 222.798L875.209 237.728L949.342 73.5794L984.072 93.0399L980.696 97.6116L1038.07 166.413L1048.41 165.487L1056.83 169.585L1056.39 170.47L1109.63 126.463L1110 127.06V104.016L1090.24 9.32871L1110 0.185339V0Z" fill="#114841"/>
<path d="M154.878 939.811L65.4491 860.836L72.7163 842.385L57.9143 854.926L52.5 870.762L137.585 939.811H154.878Z" fill="#114841"/>
<path d="M326.468 939.811L172.89 841.479L182.175 829.946L172.211 826.631L159.344 844.485L284.038 939.811H326.468Z" fill="#114841"/>
<path d="M365.372 939.81H411.363L603.459 870.391L585.033 766.086L587.339 768.208L635.142 745.37L632.713 754.781L706.99 778.71L715.719 776.63L717.366 810.197L788.308 798.418L798.869 801.898L803.398 795.494L638.045 734.126L640.474 724.735L577.211 758.961L571.94 754.142L592.198 857.623L365.352 939.831L365.372 939.81ZM728.565 778.731L763.377 790.18L727.165 797.759L728.585 778.731H728.565Z" fill="#114841"/>
<path d="M856.8 939.811L767.371 860.836L774.638 842.385L759.836 854.926L754.422 870.762L839.507 939.811H856.8Z" fill="#114841"/>
<path d="M620.446 404.161L617.234 447.592L612.108 451.278L633.271 462.79L625.284 441.785L632.551 436.534L649.185 477.452L603.894 457.209L603.009 457.868L605.417 415.982L495.257 396.809L503.43 411.657L590.657 426.113L571.305 542.98L579.313 547.428L650.338 677L565.994 728.03L556.462 719.319L631.954 671.769L560.662 537.09L557.944 535.566L574.331 433.63L505.613 419.482L512.159 432.724L563.276 440.158L543.286 527.432L548.042 530.088L547.63 530.5L613.055 664.665L504.542 725.126L535.361 815.16L484.49 828.236L553.415 836.288L518.891 729.389L535.237 723.932L569.741 847.985L582.751 856.964L555.144 738.718L566.405 749.035L645.521 705.233L641.486 720.822L820.879 792.857L811.677 806.099L707.569 821.791L705.202 779.142L692.788 782.108L698.738 831.119L802.207 819.031L792.881 826.939L781.785 855.399L872.367 939.81H884.739L795.557 853.031L817.832 807.87L822.423 809.641L835.64 789.295L661.846 704.41L677.842 684.105L678.789 683.672L597.574 557.56L597.244 557.374L602.885 460.03L610.708 480.809L661.558 491.394L641.98 429.738L639.674 431.406L645.294 385.154L483.914 374.713L492.334 388.963L620.446 404.161Z" fill="#114841"/>
<path d="M916.179 939.81L818.988 849.756L838.525 815.613L826.564 811L807.562 850.662L899.215 939.81H916.179Z" fill="#114841"/>
<path d="M966.428 939.811L846.283 846.174L861.991 823.15L849.7 819.155L833.602 847.677L935.98 939.811H966.428Z" fill="#114841"/>
<path d="M1028.4 939.811L874.82 841.479L884.104 829.946L874.14 826.631L861.273 844.485L985.968 939.811H1028.4Z" fill="#114841"/>
<path d="M1110 12.9736L1103.38 16.0832L1110 45.6962V12.9736Z" fill="#114841"/>
<path d="M1110 831.264L1100.28 833.406L1078.56 734.805L1076.49 736.679L1050.57 650.085L1046.82 651.032L967.231 629.039L961.261 619.36L983.721 700.188L894.642 699.365L893.674 691.601L876.505 680.851L880.993 676.135L797.719 679.781L791.173 669.669L896.659 659.702L901.333 654.801L934.416 661.679L924.513 630.501L933.386 621.193L953.911 680.069L890.895 665.757L890.463 666.21L885.378 671.543L891.616 675.394L893.098 687.215L967.375 688.533L944.709 609.29L950.947 602.741L957.082 612.688L1066.62 646.09L1061.05 647.49L1086.02 728.113L1101.48 714.212L1073.34 644.422L1086.41 641.148L1109.98 700.909V668.042L1100.61 648.561L1109.98 653.792V647.943L955.908 588.45L983.268 546.831L994.632 547.902L972.378 581.901L1110 633.837V617.63L1005.13 567.754L1015.59 549.879L1022.75 550.558L1019.19 543.721L1075.46 447.613L1090.4 449.446L1024.94 563.8L1109.96 605.233V587.605L1055.2 555.954L1108.5 451.67L1109.96 451.855V434.022L1057.65 445.41L1061.4 445.863L1009.48 525.167L1004.16 514.994L1050.5 444.524L1023.68 441.229L1021.97 441.929L1005.05 456.88L976.969 462.996L970.422 450.476L1110 418.638V383.218L1109.67 382.147L1108.56 404.759L1105.9 409.372L1098.74 400.661L1109.71 381.53L1110 375.64V351.443L1088.06 387.666L1092.11 392.609L1093.63 399.425L962.784 435.875L957.061 424.919L1077.43 389.273L1073.36 369.75L1080.48 378.42L1109.98 329.511V295.471L1066.32 361.184L1057.73 350.743L1062.88 378.791L944.791 400.455L944.544 400.99L938.327 392.815L949.568 390.611L952.594 384.371L1050.26 365.982L1044.51 334.66L1057.44 350.393L1109.96 275.722V250.104L1042.66 332.394L1032.64 320.203L1040.36 357.765L960.787 367.382L966.408 355.809L1028.15 348.745L1017.05 301.237L1001.86 282.744L1000.21 286.142L1015.14 339.787L974.375 339.417L980.036 327.761L998.832 328.09L991.791 303.523L991.029 305.088L992.718 300.269L993.026 300.948L998.564 289.519L992.676 281.632L957.699 360.627L917.102 364.952L908.97 354.244L950.515 351.958L990.268 254.943L1005.23 275.784L1004.76 276.752L1038.28 318.741L1109.96 229.696V204.531L1035.06 283.177L1013.49 258.774L1011.37 263.139L985.759 239.643L935.548 344.688L901.909 344.915L899.048 341.146L998.997 535.669L907.982 539.644L901.147 539.006L942.403 611.617L934.292 620.143L887.272 537.688L867.241 535.793L918.893 636.288L917.843 637.4L922.022 647.696L912.223 643.31L908.826 646.873L854.848 534.64L838.049 533.054L880.458 640.55L782.691 656.593L788.888 666.168L782.32 677.062L807.827 695.452L804.492 690.304L850.566 707.973L854.662 703.669L899.418 737.606L900.797 748.541L1018.78 726.321L1006.8 660.938L997.617 663.224L1008.9 718.104L898.636 731.428L897.668 723.665L860.941 697.038L861.003 696.976L842.393 691.416L865.8 691.951L868.497 689.109L895.651 707.705L897.256 720.452L996.691 709.085L984.565 657.169L981.786 652.68L1012.01 659.62L1016.6 658.467L1031.38 739.109L902.568 762.75L901.168 751.568L847.642 710.979L840.231 718.763L902.712 763.78L904.688 779.451L883.669 829.658L897.648 834.312L907.797 804.101L909.485 817.487L1055.88 784.085L1051 762.812L907.632 802.763L906.15 790.963L1045.96 749.571L1026.44 656.016L1038.3 653.051L1060.24 751.156L1058.37 752.845L1090.3 848.212L1109.96 843.373V831.161L1110 831.264ZM984.792 318.041L985.368 319.668L984.153 319.4L984.812 318.041H984.792ZM924.04 374.034L959.387 370.43L955.455 378.523L930.751 382.868L924.04 374.034ZM996.732 500.764L982.589 473.746L1036.07 449.013L996.732 500.785V500.764ZM914.529 543.598L919.305 540.756L912.388 540.097L908.785 539.747L929.084 541.662L919.49 551.609L914.529 543.557V543.598ZM936.783 579.657L928.363 566.003L947.385 543.433L963.175 544.936L936.783 579.677V579.657Z" fill="#114841"/>
<path d="M161.363 0H145.409L141.559 18.2867L139.644 0H132.562L144.4 58.6082L147.611 75.5358L153.973 51.5241L151.708 45.758L161.363 0Z" fill="#114841"/>
<path d="M307.463 58.9583L226.701 0H209.079L154.565 192.278L149.089 189.272L145.609 199.424L159.65 206.57L225.754 24.7736L298.714 70.7375L297.581 72.2614L308.719 74.5679L304.869 62.4591L307.463 58.9583Z" fill="#114841"/>
<path d="M318.687 43.8429L295.877 0H280.622L287.992 11.8823L275.166 0H251.656L313.828 50.3915L313.52 50.8034L326.88 89.0861L338.512 90.1981L323.422 37.459L318.687 43.8429Z" fill="#114841"/>
<path d="M344.626 8.93735L343.061 11.0584L338.553 0.0205078H316.648L330.4 28.1096L333.324 24.1763L352.037 91.4748L340.797 90.4245L353.643 114.416L374.374 93.5753L364.183 92.6074L344.626 8.93735ZM354.425 98.4971L352.367 91.4954L360.004 92.2161L354.425 98.4971Z" fill="#114841"/>
<path d="M356.297 0L375.566 93.6783L384.933 94.5638L367.62 0H356.297Z" fill="#114841"/>
<path d="M388.33 9.32871L408.505 0H384.707L378.51 3.43906L398.068 110.153L402.679 117.937L347.98 165.178L290.07 85.647L300.219 86.5943L288.876 84.0201L292.725 78.8307L232.632 41.1246L167.29 225.228L141.371 211.842L145.509 199.754L124.181 200.536L134.145 232.991L137.624 222.839L173.301 237.769L247.434 73.6206L282.185 93.0811L278.788 97.6528L336.184 166.455L346.519 165.549L354.939 169.647L354.506 170.532L407.764 126.504L412.973 135.297L343.904 192.402L349.442 181.014L321.176 167.814L318.315 168.061L269.977 109.576L273.25 105.149L251.778 93.4106L178.345 252.019L133.61 234.7L128.978 248.251L182.668 264.025L231.377 175.763L237.697 175.207L228.741 165.075L237.079 153.852L254.948 173.683L247.043 174.383L188 277.802L137.398 262.625L134.042 258.218L123.563 264.025L128.525 249.507L111.499 188.304L150.079 186.533L154.176 174.548L99.7032 178.769L119.364 276.319L118.087 280.067L142.153 268.926L149.235 278.234L113.332 295.1L148.37 451.711L67.9995 474.096L61.3294 462.543L132.148 441.579L116.831 368.144L1.19531 366.476V385.751L6.89786 381.633L8.48305 375.434L12.4151 377.658L12.8269 378.379L1.19531 386.74V398.581L18.0971 387.564L13.568 379.718L16.059 379.759L14.4532 378.853L118.128 387.44L119.817 401.896L35.0812 390.55L37.3458 391.847L20.444 391.682L23.7585 397.428L5.62148 409.351L34.1548 548.067L12.1475 550.723L16.6354 557.622L6.19791 562.832L43.6659 599.364L37.3252 589.562L71.2111 579.533L39.2397 426.299L40.1662 425.867L42.5954 430.068L89.3275 421.275L109.4 432.642L50.336 443.474L57.4797 455.892L87.4129 589.665L45.0246 601.465L56.7591 619.607L113.682 606.613L80.5575 495.945L77.6136 490.818L174.639 468.68L124.51 301.237L157.408 289.025L150.285 279.635L191.459 288.799L261.248 173.189L277.82 171.726L246.981 140.59L254.351 130.664L294.825 170.203L288.381 170.779L339.457 201.628L335.443 209.906L338.593 212.975L418.058 143.967L415.546 139.725L388.372 9.47286L388.33 9.32871ZM220.033 176.71L221.454 174.795L222.792 176.483L220.013 176.731L220.033 176.71ZM35.2665 417.197L35.1841 417.032L29.3993 420.224L56.6562 568.886L27.5053 574.241L18.8176 560.834L44.0365 556.077L18.2206 415.22L29.8933 407.889L29.4198 407.065L58.6119 403.729L74.1138 412.502L35.2665 417.197ZM91.5097 411.719L121.711 417.835L122.843 427.555L91.4891 411.719H91.5097Z" fill="#114841"/>
<path d="M874.571 98.9708L872.698 94.2138L896.743 0H874.777L861.19 64.9715L865.369 75.5975L854.19 118.926L848.941 121.088L824.133 0H804.679L839.306 125.042L830.104 128.851L794.138 0H785.101L658.842 67.5662L654.23 55.0867L759.079 0H722.023L650.34 44.5842L647.107 35.8527L701.498 0H672.964L647.437 18.4721L642.125 0H633.829L643.443 25.968L660.262 117.669L493.406 149.198L503.432 178.872L674.797 128.131L666.438 88.0564L663.783 80.9106L782.033 29.7777L816.907 134.267L803.794 139.683L771.946 47.3025L667.612 91.2689L672.47 104.346L757.926 75.2475L786.439 146.809L793.294 143.987L871.318 129.902L878.483 108.917L870.001 112.418L874.571 98.9708Z" fill="#5C427F"/>
<path d="M599.409 656.922L535.507 528.771L550.659 448.602L503.433 443.083V455.254L537.813 457.807L495.342 532.293L558.42 641.519L480.52 659.62L475.105 691.025L573.408 646.523L509.98 530.439L517.823 517.074L587.633 651.795L473.932 704.966L466.953 737.915L599.409 656.922Z" fill="#5C427F"/>
<path d="M410.729 820.349L521.404 799.468L516.175 784.044L418.552 810.176L403.009 711.103L399.592 714.192L388.969 723.726L410.729 820.349Z" fill="#5C427F"/>
<path d="M1.19531 341.394V356.406L114.69 357.765L108.782 307.127L111.335 299.652L83.4602 166.743L158.623 161.389L164.202 145.059L71.8287 159.165L94.0213 337.914L1.19531 341.394Z" fill="#5C427F"/>
<path d="M90.9538 826.94L79.8575 855.4L170.44 939.811H182.812L93.6301 853.032L111.705 809.353L113.929 807.459L120.496 809.642L133.713 789.296L1.19531 724.571V745.576L118.952 792.858L109.75 806.1L112.405 806.965L5.64207 821.792L3.27458 779.143L1.19531 779.637V830.606L100.28 819.032L90.9538 826.94Z" fill="#5C427F"/>
<path d="M133.198 813.8L124.654 811L105.632 850.662L197.285 939.81H214.248L117.078 849.756L136.924 815.036L144.912 817.672L166.116 779.019L10.727 688.017L31.9932 657.951L39.4044 654.492L1.19531 611.74V637.255L21.0822 663.038L9.63591 668.371L1.19531 657.601V710.958L153.023 783.652L133.198 813.8Z" fill="#5C427F"/>
<path d="M58.7561 645.472L30.8403 685.793L180.774 775.518L157.079 821.667L148.041 818.702L131.675 847.676L234.053 939.81H264.501L144.356 846.173L160.29 822.738L170.995 826.259L193.188 772.47L129.616 728.051L128.092 729.657L124.922 724.776L61.6588 680.563L78.6841 653.318L74.8961 647.47L162.617 632.91L121.813 531.736L136.121 533.095L273.25 520.121L181.824 330.046L187.671 328.708L190.615 332.579L223.018 335.895L279.426 220.12L314.856 252.101L318.644 244.317L335.608 263.16L430.657 165.219L424.275 154.428L337.605 231.94L328.896 223.168L333.034 214.642L270.491 177.245L196.461 299.836L161.278 293.988L165.149 299.074L137.686 308.423L190.965 480.459L85.0248 503.544L92.6214 516.723L223.574 494.977L150.491 313.819L172.189 308.341L172.251 308.423L201.896 312.707L272.447 189.93L326.817 227.472L322.041 237.295L275.618 204.778L210.44 325.516L182.03 321.294L180.712 319.544L168.546 322.715L239.529 502.658L97.8916 525.908L100.074 529.697L102.627 529.924L130.028 618.392L65.2203 632.519L70.1612 640.138L69.6465 640.385L1.19531 573.849V596.151L51.0772 649.055L58.7561 645.472Z" fill="#5C427F"/>
<path d="M503.373 3.10957L424.526 25.0825L479.101 201.587L455.262 206.776L448.159 196.212L340.758 332.436L330.732 320.244L338.452 357.806L258.884 367.423L264.504 355.85L326.244 348.787L315.148 301.278L299.955 282.785L298.308 286.183L313.233 339.829L272.471 339.458L278.133 327.802L296.928 328.132L289.908 303.564L289.147 305.129L290.835 300.31L291.144 300.99L296.681 289.561L290.794 281.673L255.817 360.669L215.219 364.993L207.088 354.285L248.632 351.999L288.385 254.985L303.352 275.825L302.878 276.793L336.393 318.782L441.777 186.904L462.776 189.643L412.647 22.1994L472.431 0H435.704L401.448 16.0833L436.487 172.694L333.161 283.238L311.586 258.836L309.466 263.201L283.856 239.705L233.645 344.75L200.006 344.977L197.144 341.208L297.093 535.731L206.079 539.706L199.244 539.067L240.5 611.679L232.389 620.205L185.369 537.749L165.338 535.855L216.99 636.35L215.94 637.462L220.119 647.758L210.32 643.372L206.923 646.934L152.944 534.702L136.166 533.116L178.575 640.612L80.8081 656.654L87.0047 666.23L80.4375 677.124L105.945 695.514L102.61 690.365L148.683 708.034L152.78 703.73L197.535 737.668L198.915 748.603L316.898 726.383L304.916 661L295.734 663.285L307.016 718.166L196.753 731.49L195.785 723.726L159.059 697.099L159.12 697.038L140.51 691.477L163.917 692.013L166.614 689.171L193.768 707.767L195.374 720.514L294.808 709.146L282.682 657.231L279.903 652.742L310.125 659.682L314.715 658.528L329.497 739.171L200.685 762.812L199.285 751.63L145.759 711.041L138.348 718.825L200.829 763.842L202.806 779.513L181.786 829.719L195.765 834.374L205.914 804.163L207.602 817.549L353.995 784.147L349.116 762.874L205.749 802.825L204.267 791.025L344.072 749.633L324.556 656.078L336.414 653.112L358.36 751.218L356.486 752.907L388.416 848.274L521.119 804.946L398.36 833.364L376.641 734.764L374.561 736.638L348.643 650.044L344.896 650.991L265.307 628.998L259.337 619.319L281.818 700.147L192.739 699.323L191.771 691.56L174.602 680.81L179.09 676.094L95.8159 679.739L89.2692 669.628L194.756 659.661L199.429 654.76L232.512 661.638L222.61 630.46L231.483 621.152L252.008 680.028L188.992 665.715L188.559 666.168L183.475 671.502L189.712 675.353L191.195 687.174L265.472 688.491L242.806 609.249L249.044 602.7L255.178 612.647L364.721 646.049L359.142 647.449L384.114 728.072L399.574 714.171L371.432 644.381L384.505 641.107L409.724 705.048L412.812 702.268L427.14 797.635L514.716 775.003L510.64 761.638L435.622 784.291L433.007 684.085L440.666 677.186L436.301 669.525L430.125 666.066L434.387 658.055L253.964 588.388L281.324 546.769L292.688 547.84L270.433 581.839L453.162 650.785L441.469 672.388L445.092 674.406L446.739 767.528L507.449 747.923L503.352 734.806L454.706 753.751L467.408 686.885L474.901 691.086L492.194 636.205L353.295 555.892L406.594 451.608L410.568 452.102L466.893 442.753L411.515 305.459L412.338 288.984L364.391 361.142L355.807 350.702L360.953 378.75L242.867 400.414L242.62 400.949L236.403 392.774L247.644 390.57L250.67 384.33L348.334 365.941L342.59 334.618L355.519 350.352L455.838 207.723L465.308 223.724L503.332 217.402L437.331 30.4573L537.588 19.234L503.373 3.08898V3.10957ZM282.888 318.041L283.465 319.668L282.25 319.4L282.909 318.041H282.888ZM412.647 656.346L428.849 687.874L421.005 694.917L398.71 648.541L412.647 656.346ZM212.625 543.598L217.402 540.756L210.484 540.097L206.902 539.747L227.18 541.662L217.587 551.609L212.625 543.557V543.598ZM234.859 579.657L226.439 566.003L245.461 543.433L261.252 544.936L234.859 579.677V579.657ZM294.808 500.764L280.665 473.746L334.149 449.013L294.808 500.785V500.764ZM323.053 563.8L480.131 640.345L462.241 684.043L451.309 677.927L465.823 645.081L303.228 567.733L313.686 549.858L320.85 550.538L317.289 543.701L373.553 447.593L388.499 449.425L323.033 563.779L323.053 563.8ZM375.508 389.293L371.432 369.771L378.555 378.441L410.547 325.413L409.435 347.922L434.325 428.297L355.766 445.41L359.512 445.863L307.592 525.167L302.281 514.994L348.622 444.524L321.797 441.229L320.089 441.929L303.166 456.88L275.086 462.996L268.539 450.476L418.041 416.373L407.789 382.147L406.677 404.759L404.021 409.372L396.857 400.661L407.83 381.53L409.415 349.281L386.172 387.646L390.228 392.588L391.751 399.405L260.902 435.854L255.178 424.899L375.55 389.252L375.508 389.293ZM253.531 378.523L228.827 382.868L222.116 374.034L257.464 370.43L253.531 378.523Z" fill="#5C427F"/>
<path d="M1110 168.925L1039.53 231.94L1030.82 223.168L1034.96 214.642L972.42 177.245L898.39 299.836L863.207 293.988L867.057 299.074L839.614 308.423L892.893 480.459L786.953 503.544L794.529 516.723L925.482 494.977L852.399 313.819L874.097 308.341L874.18 308.423L903.804 312.707L974.376 189.93L1028.75 227.472L1023.97 237.295L977.546 204.778L912.368 325.516L883.958 321.294L882.641 319.544L870.474 322.715L941.457 502.658L799.82 525.908L802.002 529.697L804.555 529.924L831.956 618.392L767.149 632.519L772.09 640.138L771.575 640.385L692.213 563.243L713.088 550.723L640.375 559.475L638.296 553.997L635.084 578.359L622.609 571.439L628.044 526.773L624.338 516.971L694.56 518.206L664.585 413.428L676.34 404.964L684.452 360.607L676.484 356.076L816.619 357.765L810.69 307.106L813.263 299.651L785.389 166.742L859.851 161.1L865.06 144.77L773.757 159.164L795.929 337.913L653.818 343.247L663.865 348.93L495.547 351.36L503.432 366.661L662.053 373.827L656.021 419.627L650.916 423.292L681.055 509.763L616.062 494.998L614.106 489.808L608.651 563.696L617.627 568.68L689.825 678.524L698.183 674.611L678.811 699.302L854.952 783.652L835.826 814.624L847.252 818.722L868.045 779.019L712.655 688.017L733.922 657.951L741.333 654.492L670.782 575.558L660.221 581.633L723.011 663.038L711.564 668.372L645.604 584.207L642.166 582.292L647.498 578.379L646.181 574.879L684.534 567.65L679.161 570.739L752.985 649.055L760.685 645.472L732.748 685.793L882.703 775.518L859.501 822.45L873.068 827.145L895.096 772.47L832.141 728.483L831.544 728.051L763.587 680.563L780.613 653.318L776.825 647.469L864.545 632.91L823.721 531.736L838.05 533.095L975.158 520.121L883.753 330.046L889.599 328.708L892.543 332.579L924.947 335.895L981.334 220.12L1016.78 252.101L1020.57 244.317L1037.54 263.16L1110 188.489V168.925Z" fill="#5C427F"/>
<path d="M20.1146 0L1.19531 11.7587V29.3865L57.1503 0H20.1146Z" fill="#5C427F"/>
<path d="M172.663 98.9708L170.769 94.2138L194.814 0H172.848L159.261 64.9715L163.44 75.5975L152.261 118.926L147.012 121.088L122.205 0H102.75L137.398 125.042L128.175 128.851L92.2096 0H83.172L1.19531 43.884V63.9006L80.1252 29.7777L114.999 134.267L101.865 139.683L70.017 47.3025L1.19531 76.2977V93.9049L55.9974 75.2474L84.5102 146.809L91.3656 143.987L169.39 129.902L176.574 108.917L168.072 112.418L172.663 98.9708Z" fill="#5C427F"/>
<path d="M513.703 0L534.928 11.5322L530.543 0H513.703Z" fill="#5C427F"/>
<path d="M540.201 0L550.864 26.2151L449.516 34.6583L568.981 47.735L550.844 0H540.201Z" fill="#5C427F"/>
<path d="M562.332 0L582.733 58.5052L451.945 41.8247L461.58 68.4311L596.218 66.969L577.072 0H562.332Z" fill="#5C427F"/>
<path d="M590.657 0L612.541 78.6659L467.836 80.6017L476.75 105.396L625.551 87.624L605.088 0H590.657Z" fill="#5C427F"/>
<path d="M617.893 0L637.759 96.6437L482.164 117.422L489.534 138.736L647.641 104.84L628.433 0H617.893Z" fill="#5C427F"/>
</g>
<g clip-path="url(#clip2_4606_1658)">
<path d="M1121 776H0V1725.84H1121V776Z" fill="#172D1D"/>
<path d="M770.398 934.196L782.021 929.409L757.009 869.448L683.493 893.299L687.214 903.331L748.069 885.203L763.496 937.047L760.398 938.317L766.594 1081.19L612.575 1095.85L621.328 1100.8L522.593 1111.02L538.601 980.941L522.925 991.909L499.078 1122.67L649.77 1116.93L637.462 1109.96L789.692 1102.74L770.398 934.196Z" fill="#114841"/>
<path d="M554.281 969.993L536.962 1100.43L608.337 1091.14L608.482 1084.25L752.272 1068.23L748.675 943.166L749.735 942.729L736.595 899.272L690.772 912.905L692.394 917.254L628.275 935.132L611.601 929.971L611.351 942.458L657.029 960.815L654.721 943.291L646.342 940.689L647.195 944.748L636.987 937.796L654.721 943.291L664.888 946.434L700.211 938.358L701.688 942.313L714.141 937.339L716.033 956.548L719.131 955.279L721.085 1030.27L609.73 1023.94L609.667 1027.37L608.711 1027.64L609.751 1023.25L609.958 1012.74L710.565 1019.09L707.426 959.545L708.174 959.774L705.513 952.573L693.413 955.216L694.265 955.487L699.214 1007.87L610.395 991.139L610.645 978.672L685.076 993.345L680.793 951.345L667.507 947.245L673.163 982.564L611.102 956.299L610.852 968.682L597.318 1039.76L609.48 1037.36L609.397 1041.32L729.464 1040.21L729.069 951.241L728.113 951.637L721.73 923.332L697.758 931.74L693.953 921.479L729.443 910.074L738.113 947.495L739.194 947.058L739.672 1055.22L609.044 1055.82L609.189 1048.5L583.221 1053.64L606.965 933.197L588.17 946.309L511.93 967.371L517.356 982.314L554.26 969.993H554.281ZM587.65 946.704L567.337 1069.37L608.919 1062.17L608.503 1082.69L608.669 1073.93L551.37 1083.94L573.762 956.382L587.629 946.704H587.65Z" fill="#114841"/>
<path d="M1019.39 835.586L937.81 776H919.826L855.25 980.545L870.115 984.77L936.875 801.037L1010.56 847.491L1009.41 849.031L1020.66 851.362L1016.77 839.124L1019.39 835.586Z" fill="#114841"/>
<path d="M1038.75 866.014L1016.44 863.912L1062.24 927.702L1109.35 884.745L1102.57 873.278L1063.74 911.781L1038.75 866.014Z" fill="#114841"/>
<path d="M821.648 1481.34L837.886 1505.81L850.028 1493.68L821.648 1481.34Z" fill="#5C427F"/>
<path d="M425.358 1325.01L412.156 1327.22L529.271 1411.99L508.418 1414.38L520.996 1422.52L550.395 1417.27L425.358 1325.01Z" fill="#114841"/>
<path d="M329.887 866.014L307.578 863.912L353.36 927.702L400.472 884.745L393.694 873.278L354.856 911.781L329.887 866.014Z" fill="#114841"/>
<path d="M503.34 1147.8L478.038 1095.93L498.683 1096.22L466.582 1041.19L450.927 1067.06H444.336L485.793 1147.8H503.34Z" fill="#114841"/>
<path d="M393.151 1329.11L450.929 1237.45L466.876 1239.43L412.071 1327.28L424.878 1325.74L485.338 1241.7L497.958 1243.26L440.035 1322.72L457.395 1318.12L508.353 1263.16L508.852 1223.95L434.317 1067.06H437.436L465.171 1022.67L500.744 1082.46L508.353 1039.19L492.282 1039.9L485.67 1028.75L509.829 1026.5L513.405 1005.54L471.72 1011.41L463.092 997.861L417.144 1067.06H422.924L487.666 1231.29L450.492 1237.41L423.818 1234.12L375.438 1332.76L513.946 1417.82L523.136 1413.9L393.151 1329.11Z" fill="#114841"/>
<path d="M532.533 1248.42L508.415 1248.98L507.729 1263.37L513.363 1262.93L474.609 1316.21L526.961 1372.96L489.828 1315.52L532.533 1248.42Z" fill="#114841"/>
<path d="M543.985 1404.89L440.031 1322.72L457.392 1318.12L529.889 1383.14L543.985 1404.89Z" fill="#114841"/>
<path d="M1.20312 1333.8V1338.62L11.2659 1332.59L1.20312 1333.8Z" fill="#5C427F"/>
<path d="M1.20312 1230.77V1283.39L9.04127 1311.55L1.20312 1311.46V1323.02L22.1811 1320.6L1.20312 1230.77Z" fill="#114841"/>
<path d="M1.20312 896.505L39.2088 885.203L54.6148 937.047L51.5169 938.317L57.7126 1081.19L1.20312 1086.56V1106.52L80.8112 1102.74L61.5173 934.196L73.1394 929.409L48.128 869.448L1.20312 884.662V896.505Z" fill="#114841"/>
<path d="M1.20312 916.297L20.5594 910.095L29.2292 947.516L30.3103 947.058L30.8093 1055.22L1.20312 1055.35V1072.93L43.3877 1068.23L39.7909 943.145L40.8512 942.729L27.7114 899.272L1.20312 907.16V916.297Z" fill="#114841"/>
<path d="M20.1436 951.242L19.1872 951.637L12.8252 923.332L1.20312 927.411V939.004L5.23655 937.401L7.12851 956.611L10.2263 955.342L12.1807 1030.31L1.20312 1029.7V1040.4L20.5386 1040.24L20.1436 951.242Z" fill="#114841"/>
<path d="M1.20312 1010.91V1019.15L1.63973 1019.17L1.20312 1010.91Z" fill="#114841"/>
<path d="M1121 1341.1L1102.04 1329.11L1121 1299.04V1258L1084.3 1332.76L1121 1354.71V1341.1Z" fill="#114841"/>
<path d="M1121 1527.25L1115.88 1494.68L1112.41 1497.8L1101.7 1507.43L1121 1593.18V1527.25Z" fill="#5C427F"/>
<path d="M871.816 776H855.703L851.836 794.482L849.881 776H842.75L854.705 835.232L857.948 852.34L864.372 828.073L862.085 822.245L871.816 776Z" fill="#114841"/>
<path d="M1030.72 820.31L1007.69 776H992.281L999.724 788.009L986.772 776H963.008L1024.32 825.804L1037.42 881.436L1056.61 900.043L1035.51 813.858L1030.72 820.31Z" fill="#114841"/>
<path d="M1056.92 785.033L1055.32 787.156L1050.76 776H1028.64L1042.53 804.388L1045.48 800.413L1063.63 894.173L1086.94 870.551L1076.65 869.594L1056.92 785.033Z" fill="#114841"/>
<path d="M1068.71 776L1088.17 870.676L1097.63 871.571L1080.13 776H1068.71Z" fill="#114841"/>
<path d="M1121 916.734L1056.15 970.388L1061.74 958.879L1033.2 945.538L1030.31 945.788L981.49 886.681L984.796 882.206L963.111 870.343L888.95 1030.64L843.771 1013.14L839.094 1026.83L893.316 1042.77L968.392 899.543L979.556 911.26L898.722 1056.68L847.618 1041.34L844.229 1036.88L833.646 1042.75L838.657 1028.08L821.463 966.226L860.425 964.436L864.562 952.323L809.55 956.59L829.405 1055.18L828.116 1058.97L852.42 1047.71L859.572 1057.11L823.313 1074.16L858.699 1232.44L777.532 1255.06L770.796 1243.39L842.316 1222.2L826.848 1147.98L701.23 1146.17L700.647 1145.84L694.93 1176.72L715.825 1161.63L717.426 1155.37L721.397 1157.62L721.812 1158.35L683.058 1186.23L717.904 1311.63L635.156 1310.86L642.683 1330.82L731.064 1320.7L699.525 1185.65L727.156 1167.63L722.582 1159.7L725.097 1159.74L723.476 1158.82L828.178 1167.5L829.883 1182.11L744.308 1170.65L746.595 1171.96L729.526 1171.79L732.873 1177.6L714.556 1189.65L743.373 1329.84L721.147 1332.53L725.68 1339.5L715.139 1344.76L752.978 1381.69L746.574 1371.78L780.796 1361.64L748.529 1206.78L749.464 1206.34L751.918 1210.59L799.113 1201.7L819.384 1213.19L759.735 1224.13L766.949 1236.68L797.179 1371.88L754.371 1383.81L766.222 1402.14L823.708 1389.01L790.256 1277.16L787.283 1271.98L885.27 1249.61L834.644 1080.38L867.868 1068.04L860.674 1058.55L902.256 1067.81L978.974 940.668L1049.95 983.043L1047.67 988.079L1050.85 991.18L1121.06 930.158V916.817L1121 916.734ZM744.495 1197.64L744.412 1197.47L738.57 1200.7L766.097 1350.95L736.657 1356.36L727.883 1342.81L753.352 1338L727.28 1195.64L739.069 1188.23L738.591 1187.4L768.072 1184.03L783.728 1192.89L744.495 1197.64ZM801.275 1192.1L831.775 1198.29L832.919 1208.11L801.254 1192.1H801.275Z" fill="#114841"/>
<path d="M1120.99 776H1097.38L1091.12 779.476L1110.87 887.326L1115.53 895.172L1060.29 942.916L1001.8 862.538L1012.05 863.496L1000.59 860.894L1004.5 855.649L943.815 817.542L877.825 1003.61L851.649 990.057L855.828 977.86L834.289 978.631L844.352 1011.43L847.845 1001.17L883.875 1016.26L958.743 850.363L993.817 870.031L990.407 874.651L1048.35 944.186L1058.79 943.249L1067.29 947.391L1066.86 948.286L1120.62 903.81L1120.99 904.413V881.124L1101.04 785.428L1120.99 776.187V776Z" fill="#114841"/>
<path d="M626.588 1184.47L623.345 1228.36L618.168 1232.08L639.541 1243.72L631.474 1222.49L638.813 1217.18L655.612 1258.54L609.872 1238.08L608.978 1238.74L611.411 1196.41L500.159 1177.04L508.413 1192.04L596.504 1206.65L576.96 1324.76L585.048 1329.26L656.776 1460.21L571.596 1511.78L561.97 1502.98L638.21 1454.92L566.211 1318.81L563.467 1317.27L580.016 1214.25L510.617 1199.95L517.228 1213.33L568.852 1220.85L548.664 1309.05L553.467 1311.73L553.051 1312.15L619.124 1447.74L509.536 1508.85L540.659 1599.84L489.285 1613.06L558.893 1621.2L524.027 1513.16L540.535 1507.64L575.38 1633.02L588.52 1642.09L560.639 1522.59L572.012 1533.01L651.911 1488.74L647.836 1504.5L829.007 1577.3L819.714 1590.68L714.575 1606.54L712.184 1563.44L699.647 1566.44L705.655 1615.97L810.15 1603.75L800.732 1611.75L789.526 1640.51L881.005 1725.82H893.501L803.435 1638.12L825.93 1592.47L830.567 1594.26L843.915 1573.7L668.398 1487.91L684.553 1467.39L685.509 1466.95L603.489 1339.5L603.157 1339.31L608.853 1240.93L616.754 1261.93L668.107 1272.63L648.335 1210.32L646.007 1212L651.682 1165.26L488.703 1154.7L497.207 1169.11L626.588 1184.47Z" fill="#114841"/>
<path d="M1121 1616.12L1111.18 1618.28L1089.25 1518.63L1087.15 1520.53L1060.97 1433.01L1057.19 1433.97L976.813 1411.74L970.784 1401.96L993.467 1483.65L903.505 1482.81L902.528 1474.97L885.188 1464.1L889.721 1459.34L805.622 1463.02L799.01 1452.8L905.543 1442.73L910.262 1437.78L943.673 1444.73L933.673 1413.22L942.633 1403.81L963.362 1463.31L899.721 1448.85L899.285 1449.31L894.149 1454.7L900.449 1458.59L901.946 1470.53L976.959 1471.87L954.068 1391.78L960.368 1385.16L966.564 1395.21L1077.19 1428.97L1071.56 1430.39L1096.78 1511.87L1112.39 1497.82L1083.97 1427.29L1097.17 1423.98L1120.98 1484.37V1451.16L1111.52 1431.47L1120.98 1436.76V1430.84L965.379 1370.72L993.01 1328.66L1004.49 1329.74L982.011 1364.1L1121 1416.59V1400.21L1015.09 1349.8L1025.65 1331.74L1032.89 1332.42L1029.29 1325.51L1086.11 1228.38L1101.21 1230.23L1035.09 1345.8L1120.96 1387.68V1369.86L1065.65 1337.88L1119.48 1232.48L1120.96 1232.67V1214.64L1068.13 1226.15L1071.91 1226.61L1019.48 1306.76L1014.11 1296.48L1060.91 1225.26L1033.82 1221.93L1032.1 1222.64L1015.01 1237.75L986.648 1243.93L980.036 1231.27L1121 1199.1V1163.3L1120.67 1162.22L1119.54 1185.07L1116.86 1189.73L1109.63 1180.93L1120.71 1161.59L1121 1155.64V1131.19L1098.83 1167.8L1102.93 1172.79L1104.47 1179.68L972.323 1216.52L966.543 1205.45L1088.11 1169.42L1083.99 1149.69L1091.18 1158.45L1120.98 1109.02V1074.62L1076.88 1141.03L1068.21 1130.48L1073.41 1158.83L954.152 1180.72L953.902 1181.26L947.623 1173L958.975 1170.77L962.031 1164.47L1060.66 1145.88L1054.86 1114.22L1067.92 1130.12L1120.96 1054.66V1028.77L1052.99 1111.93L1042.87 1099.61L1050.66 1137.58L970.306 1147.3L975.982 1135.6L1038.33 1128.46L1027.13 1080.45L1011.78 1061.76L1010.12 1065.19L1025.19 1119.41L984.028 1119.03L989.745 1107.25L1008.73 1107.59L1001.62 1082.76L1000.85 1084.34L1002.55 1079.47L1002.86 1080.15L1008.46 1068.6L1002.51 1060.63L967.187 1140.47L926.188 1144.84L917.975 1134.02L959.931 1131.71L1000.08 1033.66L1015.19 1054.72L1014.72 1055.7L1048.56 1098.14L1120.96 1008.14V982.71L1045.32 1062.19L1023.53 1037.53L1021.39 1041.94L995.525 1018.2L944.816 1124.36L910.844 1124.59L907.954 1120.78L1008.89 1317.38L916.977 1321.39L910.075 1320.75L951.74 1394.13L943.548 1402.75L896.062 1319.41L875.832 1317.5L927.997 1419.07L926.936 1420.19L931.157 1430.6L921.26 1426.16L917.83 1429.76L863.316 1316.33L846.351 1314.73L889.18 1423.37L790.445 1439.59L796.703 1449.26L790.07 1460.27L815.83 1478.86L812.462 1473.66L858.992 1491.51L863.129 1487.16L908.329 1521.46L909.722 1532.51L1028.87 1510.06L1016.77 1443.98L1007.5 1446.29L1018.89 1501.75L907.539 1515.22L906.561 1507.37L869.47 1480.46L869.533 1480.4L850.738 1474.78L874.377 1475.32L877.101 1472.45L904.524 1491.24L906.145 1504.13L1006.57 1492.64L994.319 1440.17L991.513 1435.63L1022.03 1442.65L1026.67 1441.48L1041.6 1522.98L911.51 1546.87L910.096 1535.57L856.04 1494.55L848.555 1502.42L911.655 1547.92L913.651 1563.75L892.424 1614.49L906.541 1619.2L916.79 1588.67L918.495 1602.19L1066.34 1568.44L1061.41 1546.94L916.624 1587.31L915.127 1575.39L1056.32 1533.55L1036.61 1439L1048.58 1436.01L1070.75 1535.16L1068.85 1536.86L1101.1 1633.25L1120.96 1628.36V1616.01L1121 1616.12ZM994.548 1097.43L995.13 1099.07L993.904 1098.8L994.569 1097.43H994.548ZM933.194 1154.02L968.892 1150.38L964.921 1158.55L939.972 1162.95L933.194 1154.02ZM1006.61 1282.1L992.324 1254.79L1046.34 1229.8L1006.61 1282.12V1282.1ZM923.589 1325.39L928.412 1322.52L921.427 1321.85L917.788 1321.5L938.288 1323.43L928.6 1333.48L923.589 1325.35V1325.39ZM946.064 1361.83L937.56 1348.03L956.771 1325.22L972.718 1326.74L946.064 1361.85V1361.83Z" fill="#114841"/>
<path d="M162.954 776H146.841L142.953 794.482L141.019 776H133.867L145.822 835.232L149.065 852.34L155.49 828.073L153.203 822.245L162.954 776Z" fill="#114841"/>
<path d="M310.512 835.586L228.95 776H211.153L156.099 970.326L150.568 967.288L147.055 977.548L161.234 984.77L227.993 801.037L301.676 847.491L300.533 849.031L311.78 851.362L307.893 839.124L310.512 835.586Z" fill="#114841"/>
<path d="M321.836 820.31L298.799 776H283.393L290.836 788.009L277.884 776H254.141L316.929 826.928L316.617 827.344L330.11 866.035L341.857 867.159L326.617 813.858L321.836 820.31Z" fill="#114841"/>
<path d="M348.036 785.032L346.456 787.176L341.903 776.021H319.781L333.67 804.409L336.622 800.434L355.521 868.449L344.169 867.387L357.142 891.634L378.079 870.572L367.787 869.594L348.036 785.032ZM357.932 875.546L355.853 868.47L363.567 869.198L357.932 875.546Z" fill="#114841"/>
<path d="M359.828 776L379.288 870.676L388.748 871.571L371.263 776H359.828Z" fill="#114841"/>
<path d="M392.175 785.428L412.55 776H388.515L382.257 779.476L402.009 887.326L406.666 895.193L351.425 942.937L292.94 862.559L303.19 863.517L291.734 860.915L295.622 855.67L234.934 817.563L168.944 1003.63L142.768 990.098L146.947 977.881L125.408 978.672L135.47 1011.47L138.984 1001.21L175.014 1016.3L249.882 850.405L284.977 870.073L281.547 874.693L339.512 944.228L349.949 943.312L358.452 947.453L358.015 948.348L411.801 903.851L417.061 912.738L347.308 970.451L352.901 958.942L324.355 945.601L321.465 945.851L272.648 886.743L275.954 882.269L254.269 870.406L180.108 1030.7L134.93 1013.2L130.252 1026.89L184.474 1042.84L233.665 953.635L240.048 953.073L231.004 942.833L239.424 931.49L257.471 951.533L249.487 952.24L189.859 1056.76L138.755 1041.42L135.366 1036.97L124.784 1042.84L129.794 1028.16L112.6 966.31L151.562 964.52L155.7 952.407L100.687 956.673L120.542 1055.26L119.253 1059.05L143.558 1047.79L150.71 1057.2L114.451 1074.24L149.837 1232.52L68.6694 1255.15L61.9331 1243.47L133.454 1222.28L117.985 1148.07L1.20312 1146.38V1165.86L6.96218 1161.7L8.56308 1155.43L12.5341 1157.68L12.9499 1158.41L1.20312 1166.86V1178.83L18.2724 1167.69L13.6984 1159.76L16.2141 1159.8L14.5924 1158.89L119.295 1167.57L121 1182.18L35.4248 1170.71L37.7118 1172.02L20.6426 1171.85L23.9899 1177.66L5.67315 1189.71L34.4892 1329.9L12.2638 1332.59L16.7962 1339.56L6.2553 1344.83L44.0946 1381.75L37.691 1371.84L71.9127 1361.71L39.6246 1206.84L40.5602 1206.4L43.0135 1210.65L90.2087 1201.76L110.48 1213.25L50.8308 1224.2L58.0453 1236.75L88.2751 1371.95L45.4668 1383.87L57.3176 1402.21L114.804 1389.07L81.3518 1277.23L78.3787 1272.05L176.366 1249.67L125.74 1080.45L158.964 1068.1L151.77 1058.61L193.352 1067.87L263.833 951.033L280.569 949.556L249.425 918.087L256.868 908.055L297.743 948.015L291.235 948.598L342.817 979.775L338.763 988.142L341.944 991.243L422.197 921.5L419.66 917.213L392.216 785.574L392.175 785.428ZM222.21 954.592L223.644 952.657L224.996 954.363L222.189 954.613L222.21 954.592ZM35.6119 1197.64L35.5288 1197.47L29.6866 1200.7L57.2136 1350.95L27.7738 1356.36L19.0001 1342.81L44.4688 1338L18.3971 1195.64L30.1855 1188.23L29.7074 1187.4L59.1887 1184.03L74.8442 1192.9L35.6119 1197.64ZM92.4125 1192.1L122.913 1198.29L124.056 1208.11L92.3917 1192.1H92.4125Z" fill="#114841"/>
<path d="M883.231 876.025L881.339 871.217L905.623 776H883.439L869.717 841.663L873.938 852.403L862.648 896.192L857.347 898.378L832.294 776H812.646L847.617 902.374L838.323 906.224L802.001 776H792.874L665.364 844.286L660.707 831.673L766.595 776H729.171L656.778 821.059L653.513 812.235L708.443 776H679.627L653.846 794.669L648.482 776H640.103L649.813 802.245L666.799 894.923L498.289 926.787L508.414 956.777L681.477 905.495L673.036 864.994L670.354 857.772L789.776 806.095L824.996 911.698L811.752 917.171L779.589 823.806L674.221 868.241L679.128 881.457L765.43 852.049L794.226 924.372L801.149 921.521L879.946 907.285L887.181 886.077L878.616 889.615L883.231 876.025Z" fill="#5C427F"/>
<path d="M605.346 1439.92L540.812 1310.4L556.114 1229.38L508.419 1223.8V1236.1L543.14 1238.68L500.249 1313.96L563.952 1424.35L485.279 1442.65L479.811 1474.38L579.087 1429.41L515.031 1312.09L522.952 1298.58L593.454 1434.74L478.626 1488.47L471.578 1521.77L605.346 1439.92Z" fill="#5C427F"/>
<path d="M414.796 1605.09L526.568 1583.98L521.287 1568.39L422.697 1594.81L407 1494.68L403.548 1497.8L392.82 1507.43L414.796 1605.09Z" fill="#5C427F"/>
<path d="M1.20312 1121.03V1136.2L115.823 1137.58L109.856 1086.4L112.434 1078.84L84.2833 944.519L160.191 939.108L165.825 922.604L72.5365 936.86L94.949 1117.51L1.20312 1121.03Z" fill="#5C427F"/>
<path d="M134.514 1598.47L125.886 1595.64L106.675 1635.72L199.236 1725.82H216.367L118.235 1634.81L138.277 1599.72L146.344 1602.38L167.758 1563.32L10.8293 1471.35L32.3062 1440.96L39.7909 1437.46L1.20312 1394.26V1420.04L21.2871 1446.1L9.72736 1451.49L1.20312 1440.61V1494.53L154.535 1568L134.514 1598.47Z" fill="#5C427F"/>
<path d="M59.3343 1428.35L31.1419 1469.1L182.562 1559.78L158.631 1606.42L149.504 1603.42L132.975 1632.71L236.368 1725.82H267.118L145.783 1631.19L161.875 1607.5L172.686 1611.06L195.098 1556.7L130.896 1511.81L129.358 1513.43L126.156 1508.5L62.2658 1463.81L79.4598 1436.28L75.6343 1430.37L164.224 1415.65L123.017 1313.4L137.466 1314.77L275.954 1301.66L183.622 1109.56L189.526 1108.21L192.5 1112.12L225.224 1115.47L282.191 998.465L317.972 1030.79L321.798 1022.92L338.929 1041.96L434.921 942.979L428.476 932.073L340.946 1010.41L332.152 1001.55L336.331 992.929L273.168 955.134L198.404 1079.03L162.873 1073.12L166.781 1078.26L139.046 1087.71L192.853 1261.58L85.8634 1284.91L93.5352 1298.23L225.786 1276.25L151.978 1093.16L173.892 1087.63L173.954 1087.71L203.893 1092.04L275.143 967.954L330.052 1005.9L325.228 1015.82L278.345 982.96L212.521 1104.98L183.83 1100.72L182.499 1098.95L170.212 1102.15L241.899 1284.01L98.8577 1307.51L101.061 1311.34L103.64 1311.57L131.312 1400.98L65.8626 1415.26L70.8524 1422.96L70.3326 1423.21L1.20312 1355.96V1378.5L51.5793 1431.97L59.3343 1428.35Z" fill="#5C427F"/>
<path d="M508.353 779.143L428.725 801.35L483.841 979.734L459.765 984.978L452.592 974.302L344.127 1111.98L334.001 1099.66L341.798 1137.62L261.441 1147.34L267.117 1135.64L329.469 1128.5L318.263 1080.49L302.919 1061.8L301.256 1065.23L316.329 1119.45L275.163 1119.07L280.881 1107.29L299.863 1107.63L292.773 1082.8L292.004 1084.38L293.709 1079.51L294.021 1080.2L299.613 1068.64L293.667 1060.67L258.344 1140.51L217.344 1144.88L209.132 1134.06L251.088 1131.75L291.235 1033.7L306.35 1054.76L305.871 1055.74L339.719 1098.18L446.147 964.894L467.354 967.662L416.728 798.436L477.105 776H440.014L405.418 792.255L440.804 950.534L336.455 1062.26L314.666 1037.59L312.525 1042L286.661 1018.26L235.952 1124.42L201.98 1124.65L199.09 1120.84L300.029 1317.44L208.113 1321.45L201.21 1320.81L242.875 1394.19L234.684 1402.81L187.197 1319.48L166.968 1317.56L219.132 1419.13L218.072 1420.25L222.292 1430.66L212.396 1426.22L208.965 1429.82L154.452 1316.4L137.507 1314.79L180.336 1423.44L81.6008 1439.65L87.8588 1449.33L81.2266 1460.34L106.986 1478.92L103.618 1473.72L150.148 1491.58L154.286 1487.23L199.485 1521.52L200.878 1532.58L320.03 1510.12L307.93 1444.04L298.657 1446.35L310.05 1501.82L198.695 1515.28L197.718 1507.43L160.627 1480.52L160.689 1480.46L141.894 1474.84L165.533 1475.38L168.257 1472.51L195.68 1491.31L197.302 1504.19L297.721 1492.7L285.476 1440.23L282.669 1435.69L313.19 1442.71L317.826 1441.54L332.754 1523.04L202.666 1546.94L201.252 1535.64L147.196 1494.61L139.711 1502.48L202.811 1547.98L204.807 1563.82L183.58 1614.56L197.697 1619.26L207.947 1588.73L209.652 1602.26L357.495 1568.5L352.568 1547L207.78 1587.38L206.283 1575.45L347.474 1533.62L327.764 1439.07L339.74 1436.07L361.903 1535.22L360.011 1536.93L392.257 1633.31L526.275 1589.52L402.299 1618.24L380.365 1518.59L378.265 1520.48L352.089 1432.97L348.306 1433.92L267.928 1411.7L261.899 1401.92L284.602 1483.6L194.641 1482.77L193.663 1474.93L176.324 1464.06L180.856 1459.3L96.7573 1462.98L90.1458 1452.76L196.678 1442.69L201.398 1437.73L234.808 1444.69L224.808 1413.17L233.769 1403.77L254.497 1463.27L190.857 1448.81L190.42 1449.26L185.285 1454.65L191.584 1458.55L193.081 1470.49L268.095 1471.82L245.204 1391.74L251.503 1385.12L257.699 1395.17L368.327 1428.93L362.693 1430.35L387.912 1511.83L403.526 1497.78L375.105 1427.24L388.307 1423.93L413.776 1488.56L416.895 1485.75L431.365 1582.13L519.809 1559.26L515.693 1545.75L439.931 1568.64L437.29 1467.37L445.025 1460.4L440.617 1452.66L434.38 1449.16L438.683 1441.06L256.472 1370.65L284.103 1328.59L295.58 1329.68L273.105 1364.04L457.645 1433.72L445.835 1455.55L449.495 1457.59L451.158 1551.7L512.47 1531.89L508.333 1518.63L459.204 1537.78L472.032 1470.2L479.6 1474.45L497.064 1418.98L356.788 1337.81L410.616 1232.42L414.628 1232.92L471.512 1223.47L415.585 1084.71L416.416 1068.06L367.994 1140.99L359.325 1130.44L364.522 1158.78L245.266 1180.68L245.017 1181.22L238.738 1172.96L250.09 1170.73L253.146 1164.42L351.778 1145.84L345.977 1114.18L359.034 1130.08L460.347 985.936L469.911 1002.11L508.312 995.718L441.656 806.782L542.908 795.439L508.353 779.122V779.143ZM285.684 1097.43L286.266 1099.07L285.039 1098.8L285.704 1097.43H285.684ZM416.728 1439.34L433.091 1471.2L425.169 1478.32L402.653 1431.45L416.728 1439.34ZM214.724 1325.39L219.548 1322.52L212.562 1321.85L208.945 1321.5L229.424 1323.43L219.735 1333.48L214.724 1325.35V1325.39ZM237.179 1361.83L228.675 1348.03L247.886 1325.22L263.832 1326.74L237.179 1361.85V1361.83ZM297.721 1282.1L283.438 1254.79L337.453 1229.8L297.721 1282.12V1282.1ZM326.246 1345.8L484.881 1423.16L466.813 1467.33L455.773 1461.15L470.431 1427.95L306.225 1349.78L316.787 1331.71L324.022 1332.4L320.425 1325.49L377.246 1228.36L392.341 1230.21L326.226 1345.78L326.246 1345.8ZM379.221 1169.44L375.105 1149.71L382.299 1158.47L414.608 1104.88L413.485 1127.63L438.621 1208.86L359.283 1226.15L363.067 1226.61L310.633 1306.76L305.269 1296.48L352.069 1225.26L324.978 1221.93L323.253 1222.64L306.163 1237.75L277.804 1243.93L271.192 1231.27L422.175 1196.81L411.822 1162.22L410.699 1185.07L408.017 1189.73L400.782 1180.93L411.863 1161.59L413.464 1129L389.991 1167.77L394.087 1172.77L395.625 1179.66L263.479 1216.5L257.699 1205.42L379.263 1169.4L379.221 1169.44ZM256.036 1158.55L231.087 1162.95L224.309 1154.02L260.007 1150.38L256.036 1158.55Z" fill="#5C427F"/>
<path d="M1121 946.725L1049.83 1010.41L1041.04 1001.54L1045.21 992.928L982.052 955.133L907.288 1079.03L871.757 1073.12L875.644 1078.26L847.93 1087.71L901.737 1261.58L794.747 1284.91L802.398 1298.23L934.649 1276.25L860.841 1093.16L882.755 1087.63L882.838 1087.71L912.756 1092.04L984.027 967.953L1038.94 1005.89L1034.11 1015.82L987.229 982.959L921.405 1104.98L892.714 1100.72L891.383 1098.95L879.096 1102.15L950.783 1284.01L807.742 1307.51L809.945 1311.34L812.523 1311.57L840.196 1400.98L774.747 1415.26L779.736 1422.96L779.217 1423.21L699.068 1345.24L720.15 1332.59L646.717 1341.43L644.617 1335.9L641.373 1360.52L628.774 1353.53L634.263 1308.38L630.521 1298.48L701.438 1299.73L671.167 1193.83L683.038 1185.28L691.23 1140.45L683.184 1135.87L824.707 1137.58L818.719 1086.38L821.318 1078.84L793.167 944.518L868.368 938.816L873.628 922.312L781.42 936.859L803.812 1117.51L660.293 1122.9L670.439 1128.65L500.453 1131.1L508.416 1146.57L668.609 1153.81L662.518 1200.1L657.362 1203.8L687.799 1291.19L622.163 1276.27L620.187 1271.03L614.678 1345.7L623.743 1350.74L696.656 1461.75L705.097 1457.8L685.533 1482.75L863.419 1568L844.105 1599.3L855.644 1603.44L876.642 1563.32L719.713 1471.35L741.19 1440.96L748.675 1437.46L677.425 1357.69L666.759 1363.83L730.171 1446.1L718.611 1451.49L651.997 1366.43L648.525 1364.49L653.91 1360.54L652.58 1357L691.313 1349.7L685.887 1352.82L760.442 1431.97L768.218 1428.35L740.005 1469.1L891.445 1559.78L868.014 1607.21L881.715 1611.95L903.962 1556.7L840.383 1512.24L839.78 1511.81L771.15 1463.81L788.344 1436.28L784.518 1430.37L873.108 1415.65L831.88 1313.4L846.35 1314.77L984.817 1301.66L892.506 1109.56L898.41 1108.21L901.383 1112.12L934.108 1115.47L991.054 998.464L1026.86 1030.79L1030.68 1022.92L1047.81 1041.96L1121 966.496V946.725Z" fill="#5C427F"/>
<path d="M20.3099 776L1.20312 787.884V805.699L57.7126 776H20.3099Z" fill="#5C427F"/>
<path d="M174.37 876.025L172.457 871.217L196.741 776H174.557L160.835 841.663L165.056 852.403L153.766 896.192L148.465 898.378L123.412 776H103.764L138.755 902.374L129.441 906.224L93.1194 776H83.9922L1.20312 820.351V840.581L80.9152 806.095L116.135 911.698L102.87 917.171L70.7069 823.806L1.20312 853.11V870.905L56.5483 852.049L85.3436 924.372L92.267 921.521L171.064 907.285L178.32 886.077L169.734 889.615L174.37 876.025Z" fill="#5C427F"/>
<path d="M518.789 776L540.224 787.655L535.796 776H518.789Z" fill="#5C427F"/>
<path d="M545.552 776L556.322 802.494L453.969 811.027L574.618 824.243L556.301 776H545.552Z" fill="#5C427F"/>
<path d="M567.902 776L588.506 835.128L456.422 818.27L466.152 845.16L602.124 843.682L582.789 776H567.902Z" fill="#5C427F"/>
<path d="M596.507 776L618.607 855.504L472.469 857.46L481.471 882.518L631.747 864.557L611.081 776H596.507Z" fill="#5C427F"/>
<path d="M624.011 776L644.075 873.673L486.938 894.673L494.381 916.214L654.054 881.956L634.656 776H624.011Z" fill="#5C427F"/>
</g>
</g>
<defs>
<clipPath id="clip0_4606_1658">
<rect width="1110" height="1500" fill="white"/>
</clipPath>
<clipPath id="clip1_4606_1658">
<rect width="1110" height="845" fill="white"/>
</clipPath>
<clipPath id="clip2_4606_1658">
<rect width="1121" height="854" fill="white" transform="translate(0 776)"/>
</clipPath>
</defs>
</svg>
