<svg width="1921" height="1625" viewBox="0 0 1921 1625" fill="none" xmlns="http://www.w3.org/2000/svg">
<path d="M1920 0H0V1624.96H1920V0Z" fill="#172D1D"/>
<path d="M1319.51 270.637L1339.42 262.448L1296.58 159.868L1170.67 200.672L1177.04 217.834L1281.27 186.822L1307.69 275.515L1302.39 277.687L1313 522.118L1049.2 547.184L1064.19 555.659L895.083 573.141L922.502 350.607L895.653 369.371L854.809 593.08L1112.91 583.253L1091.83 571.325L1352.56 558.97L1319.51 270.637Z" fill="#114841"/>
<path d="M949.353 331.879L919.69 555.019L1041.94 539.138L1042.19 527.353L1288.46 499.937L1282.3 285.984L1284.12 285.236L1261.61 210.892L1183.13 234.213L1185.91 241.655L1076.09 272.24L1047.53 263.41L1047.1 284.773L1125.34 316.177L1121.38 286.197L1107.03 281.746L1108.49 288.69L1091.01 276.797L1121.38 286.197L1138.8 291.574L1199.3 277.759L1201.83 284.524L1223.16 276.014L1226.4 308.878L1231.7 306.706L1235.05 434.992L1044.32 424.168L1044.22 430.043L1042.58 430.506L1044.36 422.993L1044.72 405.013L1217.03 415.872L1211.65 314.005L1212.94 314.397L1208.38 302.077L1187.65 306.599L1189.11 307.062L1197.59 396.681L1045.46 368.054L1045.89 346.726L1173.37 371.828L1166.04 299.976L1143.28 292.962L1152.97 353.385L1046.67 308.451L1046.25 329.636L1023.07 451.229L1043.9 447.134L1043.75 453.899L1249.4 452.012L1248.72 299.798L1247.09 300.475L1236.15 252.052L1195.1 266.436L1188.58 248.883L1249.36 229.371L1264.21 293.389L1266.07 292.642L1266.88 477.683L1043.15 478.716L1043.4 466.183L998.922 474.977L1039.59 268.929L1007.4 291.36L876.816 327.393L886.111 352.957L949.318 331.879H949.353ZM1006.51 292.036L971.716 501.895L1042.94 489.576L1042.22 524.683L1042.51 509.693L944.368 526.819L982.719 308.593L1006.47 292.036H1006.51Z" fill="#114841"/>
<path d="M1745.98 101.938L1606.25 0H1575.44L1464.84 349.931L1490.3 357.159L1604.64 42.8334L1730.84 122.305L1728.89 124.94L1748.15 128.927L1741.49 107.991L1745.98 101.938Z" fill="#114841"/>
<path d="M1779.13 153.994L1740.92 150.397L1819.37 259.528L1900.06 186.039L1888.45 166.42L1821.93 232.29L1779.13 153.994Z" fill="#114841"/>
<path d="M1407.29 1206.67L1435.1 1248.54L1455.9 1227.78L1407.29 1206.67Z" fill="#5C427F"/>
<path d="M728.538 939.236L705.926 943.01L906.515 1088.03L870.798 1092.13L892.342 1106.05L942.694 1097.08L728.538 939.236Z" fill="#114841"/>
<path d="M1084.1 1529.29L1059.88 1368.39L1058.1 1366.75L1077.69 1369.81L1074.59 1381.81L1086.23 1379.04L1113.94 1551.51L1281.84 1512.91L1286.79 1516.05L1290.85 1498.06L1309.15 1482.54L1146.13 1508.03L1117.5 1371.52L1102.86 1375.01L1078.22 1367.64L1082.82 1349.91L1138.55 1366.5L1139.44 1366.29L1165.47 1481.19L1339.92 1456.48L1363.63 1436.4L1185.19 1457.26L1173.59 1358.14L1186.16 1355.14L1089.58 1323.85L1093.07 1310.42L1029.58 1340.62L1034.03 1344.71L1038.27 1387.05L1045.07 1408.13L1064.66 1521.64L858.547 1588.32L863.817 1620.51L1091.51 1552.18L1084.1 1529.26V1529.29ZM1086.88 1334.17L1083.31 1347.88L1057.32 1345.82L1086.88 1334.17Z" fill="#114841"/>
<path d="M565.018 153.994L526.809 150.397L605.221 259.528L685.912 186.039L674.304 166.42L607.785 232.29L565.018 153.994Z" fill="#114841"/>
<path d="M615.656 1370.24L618.077 1380.82L362.009 1436.57L363.148 1445.72L361.866 1450.35L338.934 1442.8L333.414 1449.36L593.008 1618.34L595.928 1623.08L965.2 1471.72L958.114 1452.95L607.964 1570.74L587.168 1489.23L570.966 1486.46L509.539 1463.31L634.28 1451.53L638.446 1469.72L605.578 1471.15L641.971 1485.1L645.212 1499.17L614.873 1493.97L627.585 1541.79L893.803 1448.07L655.29 1495.32L615.62 1370.21L615.656 1370.24ZM446.902 1456.8L475.461 1470.11L504.518 1475.1L418.557 1460.36L531.617 1518.93L551.594 1551.29L537.422 1480.72L555.689 1483.86L578.017 1594.13L552.627 1553.04L369.558 1451.96L397.048 1456.66L383.339 1450.07L624.701 1410.01L628.582 1426.92L446.831 1456.73L446.902 1456.8Z" fill="#114841"/>
<path d="M862.111 636.056L818.774 547.327L854.134 547.825L799.153 453.685L772.339 497.942H761.051L832.056 636.056H862.111Z" fill="#114841"/>
<path d="M673.378 946.251L772.338 789.445L799.65 792.827L705.783 943.118L727.719 940.483L831.272 796.708L852.887 799.379L753.678 935.321L783.412 927.452L870.691 833.418L871.546 766.337L743.886 497.943H749.227L796.73 421.996L857.658 524.291L870.691 450.267L843.165 451.478L831.841 432.393L873.22 428.548L879.345 392.693L807.947 402.734L793.169 379.555L714.472 497.943H724.371L835.26 778.906L771.59 789.374L725.903 783.748L643.039 952.482L880.27 1098L896.01 1091.31L673.378 946.251Z" fill="#114841"/>
<path d="M912.107 808.209L870.8 809.17L869.625 833.774L879.275 833.026L812.898 924.176L902.564 1021.27L838.965 923.001L912.107 808.209Z" fill="#114841"/>
<path d="M931.728 1075.89L753.68 935.32L783.414 927.451L907.585 1038.68L931.728 1075.89Z" fill="#114841"/>
<path d="M2.06641 954.262V962.523L19.3015 952.197L2.06641 954.262Z" fill="#5C427F"/>
<path d="M2.06641 778.016V868.026L15.4912 916.201L2.06641 916.058V935.819L37.9965 931.689L2.06641 778.016Z" fill="#114841"/>
<path d="M2.06641 1311.03V1344.25L8.76102 1346.39L23.8595 1342.79L26.7083 1400.83L149.419 1380.46L167.687 1386.48L175.521 1375.4L2.06641 1311.03ZM43.6228 1379.36L46.0799 1346.46L106.296 1366.25L43.6585 1379.36H43.6228Z" fill="#114841"/>
<path d="M2.06641 1528.01L67.6593 1512.91L72.6091 1516.05L76.6686 1498.06L94.9719 1482.58L2.06641 1497.1V1528.01Z" fill="#114841"/>
<path d="M2.06641 1453.66V1474.03L125.703 1456.51L149.419 1436.47L2.06641 1453.66Z" fill="#114841"/>
<path d="M2.06641 206.155L67.1608 186.822L93.5475 275.515L88.2417 277.687L98.8534 522.118L2.06641 531.304V565.45L138.416 558.97L105.37 270.637L125.276 262.448L82.4373 159.868L2.06641 185.896V206.155Z" fill="#114841"/>
<path d="M2.06641 240.017L35.219 229.406L50.0682 293.425L51.9199 292.642L52.7745 477.683L2.06641 477.897V507.984L74.3184 499.937L68.1579 285.948L69.974 285.236L47.4687 210.892L2.06641 224.386V240.017Z" fill="#114841"/>
<path d="M34.5068 299.799L32.8687 300.475L21.9722 252.052L2.06641 259.03V278.863L8.97467 276.121L12.2152 308.985L17.521 306.813L20.8683 435.064L2.06641 434.031V452.333L35.1834 452.048L34.5068 299.799Z" fill="#114841"/>
<path d="M2.06641 401.879V415.979L2.81421 416.014L2.06641 401.879Z" fill="#114841"/>
<path d="M1920 966.76L1887.52 946.251L1920 894.801V824.587L1857.15 952.482L1920 990.046V966.76Z" fill="#114841"/>
<path d="M1920 1285.21L1911.24 1229.49L1905.3 1234.83L1886.96 1251.32L1920 1398.01V1285.21Z" fill="#5C427F"/>
<path d="M1920 1536.63L1822.18 1570.77L1801.39 1489.27L1785.18 1486.49L1723.76 1463.35L1848.5 1451.56L1852.66 1469.76L1819.83 1471.18L1856.23 1485.14L1859.47 1499.2L1829.13 1494.01L1841.84 1541.82L1920.07 1515.37V1482.18L1869.54 1495.39L1829.87 1370.28L1832.3 1380.85L1576.23 1436.61L1577.37 1445.76L1576.08 1450.39L1553.15 1442.84L1547.63 1449.39L1807.23 1618.38L1810.15 1623.11L1920.04 1574.19V1536.66L1920 1536.63ZM1766.85 1553.07L1583.78 1451.99L1611.27 1456.69L1597.56 1450.1L1838.92 1410.05L1842.8 1426.96L1661.05 1456.76L1689.61 1470.08L1718.67 1475.06L1727.5 1476.56L1729.6 1492.79L1718.63 1475.06L1632.67 1460.32L1745.73 1518.89L1765.71 1551.26L1751.53 1480.69L1769.8 1483.82L1792.13 1594.09L1766.77 1553L1766.85 1553.07Z" fill="#114841"/>
<path d="M1493.22 0H1465.62L1459 31.6177L1455.65 0H1443.44L1463.91 101.333L1469.47 130.601L1480.47 89.0849L1476.55 79.1154L1493.22 0Z" fill="#114841"/>
<path d="M1765.38 75.8041L1725.93 0H1699.54L1712.29 20.5444L1690.1 0H1649.4L1754.42 85.2039L1776.85 180.377L1809.72 212.209L1773.57 64.7664L1765.38 75.8041Z" fill="#114841"/>
<path d="M1810.25 15.4528L1807.51 19.0845L1799.71 0H1761.82L1785.61 48.5659L1790.67 41.7652L1821.76 202.168L1861.67 161.756L1844.05 160.118L1810.25 15.4528Z" fill="#114841"/>
<path d="M1830.44 0L1863.77 161.969L1879.97 163.5L1849.99 0H1830.44Z" fill="#114841"/>
<path d="M1920 240.764L1808.93 332.555L1818.51 312.865L1769.62 290.042L1764.67 290.469L1681.06 189.35L1686.72 181.695L1649.58 161.399L1522.56 435.633L1445.18 405.689L1437.17 429.117L1530.04 456.391L1658.63 211.354L1677.75 231.4L1539.3 480.175L1451.77 453.934L1445.97 446.314L1427.84 456.355L1436.42 431.253L1406.97 325.434L1473.71 322.372L1480.79 301.649L1386.57 308.948L1420.58 477.612L1418.37 484.092L1460 464.829L1472.25 480.923L1410.14 510.084L1470.75 780.863L1331.73 819.567L1320.19 799.592L1442.69 763.346L1416.2 636.376L1201.04 633.279L1200.05 632.709L1190.25 685.548L1226.04 659.734L1228.78 649.016L1235.58 652.862L1236.3 654.108L1169.92 701.819L1229.6 916.342L1087.88 915.025L1100.77 949.17L1252.14 931.866L1198.12 700.822L1245.45 669.988L1237.61 656.422L1241.92 656.494L1239.14 654.927L1418.47 669.774L1421.39 694.769L1274.83 675.151L1278.74 677.394L1249.51 677.109L1255.24 687.043L1223.87 707.659L1273.22 947.497L1235.16 952.09L1242.92 964.018L1224.87 973.026L1289.67 1036.19L1278.71 1019.24L1337.32 1001.9L1282.05 736.962L1283.66 736.214L1287.86 743.478L1368.69 728.274L1403.41 747.928L1301.25 766.657L1313.6 788.127L1365.38 1019.42L1292.06 1039.82L1312.36 1071.19L1410.82 1048.72L1353.52 857.38L1348.43 848.514L1516.26 810.238L1429.55 520.73L1486.45 499.616L1474.13 483.38L1545.35 499.224L1676.75 281.71L1798.32 354.203L1794.41 362.82L1799.85 368.125L1920.11 263.73V240.906L1920 240.764ZM1275.15 721.331L1275 721.046L1265 726.565L1312.14 983.601L1261.72 992.858L1246.69 969.679L1290.32 961.454L1245.66 717.913L1265.85 705.237L1265.03 703.813L1315.53 698.045L1342.34 713.213L1275.15 721.331ZM1372.4 711.86L1424.64 722.435L1426.59 739.241L1372.36 711.86H1372.4Z" fill="#114841"/>
<path d="M1920 0H1879.55L1868.83 5.94611L1902.66 190.454L1910.64 203.877L1816.02 285.556L1715.85 148.048L1733.41 149.685L1713.79 145.235L1720.48 136.262L1616.54 71.0685L1503.51 389.381L1458.68 366.202L1465.84 345.337L1428.95 346.655L1446.18 402.769L1452.16 385.216L1513.87 411.03L1642.1 127.218L1702.18 160.866L1696.34 168.77L1795.58 287.728L1813.46 286.126L1828.02 293.211L1827.27 294.742L1919.36 218.653L1920 219.686V179.843L1885.82 16.1293L1920 0.320449V0Z" fill="#114841"/>
<path d="M267.891 1624.93L113.203 1488.38L125.773 1456.48L100.17 1478.16L90.8047 1505.54L237.979 1624.93H267.891Z" fill="#114841"/>
<path d="M564.696 1624.93L299.048 1454.91L315.108 1434.97L297.873 1429.24L275.617 1460.11L491.305 1624.93H564.696Z" fill="#114841"/>
<path d="M632 1624.93H711.552L1043.83 1504.9L1011.96 1324.56L1015.94 1328.23L1098.63 1288.74L1094.43 1305.01L1222.91 1346.39L1238.01 1342.79L1240.85 1400.83L1363.56 1380.46L1381.83 1386.48L1389.67 1375.4L1103.65 1269.3L1107.85 1253.06L998.424 1312.24L989.308 1303.91L1024.35 1482.83L631.965 1624.96L632 1624.93ZM1260.23 1346.42L1320.44 1366.22L1257.8 1379.32L1260.26 1346.42H1260.23Z" fill="#114841"/>
<path d="M824.754 1624.93L839.71 1616.84L841.562 1624.93H866.418L859.509 1587.36L755.387 1624.93H824.754Z" fill="#114841"/>
<path d="M1050.91 1624.93L1073.2 1619.87L1068.36 1624.93H1087.16L1331.62 1544.35L1304.56 1527.26L1099.3 1576.5L1098.95 1575.43L917.055 1624.93H1050.91Z" fill="#114841"/>
<path d="M1398.36 1624.93H1417.19L1404.45 1614.78L1415.09 1597.01L1394.01 1583.7L1400.88 1620.73L1398.36 1624.93Z" fill="#114841"/>
<path d="M1239.36 1624.93L1352.06 1579.49L1359.29 1624.93H1379.13L1368.12 1567.39L1356.98 1560.34L1155.86 1624.93H1239.36Z" fill="#114841"/>
<path d="M1336.57 1624.93L1333.4 1603.71L1284.48 1624.93H1336.57Z" fill="#114841"/>
<path d="M1482.04 1624.93L1327.35 1488.38L1339.92 1456.48L1314.32 1478.16L1304.95 1505.54L1452.13 1624.93H1482.04Z" fill="#114841"/>
<path d="M1073.2 698.793L1067.65 773.885L1058.78 780.258L1095.39 800.162L1081.57 763.844L1094.14 754.765L1122.91 825.513L1044.57 790.512L1043.04 791.652L1047.21 719.23L856.66 686.082L870.797 711.753L1021.68 736.748L988.202 938.809L1002.05 946.5L1124.91 1170.53L979.015 1258.76L962.527 1243.7L1093.11 1161.49L969.792 928.626L965.091 925.991L993.437 749.744L874.572 725.283L885.895 748.178L974.314 761.031L939.737 911.927L947.963 916.52L947.251 917.232L1060.42 1149.2L872.72 1253.74L926.027 1409.41L838.036 1432.02L957.257 1445.94L897.54 1261.11L925.814 1251.67L985.496 1466.16L1008 1481.69L960.248 1277.24L979.727 1295.08L1116.57 1219.34L1109.6 1246.3L1419.9 1370.85L1403.98 1393.74L1223.9 1420.87L1219.81 1347.13L1198.33 1352.26L1208.63 1437L1387.6 1416.1L1371.47 1429.77L1352.27 1478.98L1508.96 1624.93H1530.36L1376.1 1474.89L1414.63 1396.8L1422.57 1399.86L1445.43 1364.69L1144.81 1217.92L1172.48 1182.81L1174.12 1182.07L1033.64 964.018L1033.07 963.697L1042.83 795.39L1056.36 831.316L1144.31 849.618L1110.45 743.015L1106.46 745.899L1116.18 665.929L837.039 647.877L851.603 672.516L1073.2 698.793Z" fill="#114841"/>
<path d="M1584.74 1624.93L1416.62 1469.22L1450.42 1410.19L1429.73 1402.21L1396.86 1470.79L1555.39 1624.93H1584.74Z" fill="#114841"/>
<path d="M1671.66 1624.93L1463.84 1463.03L1491.01 1423.22L1469.75 1416.31L1441.91 1465.63L1618.99 1624.93H1671.66Z" fill="#114841"/>
<path d="M1778.84 1624.93L1513.2 1454.91L1529.26 1434.97L1512.02 1429.24L1489.77 1460.11L1705.45 1624.93H1778.84Z" fill="#114841"/>
<path d="M1920 1624.93V1597.97L1858.15 1624.93H1920Z" fill="#114841"/>
<path d="M1920 22.4316L1908.54 27.8081L1920 79.0087V22.4316Z" fill="#114841"/>
<path d="M1920 1437.25L1903.19 1440.95L1865.63 1270.47L1862.03 1273.71L1817.2 1123.99L1810.72 1125.63L1673.05 1087.6L1662.72 1070.87L1701.57 1210.62L1547.49 1209.2L1545.82 1195.77L1516.12 1177.19L1523.88 1169.03L1379.84 1175.34L1368.52 1157.85L1550.98 1140.62L1559.06 1132.15L1616.29 1144.04L1599.16 1090.13L1614.51 1074.04L1650.01 1175.84L1541.01 1151.09L1540.26 1151.87L1531.46 1161.09L1542.25 1167.75L1544.82 1188.19L1673.3 1190.47L1634.09 1053.46L1644.88 1042.14L1655.49 1059.33L1844.97 1117.09L1835.32 1119.51L1878.52 1258.9L1905.26 1234.87L1856.58 1114.2L1879.19 1108.54L1919.97 1211.87V1155.04L1903.76 1121.36L1919.97 1130.4V1120.29L1653.46 1017.43L1700.79 945.468L1720.45 947.319L1681.95 1006.1L1920 1095.9V1067.88L1738.61 981.643L1756.7 950.738L1769.09 951.913L1762.93 940.092L1860.25 773.921L1886.1 777.09L1772.86 974.807L1919.93 1046.45V1015.97L1825.21 961.241L1917.4 780.935L1919.93 781.256V750.421L1829.45 770.111L1835.93 770.894L1746.12 908.011L1736.93 890.422L1817.09 768.58L1770.69 762.883L1767.73 764.094L1738.46 789.943L1689.89 800.518L1678.57 778.87L1920 723.824V662.582L1919.43 660.731L1917.51 699.826L1912.92 707.801L1900.52 692.74L1919.5 659.663L1920 649.48V607.643L1882.04 670.273L1889.06 678.819L1891.69 690.604L1665.36 753.626L1655.46 734.684L1863.67 673.05L1856.62 639.297L1868.94 654.286L1919.97 569.723V510.868L1844.44 624.485L1829.59 606.433L1838.49 654.927L1634.23 692.384L1633.81 693.31L1623.05 679.175L1642.5 675.365L1647.73 664.576L1816.66 632.781L1806.73 578.625L1829.09 605.827L1919.93 476.722V432.429L1803.52 574.708L1786.18 553.63L1799.53 618.574L1661.9 635.202L1671.62 615.192L1778.42 602.979L1759.22 520.837L1732.94 488.863L1730.1 494.738L1755.91 587.491L1685.41 586.85L1695.2 566.697L1727.71 567.267L1715.53 524.789L1714.21 527.495L1717.13 519.164L1717.67 520.339L1727.25 500.578L1717.06 486.941L1656.56 623.523L1586.34 631L1572.27 612.486L1644.13 608.533L1712.9 440.796L1738.78 476.829L1737.97 478.502L1795.94 551.102L1919.93 397.144V353.634L1790.38 489.611L1753.06 447.419L1749.4 454.967L1705.1 414.341L1618.25 595.965L1560.06 596.356L1555.11 589.841L1727.99 926.17L1570.56 933.042L1558.74 931.938L1630.1 1057.48L1616.07 1072.22L1534.74 929.659L1500.09 926.383L1589.44 1100.14L1587.62 1102.06L1594.85 1119.86L1577.9 1112.28L1572.02 1118.44L1478.66 924.389L1449.6 921.648L1522.95 1107.51L1353.84 1135.25L1364.56 1151.8L1353.2 1170.64L1397.32 1202.43L1391.55 1193.53L1471.25 1224.08L1478.34 1216.64L1555.75 1275.32L1558.14 1294.22L1762.22 1255.81L1741.49 1142.76L1725.61 1146.71L1745.12 1241.6L1554.4 1264.64L1552.72 1251.21L1489.2 1205.17L1489.3 1205.07L1457.11 1195.45L1497.6 1196.38L1502.26 1191.47L1549.23 1223.62L1552.01 1245.66L1724.01 1226L1703.03 1136.24L1698.22 1128.48L1750.5 1140.48L1758.44 1138.49L1784.01 1277.92L1561.2 1318.79L1558.78 1299.46L1466.19 1229.28L1453.37 1242.74L1561.45 1320.57L1564.87 1347.67L1528.51 1434.47L1552.69 1442.52L1570.24 1390.29L1573.16 1413.43L1826.38 1355.68L1817.94 1318.9L1569.96 1387.97L1567.4 1367.57L1809.22 1296L1775.46 1134.25L1795.97 1129.12L1833.93 1298.75L1830.69 1301.67L1885.92 1466.55L1919.93 1458.19V1437.07L1920 1437.25ZM1703.42 549.891L1704.42 552.704L1702.32 552.241L1703.46 549.891H1703.42ZM1598.34 646.702L1659.48 640.472L1652.68 654.464L1609.95 661.977L1598.34 646.702ZM1724.08 865.819L1699.61 819.104L1792.13 776.342L1724.08 865.854V865.819ZM1581.89 939.878L1590.15 934.964L1578.18 933.825L1571.95 933.22L1607.06 936.531L1590.47 953.728L1581.89 939.807V939.878ZM1620.38 1002.22L1605.82 978.617L1638.72 939.593L1666.03 942.192L1620.38 1002.26V1002.22Z" fill="#114841"/>
<path d="M279.107 0H251.509L244.85 31.6177L241.539 0H229.289L249.765 101.333L255.32 130.601L266.323 89.0849L262.406 79.1154L279.107 0Z" fill="#114841"/>
<path d="M531.83 101.938L392.134 0H361.652L267.357 332.448L257.885 327.25L251.867 344.803L276.153 357.159L390.495 42.8334L516.696 122.305L514.737 124.94L534.002 128.927L527.343 107.991L531.83 101.938Z" fill="#114841"/>
<path d="M551.238 75.8041L511.782 0H485.396L498.144 20.5444L475.959 0H435.293L542.834 87.1266L542.3 87.8387L565.411 154.029L585.53 155.952L559.428 64.7664L551.238 75.8041Z" fill="#114841"/>
<path d="M596.104 15.4523L593.398 19.1197L585.6 0.0351562H547.711L571.498 48.601L576.555 41.8004L608.924 158.159L589.481 156.343L611.701 197.824L647.56 161.791L629.934 160.117L596.104 15.4523ZM613.055 170.301L609.494 158.195L622.705 159.441L613.055 170.301Z" fill="#114841"/>
<path d="M616.297 0L649.627 161.969L665.83 163.5L635.882 0H616.297Z" fill="#114841"/>
<path d="M671.705 16.1293L706.603 0H665.438L654.72 5.94611L688.549 190.454L696.525 203.913L601.911 285.591L501.741 148.083L519.296 149.721L499.675 145.27L506.334 136.298L402.39 71.1041L289.365 389.417L244.532 366.274L251.69 345.373L214.798 346.726L232.033 402.84L238.051 385.287L299.763 411.101L427.993 127.29L488.102 160.937L482.227 168.841L581.506 287.799L599.382 286.232L613.947 293.318L613.199 294.849L705.321 218.724L714.33 233.928L594.86 332.662L604.439 312.972L555.547 290.149L550.597 290.576L466.986 189.457L472.648 181.802L435.507 161.506L308.487 435.74L231.108 405.796L223.095 429.224L315.965 456.498L400.218 303.893L411.15 302.931L395.66 285.413L410.082 266.008L440.991 300.297L427.317 301.507L325.188 480.318L237.66 454.077L231.855 446.457L213.73 456.498L222.312 431.396L192.863 325.576L259.595 322.514L266.682 301.792L172.458 309.091L206.466 477.754L204.258 484.234L245.886 464.972L258.135 481.066L196.032 510.226L256.64 781.006L117.62 819.709L106.082 799.735L228.579 763.488L202.086 636.519L2.06641 633.635V666.962L11.9303 659.841L14.6722 649.123L21.4737 652.969L22.1858 654.215L2.06641 668.671V689.144L31.3019 670.095L23.4678 656.529L27.7766 656.601L24.999 655.034L204.329 669.881L207.249 694.876L60.6799 675.258L64.5969 677.501L35.3614 677.216L41.0946 687.15L9.72248 707.766L59.0774 947.604L21.0107 952.197L28.7736 964.125L10.7195 973.133L75.5291 1036.3L64.5613 1019.35L123.175 1002.01L67.873 737.069L69.4754 736.321L73.6774 743.585L154.511 728.381L189.231 748.035L87.0666 766.764L99.4231 788.234L151.2 1019.53L77.8793 1039.93L98.1768 1071.3L196.637 1048.83L139.342 857.487L134.249 848.621L302.078 810.345L215.368 520.837L272.272 499.723L259.951 483.487L331.171 499.331L451.887 299.442L480.553 296.914L427.21 243.079L439.958 225.917L509.967 294.279L498.821 295.276L587.168 348.613L580.224 362.927L585.673 368.232L723.126 248.918L718.781 241.583L671.777 16.3785L671.705 16.1293ZM380.597 305.531L383.054 302.219L385.368 305.139L380.561 305.566L380.597 305.531ZM61.0003 721.331L60.8579 721.046L50.8516 726.565L97.9987 983.601L47.5755 992.859L32.5483 969.679L76.17 961.455L31.5156 717.913L51.7062 705.238L50.8872 703.813L101.382 698.045L128.196 713.213L61.0003 721.331ZM158.286 711.86L210.525 722.435L212.484 739.241L158.25 711.86H158.286Z" fill="#114841"/>
<path d="M1512.77 171.12L1509.53 162.895L1551.12 0H1513.13L1489.62 112.335L1496.85 130.708L1477.52 205.622L1468.44 209.36L1425.53 0H1391.87L1451.77 216.196L1435.85 222.783L1373.64 0H1358.01L1139.62 116.822L1131.64 95.2446L1313 0H1248.9L1124.91 77.0858L1119.32 61.9891L1213.4 0H1164.04L1119.89 31.9381L1110.7 0H1096.35L1112.98 44.8985L1142.07 203.45L853.457 257.962L870.799 309.269L1167.21 221.537L1152.76 152.249L1148.16 139.894L1352.7 51.4855L1413.03 232.148L1390.34 241.512L1335.26 81.7858L1154.79 157.803L1163.19 180.413L1311.01 130.102L1360.32 253.831L1372.18 248.953L1507.14 224.599L1519.54 188.317L1504.86 194.37L1512.77 171.12Z" fill="#5C427F"/>
<path d="M1036.81 1135.82L926.279 914.242L952.488 775.63L870.799 766.088V787.131L930.268 791.546L856.805 920.331L965.913 1109.18L831.166 1140.48L821.801 1194.78L991.837 1117.83L882.123 917.126L895.691 894.018L1016.44 1126.95L819.771 1218.88L807.699 1275.85L1036.81 1135.82Z" fill="#5C427F"/>
<path d="M710.448 1418.38L901.885 1382.28L892.84 1355.61L723.98 1400.79L697.094 1229.49L691.183 1234.83L672.809 1251.32L710.448 1418.38Z" fill="#5C427F"/>
<path d="M2.06641 590.267V616.224L198.382 618.574L188.162 531.02L192.578 518.095L144.362 288.297L274.373 279.04L284.023 250.805L124.243 275.194L162.63 584.25L2.06641 590.267Z" fill="#5C427F"/>
<path d="M2.06641 1582.41L117.477 1544.35L90.4139 1527.26L2.06641 1548.45V1582.41Z" fill="#5C427F"/>
<path d="M184.211 1624.93H203.049L190.336 1614.78L200.948 1597.01L179.902 1583.7L186.739 1620.73L184.211 1624.93Z" fill="#5C427F"/>
<path d="M25.2127 1624.93L137.917 1579.49L145.146 1624.93H164.98L153.977 1567.39L142.831 1560.34L2.06641 1605.56V1624.93H25.2127Z" fill="#5C427F"/>
<path d="M157.324 1429.77L138.131 1478.98L294.813 1624.93H316.215L161.954 1474.89L193.219 1399.37L197.065 1396.09L208.424 1399.86L231.286 1364.69L2.06641 1252.78V1289.1L205.753 1370.85L189.836 1393.74L194.43 1395.24L9.75809 1420.87L5.66298 1347.13L2.06641 1347.99V1436.11L173.456 1416.1L157.324 1429.77Z" fill="#5C427F"/>
<path d="M230.395 1407.06L215.617 1402.21L182.714 1470.79L341.248 1624.93H370.59L202.513 1469.22L236.841 1409.19L250.657 1413.75L287.335 1346.92L18.5537 1189.58L55.3384 1137.59L68.1579 1131.61L2.06641 1057.7V1101.81L36.4653 1146.39L16.6664 1155.61L2.06641 1136.99V1229.24L264.687 1354.93L230.395 1407.06Z" fill="#5C427F"/>
<path d="M101.631 1116.02L53.3443 1185.73L312.689 1340.87L271.703 1420.66L256.07 1415.53L227.76 1465.63L404.847 1624.93H457.514L249.696 1463.03L277.258 1422.51L295.775 1428.6L334.162 1335.6L224.199 1258.8L221.564 1261.57L216.08 1253.14L106.652 1176.69L136.101 1129.58L129.549 1119.47L281.281 1094.3L210.703 919.369L235.452 921.719L472.648 899.288L314.505 570.649L324.618 568.335L329.711 575.029L385.76 580.761L483.331 380.587L544.615 435.883L551.167 422.424L580.509 455.003L744.919 285.663L733.88 267.006L583.963 401.025L568.9 385.857L576.058 371.116L467.876 306.457L339.824 518.416L278.967 508.304L285.661 517.099L238.158 533.264L330.316 830.712L147.069 870.625L160.209 893.413L386.722 855.814L260.307 542.592L297.84 533.121L297.947 533.264L349.225 540.67L471.259 328.39L565.304 393.298L557.042 410.282L476.743 354.061L364.003 562.816L314.861 555.517L312.582 552.491L291.537 557.974L414.319 869.094L169.325 909.293L173.099 915.844L177.515 916.236L224.911 1069.2L112.812 1093.62L121.359 1106.8L120.468 1107.22L2.06641 992.183V1030.74L88.3485 1122.21L101.631 1116.02Z" fill="#5C427F"/>
<path d="M870.693 5.37643L734.308 43.3675L828.709 348.542L787.473 357.515L775.188 339.249L589.413 574.779L572.071 553.701L585.424 618.645L447.793 635.273L457.515 615.263L564.308 603.05L545.114 520.908L518.834 488.934L515.986 494.809L541.803 587.561L471.296 586.921L481.088 566.768L513.6 567.338L501.457 524.86L500.139 527.566L503.059 519.235L503.593 520.41L513.172 500.649L502.988 487.012L442.487 623.594L372.265 631.071L358.199 612.557L430.06 608.604L498.822 440.867L524.71 476.9L523.891 478.573L581.863 551.173L764.149 323.155L800.471 327.891L713.761 38.3827L817.172 0H753.644L694.39 27.8079L754.997 298.587L576.273 489.718L538.954 447.525L535.286 455.074L490.988 414.448L404.136 596.071L345.95 596.463L341 589.947L513.885 926.276L356.454 933.148L344.632 932.044L415.994 1057.59L401.964 1072.33L320.631 929.766L285.983 926.49L375.328 1100.24L373.511 1102.17L380.74 1119.97L363.79 1112.39L357.914 1118.55L264.546 924.496L235.524 921.754L308.88 1107.61L139.77 1135.35L150.488 1151.91L139.129 1170.74L183.249 1202.54L177.48 1193.64L257.175 1224.19L264.261 1216.75L341.676 1275.42L344.062 1294.33L548.141 1255.91L527.416 1142.86L511.534 1146.82L531.048 1241.71L340.323 1264.74L338.65 1251.32L275.122 1205.28L275.229 1205.17L243.038 1195.56L283.526 1196.49L288.191 1191.57L335.16 1223.72L337.937 1245.76L509.932 1226.11L488.958 1136.35L484.151 1128.59L536.426 1140.59L544.366 1138.59L569.934 1278.02L347.125 1318.9L344.703 1299.56L252.118 1229.39L239.299 1242.84L347.374 1320.68L350.793 1347.77L314.435 1434.58L338.614 1442.63L356.17 1390.39L359.09 1413.54L612.31 1355.79L603.87 1319L355.885 1388.08L353.321 1367.68L595.146 1296.11L561.388 1134.35L581.899 1129.23L619.859 1298.85L616.618 1301.77L671.849 1466.66L901.389 1391.75L689.048 1440.88L651.48 1270.4L647.884 1273.64L603.051 1123.92L596.57 1125.56L458.903 1087.53L448.577 1070.8L487.462 1210.55L333.379 1209.13L331.706 1195.7L302.007 1177.12L309.77 1168.96L165.729 1175.27L154.405 1157.78L336.869 1140.55L344.953 1132.08L402.177 1143.97L385.049 1090.06L400.397 1073.97L435.9 1175.76L326.898 1151.02L326.151 1151.8L317.355 1161.02L328.145 1167.68L330.709 1188.12L459.188 1190.4L419.982 1053.39L430.772 1042.07L441.383 1059.26L630.862 1117.01L621.212 1119.44L664.407 1258.83L691.149 1234.8L642.471 1114.13L665.083 1108.47L708.705 1219.02L714.046 1214.22L738.831 1379.11L890.314 1339.98L883.263 1316.87L753.502 1356.03L748.979 1182.78L762.226 1170.85L754.677 1157.61L743.994 1151.62L751.365 1137.77L439.282 1017.32L486.608 945.361L506.264 947.212L467.77 1006L783.841 1125.2L763.615 1162.55L769.882 1166.04L772.731 1327.05L877.744 1293.16L870.657 1270.47L786.512 1303.23L808.483 1187.62L821.445 1194.88L851.357 1100L611.099 961.134L703.292 780.828L710.165 781.682L807.593 765.518L711.803 528.136L713.227 499.652L630.292 624.413L615.443 606.361L624.346 654.856L420.089 692.313L419.662 693.239L408.907 679.103L428.35 675.293L433.585 664.505L602.517 632.709L592.582 578.553L614.945 605.756L788.47 359.152L804.851 386.818L870.622 375.887L756.457 52.6605L929.876 33.2555L870.693 5.34082V5.37643ZM489.314 549.891L490.311 552.704L488.21 552.241L489.35 549.891H489.314ZM713.761 1134.82L741.786 1189.33L728.219 1201.51L689.654 1121.32L713.761 1134.82ZM367.778 939.878L376.04 934.964L364.075 933.825L357.879 933.219L392.954 936.531L376.36 953.728L367.778 939.806V939.878ZM406.237 1002.22L391.672 978.616L424.576 939.593L451.888 942.192L406.237 1002.26V1002.22ZM509.932 865.818L485.468 819.104L577.982 776.342L509.932 865.854V865.818ZM558.788 974.807L830.49 1107.15L799.545 1182.71L780.636 1172.13L805.741 1115.34L524.496 981.607L542.586 950.702L554.978 951.877L548.818 940.056L646.139 773.885L671.991 777.054L558.753 974.771L558.788 974.807ZM649.522 673.086L642.471 639.332L654.792 654.322L710.129 562.638L708.206 601.554L751.258 740.523L615.372 770.111L621.853 770.894L532.046 908.011L522.858 890.422L603.015 768.58L556.616 762.883L553.661 764.093L524.389 789.943L475.818 800.518L464.494 778.87L723.091 719.907L705.358 660.731L703.435 699.826L698.841 707.801L686.449 692.74L705.429 659.663L708.171 603.904L667.968 670.237L674.983 678.783L677.618 690.568L451.283 753.59L441.383 734.648L649.593 673.015L649.522 673.086ZM438.535 654.464L395.803 661.977L384.194 646.702L445.336 640.471L438.535 654.464Z" fill="#5C427F"/>
<path d="M1920 292.072L1798.11 401.025L1783.05 385.857L1790.2 371.116L1682.02 306.456L1553.97 518.416L1493.11 508.304L1499.77 517.098L1452.3 533.263L1544.46 830.711L1361.21 870.625L1374.32 893.413L1600.83 855.813L1474.42 542.592L1511.95 533.121L1512.09 533.263L1563.33 540.669L1685.4 328.389L1779.45 393.298L1771.19 410.282L1690.89 354.061L1578.15 562.816L1529.01 555.517L1526.73 552.49L1505.68 557.974L1628.46 869.094L1383.47 909.293L1387.25 915.844L1391.66 916.236L1439.06 1069.2L1326.96 1093.62L1335.5 1106.8L1334.61 1107.22L1197.34 973.846L1233.45 952.197L1107.67 967.33L1104.08 957.859L1098.52 999.98L1076.94 988.016L1086.34 910.788L1079.93 893.84L1201.4 895.976L1149.55 714.816L1169.88 700.182L1183.91 623.488L1170.13 615.654L1412.53 618.574L1402.27 530.985L1406.72 518.095L1358.51 288.298L1487.31 278.542L1496.32 250.307L1338.39 275.195L1376.74 584.25L1130.93 593.472L1148.3 603.299L857.16 607.501L870.799 633.956L1145.17 646.346L1134.74 725.533L1125.91 731.871L1178.04 881.378L1065.62 855.849L1062.24 846.876L1052.8 974.629L1068.33 983.245L1193.21 1173.16L1207.67 1166.4L1174.16 1209.09L1478.83 1354.93L1445.75 1408.48L1465.51 1415.57L1501.48 1346.92L1232.7 1189.58L1269.48 1137.6L1282.3 1131.61L1160.27 995.138L1142 1005.64L1250.61 1146.39L1230.81 1155.61L1116.72 1010.09L1110.77 1006.78L1119.99 1000.02L1117.72 993.963L1184.06 981.465L1174.76 986.806L1302.46 1122.21L1315.78 1116.02L1267.45 1185.73L1526.83 1340.87L1486.7 1422.01L1510.17 1430.13L1548.27 1335.6L1439.38 1259.54L1438.34 1258.8L1320.8 1176.69L1350.25 1129.58L1343.69 1119.47L1495.43 1094.3L1424.81 919.369L1449.6 921.719L1686.76 899.288L1528.65 570.649L1538.76 568.335L1543.86 575.029L1599.91 580.761L1697.44 380.587L1758.76 435.882L1765.31 422.423L1794.65 455.003L1920 325.897V292.072Z" fill="#5C427F"/>
<path d="M34.7917 0L2.06641 20.3307V50.809L98.8534 0H34.7917Z" fill="#5C427F"/>
<path d="M122.461 1624.93L119.256 1603.71L70.3281 1624.93H122.461Z" fill="#5C427F"/>
<path d="M298.659 171.12L295.383 162.895L336.975 0H298.979L275.477 112.335L282.706 130.708L263.37 205.622L254.289 209.36L211.38 0H177.729L237.66 216.196L221.707 222.783L159.497 0H143.864L2.06641 75.8753V110.484L138.594 51.4855L198.916 232.148L176.197 241.512L121.109 81.7858L2.06641 131.918V162.361L96.8592 130.102L146.179 253.831L158.037 248.953L292.997 224.599L305.425 188.317L290.718 194.37L298.659 171.12Z" fill="#5C427F"/>
<path d="M888.566 0L925.28 19.9391L917.695 0H888.566Z" fill="#5C427F"/>
<path d="M934.399 0L952.845 45.3258L777.539 59.924L984.182 82.5335L952.81 0H934.399Z" fill="#5C427F"/>
<path d="M972.677 0L1007.97 101.155L781.738 72.3147L798.404 118.317L1031.29 115.789L998.174 0H972.677Z" fill="#5C427F"/>
<path d="M1021.68 0L1059.53 136.013L809.23 139.36L824.649 182.229L1082.04 151.501L1046.64 0H1021.68Z" fill="#5C427F"/>
<path d="M1068.79 0L1103.15 167.096L834.016 203.022L846.764 239.874L1120.25 181.267L1087.02 0H1068.79Z" fill="#5C427F"/>
</svg>
