<svg  viewBox="0 0 375 80" fill="none" preserveAspectRatio="none" xmlns="http://www.w3.org/2000/svg">
<g clip-path="url(#clip0_4360_2721)">
<g opacity="0.9" filter="url(#filter0_d_4360_2721)">
<path d="M-481 -27.5H-379.75L-298.5 -39L-136 -27.5L-31 -39L26.5 -27.5H189L266 -39L351.5 -27.5H514L598.5 -39L676.5 -27.5H757.75L799 -32L897 -27.5L877 56.5L757.75 52.5L718.5 60.5L676.5 52.5H514L476.5 60.5L432.75 52.5H351.5L189 60.5L26.5 52.5L-55.5 60.5L-136 52.5H-298.5L-392.5 60.5L-481 52.5V-27.5Z" fill="#5C427F"/>
</g>
</g>
<defs>
<filter id="filter0_d_4360_2721" x="-491" y="-44" width="1398" height="119.5" filterUnits="userSpaceOnUse" color-interpolation-filters="sRGB">
<feFlood flood-opacity="0" result="BackgroundImageFix"/>
<feColorMatrix in="SourceAlpha" type="matrix" values="0 0 0 0 0 0 0 0 0 0 0 0 0 0 0 0 0 0 127 0" result="hardAlpha"/>
<feOffset dy="5"/>
<feGaussianBlur stdDeviation="5"/>
<feComposite in2="hardAlpha" operator="out"/>
<feColorMatrix type="matrix" values="0 0 0 0 0 0 0 0 0 0 0 0 0 0 0 0 0 0 0.2 0"/>
<feBlend mode="normal" in2="BackgroundImageFix" result="effect1_dropShadow_4360_2721"/>
<feBlend mode="normal" in="SourceGraphic" in2="effect1_dropShadow_4360_2721" result="shape"/>
</filter>
<clipPath id="clip0_4360_2721">
<rect width="375" height="80" fill="white"/>
</clipPath>
</defs>
</svg>
