<svg viewBox="0 0 80 66" fill="none" xmlns="http://www.w3.org/2000/svg">
<path d="M6.7426 55.5668C4.66197 55.3497 3.41584 54.3805 2.07616 52.8762C0.93855 51.6001 0.306129 50.3652 0.145218 48.6176C-0.307581 43.6855 0.470783 38.0386 0.171412 33.0317C0.545626 29.4841 3.13892 26.0863 6.83241 25.7008C7.5247 25.6297 11.6934 25.8056 11.8993 25.611C11.8169 24.8289 11.3754 23.9196 11.3529 23.1449C11.3305 22.3703 11.7982 21.5471 11.7907 20.8997C11.7645 19.081 10.7991 18.6731 11.4914 16.3679C11.8132 15.3014 12.5279 15.032 12.8348 14.3921C13.1416 13.7522 13.093 12.7231 13.4373 12.0346C13.8863 11.1402 14.7283 10.6425 15.4655 10.025C16.1466 7.10242 15.2934 2.00563 18.564 0.478842C20.8692 -0.598892 23.1631 0.213151 24.5813 2.20771C25.8799 4.03013 26.9651 6.16314 28.2299 8.02298C28.3235 8.07537 28.6715 7.82091 28.8287 7.78349C30.8794 7.28204 32.219 7.41302 33.918 8.74896C34.15 8.93232 34.6327 9.60216 34.8984 9.561C35.1903 9.11194 35.4373 8.6105 35.804 8.21009C37.5179 6.32405 40.5228 6.36522 42.3976 7.98556C42.8355 8.36352 43.1798 8.82754 43.5203 9.28782C43.786 9.3477 44.5344 8.17267 44.7253 7.98556C46.0275 6.70575 48.2204 6.52239 49.8669 7.15855C50.3684 7.35314 50.6416 7.75355 51.1318 7.92943L55.5363 2.37985C56.9508 1.07384 58.979 0.639754 60.7566 1.47051C63.9523 2.96736 63.3611 7.2783 63.6043 10.1934C64.2704 10.8932 65.1536 11.3273 65.6138 12.2217C66.033 13.0374 65.9806 14.0628 66.2088 14.8561C66.3211 15.2453 66.9872 15.7655 67.1294 16.1771C67.6945 17.8049 67.5336 18.7217 67.1144 20.3271C66.961 20.9146 66.4895 21.9138 66.4409 22.4414C66.4034 22.8718 66.2275 24.9674 66.5718 25.4351H72.1326C72.2524 25.4351 73.9214 25.9029 74.0935 25.989C76.0095 26.947 76.3276 28.9602 76.6531 30.8724C77.0835 33.4096 79.2464 45.6876 79.6132 49.2575C79.9799 52.8275 78.4793 55.0167 74.827 55.3048C73.2403 55.4321 71.5676 55.2861 70.0258 54.9418C69.9659 55.6603 69.8125 56.405 69.6254 57.1011C69.5468 57.3929 69.9959 60.4465 70.0932 61.1987C70.2354 62.3064 69.5955 64.0053 68.7722 64.7687C67.6309 65.8315 65.7486 66.0448 64.2367 65.9774C63.1777 65.9288 62.0214 65.8764 60.9175 65.8801C58.283 65.8876 21.4492 65.9699 17.5012 65.9811C15.3083 65.9886 12.6589 66.303 11.0386 64.5442C8.93549 62.2652 10.0843 58.3696 9.65024 55.5743C8.7147 55.5032 7.65194 55.6678 6.73511 55.5743L6.7426 55.5668Z" fill="black"/>
<path d="M13.8739 36.6779H10.0641L10.0497 32.8859H6.53192V44.0039L6.8527 47.1566H10.3236L10.3417 42.8162H8.68008V39.3947H12.9728L14.1514 40.1611L14.3929 51.0394L13.3873 51.1193L11.3797 51.0721L10.8931 49.9679L8.74496 51.1883L5.06497 51.1374L3.14747 49.0199L2.99609 32.6063L3.78544 30.4415L5.429 29.1993L12.1006 29.1521L13.5639 30.9936L14.0072 34.1608C14.0072 34.1608 13.8703 37.0229 13.8703 36.6743L13.8739 36.6779Z" fill="white"/>
<path d="M25.6842 30.9537L24.1668 29.0649H18.317L16.5401 30.7793L15.9526 31.6183L15.7111 33.7831L15.4336 38.948V44.1492L15.6426 47.745L16.4392 48.8274L17.5818 50.1531C17.5818 50.1531 18.7243 51.5152 21.8745 51.1665C23.7451 50.9558 24.9562 49.8408 24.9562 49.8408L26.2717 47.2583L26.5132 39.9977V33.6451L25.6806 30.9573L25.6842 30.9537ZM22.671 45.366L22.5701 47.4799L19.4632 47.5707L19.1388 46.3067V42.8852L19.2433 36.9176L19.3371 32.8678L22.8909 32.8387L22.6746 45.366H22.671Z" fill="white"/>
<path d="M39.1908 49.8334V43.3755L38.5673 41.4214L37.4932 40.4807V40.0267L39.0178 37.7203L38.7619 30.9754L36.3615 29.1157L30.8433 29.1375L28.4897 29.2755V33.9174L28.1797 34.3024L28.2482 51.0538H32.4039V47.5997L32.5409 45.4349L32.4724 42.5038H33.8925L34.5161 42.9578L34.7936 44.0039V49.5865L35.1756 51.0175L39.4107 50.9812L39.1908 49.8298V49.8334ZM34.9774 36.2565L34.7503 37.9309L34.0727 38.5593H31.9137V33.8484L31.9678 32.381L34.844 32.4173L34.9738 36.2565H34.9774Z" fill="white"/>
<path d="M41.6723 29.1628L41.5353 31.3494L41.1641 31.5818V34.8399L41.2578 42.0061V48.1008L41.3515 48.8454V50.9411H45.7379V46.9385L45.6442 46.4736L45.7812 33.4924V29.1665C45.7812 29.1665 41.6254 29.3045 41.6723 29.1665V29.1628Z" fill="white"/>
<path d="M48.3713 28.9305L48.2344 35.9587V48.802L48.2812 50.9885H50.3609L51.5143 51.1738H55.115V49.1725L55.0681 47.4508C55.0681 47.4508 55.252 47.0803 55.0681 47.0803H52.574L52.4802 46.7099L52.6641 38.7046L52.8947 28.9342H51.1863L50.5411 28.887L48.3713 28.9342V28.9305Z" fill="white"/>
<path d="M56.5901 28.9741L56.4062 36.2783L56.3594 36.9285L56.4062 50.9812L59.6393 51.1664H63.24C63.24 51.1664 63.377 47.073 63.1931 47.073C63.0093 47.073 60.5151 47.0258 60.5151 47.0258L60.3529 46.7243L60.7927 38.6973L61.0233 28.9269H59.3149L58.6697 28.8796L56.5901 28.9741Z" fill="white"/>
<path d="M75.0128 39.3073L74.6884 37.4912L73.5098 28.9121H67.3248L66.7481 34.0915L66.2399 37.1643L65.0396 45.2131L64.2539 50.9374L68.5611 50.9447L69.1233 48.424L69.2098 47.011L72.5654 46.9747L73.07 50.8902H76.9987L75.9355 43.9564L75.0128 39.3037V39.3073ZM68.871 42.3764L69.1486 37.4912L69.7505 33.0237H70.72L71.3652 39.4925L71.549 42.3329L68.871 42.3801V42.3764Z" fill="white"/>
<path d="M13.1289 62.2589V55.4341H16.5061V56.7998H13.7921C13.9759 56.7998 14.1345 56.8724 14.2643 57.0177C14.394 57.163 14.4589 57.3409 14.4589 57.5516V58.1654H15.8249L15.551 59.5311H14.4589V60.8932H16.5061V62.2589H13.1289Z" fill="white"/>
<path d="M17.7109 62.2589V55.4341H19.1563L20.6088 59.3277V55.4341H21.9352V62.2589H20.4899L19.0445 58.3725V62.2589H17.7145H17.7109Z" fill="white"/>
<path d="M23.1328 62.2589V55.4341H26.51V56.7998H23.796C23.9798 56.7998 24.1384 56.8724 24.2682 57.0177C24.3979 57.163 24.4628 57.3409 24.4628 57.5516V58.1654H25.8288L25.5549 59.5311H24.4628V60.8932H26.51V62.2589H23.1328Z" fill="white"/>
<path d="M27.7109 62.2589V55.4341H30.8467C31.0593 55.4341 31.2432 55.5212 31.3981 55.6956C31.5531 55.8699 31.6288 56.0806 31.6288 56.324V59.4694C31.6288 59.6401 31.5892 59.7963 31.5099 59.9416C31.4306 60.0832 31.3225 60.1922 31.1855 60.2612L31.6396 62.2589H30.2736L29.8339 60.352H29.0445V62.2589H27.7145H27.7109ZM29.0409 58.9863H30.306V56.8034H28.3741C28.558 56.8034 28.7165 56.876 28.8463 57.0213C28.976 57.1666 29.0409 57.3446 29.0409 57.5552V58.9863Z" fill="white"/>
<path d="M33.6295 62.2589C33.4132 62.2589 33.2294 62.1717 33.0744 61.9974C32.9194 61.823 32.8438 61.616 32.8438 61.3726V56.324C32.8438 56.0806 32.9194 55.8699 33.0744 55.6956C33.2294 55.5212 33.4132 55.4341 33.6295 55.4341H35.8569C36.0732 55.4341 36.257 55.5212 36.412 55.6956C36.567 55.8699 36.6427 56.0806 36.6427 56.324V57.2756L35.3127 57.617V56.7998H33.5033C33.6872 56.7998 33.8457 56.8724 33.9755 57.0177C34.1053 57.163 34.1701 57.3409 34.1701 57.5516V60.8932H35.3127V59.5311H34.6603L34.9342 58.1654H36.6427V61.3726C36.6427 61.6123 36.567 61.823 36.412 61.9974C36.257 62.1717 36.0732 62.2589 35.8569 62.2589H33.6295Z" fill="white"/>
<path d="M39.1718 62.2589V60.0069L37.5859 55.4341H39.006L39.8314 58.3035L40.6532 55.4341H42.0733L40.4874 60.0069V62.2589H39.1718Z" fill="white"/>
<path d="M44.4414 62.0011L44.4883 55.1799L47.5663 55.2163C47.779 55.2163 47.9628 55.3071 48.1142 55.485C48.2656 55.663 48.3413 55.87 48.3413 56.117L48.3052 61.1657C48.3052 61.4054 48.2259 61.6125 48.0709 61.7868C47.916 61.9611 47.7321 62.0447 47.5195 62.041L44.4414 62.0047V62.0011ZM45.7786 60.6499L46.986 60.6645L47.0149 56.571L45.1442 56.5492C45.3281 56.5492 45.4867 56.6255 45.6128 56.7744C45.739 56.9234 45.8038 57.1013 45.8038 57.3084L45.7786 60.6499Z" fill="white"/>
<path d="M49.5036 62.0589L49.5505 55.2378L52.6862 55.2741C52.8989 55.2741 53.0827 55.3649 53.2341 55.5429C53.3854 55.7209 53.4611 55.9279 53.4611 56.1749L53.4395 59.3203C53.4395 59.491 53.3963 59.6472 53.317 59.7889C53.2377 59.9305 53.1259 60.0358 52.989 60.1049L53.4287 62.1098L52.0627 62.0953L51.6337 60.1811L50.8444 60.1702L50.83 62.0771L49.5 62.0626L49.5036 62.0589ZM50.8552 58.8009L52.1203 58.8154L52.1347 56.6325L50.2028 56.6107C50.3867 56.6107 50.5452 56.687 50.6714 56.8359C50.7975 56.9848 50.8624 57.1628 50.8624 57.3699L50.8516 58.8009H50.8552Z" fill="white"/>
<path d="M54.6289 62.121L54.6758 55.2998L56.0057 55.3143L55.9589 62.1355L54.6289 62.121Z" fill="white"/>
<path d="M57.1638 62.15L57.2106 55.3289L58.6559 55.347L60.0796 59.2552L60.1085 55.3652L61.4313 55.3797L61.3844 62.2045L59.9391 62.1863L58.519 58.2818L58.4901 62.1682L57.1602 62.1536L57.1638 62.15Z" fill="white"/>
<path d="M62.5898 62.2118L62.6367 55.3906L63.9667 55.4052L63.9415 58.8157L65.4048 55.4197L66.8501 55.4378L65.549 58.3399L66.9258 62.2626L65.5129 62.2481L64.7488 60.116L63.7973 62.2263L62.5898 62.2118Z" fill="white"/>
<path d="M19.7803 2.01636L18.9478 10.254L18.8793 15.0485L18.2557 15.4662L16.3851 12.3244L16.3058 17.0244L14.5938 16.3342L15.7327 21.372L14.7019 21.5282L16.1256 25.4328L20.9193 25.1313L32.8964 23.4569L46.3008 23.1917L56.7894 25.4219L62.4806 25.6361L63.342 22.3672L62.5274 22.1311L64.2827 16.3996L62.686 17.0897L62.7941 12.5314L59.7449 17.838L60.1594 11.5108L59.8242 3.14232L50.7377 14.6998L48.3841 9.1862L43.9508 14.5618L39.24 9.1862C39.24 9.1862 35.2212 15.3281 35.1527 15.0485C35.0842 14.7688 30.2364 9.88357 30.2364 9.88357L27.7423 14.6308L19.7803 2.01636Z" fill="white"/>
</svg>
