<svg viewBox="0 0 200 46" fill="none" xmlns="http://www.w3.org/2000/svg">
<path opacity="0.7" d="M4.26829 2.77778L25.6098 3.47222L49.3902 0L100 2.77778L127.439 0L147.866 1.38889L176.22 0L195.732 2.77778L200 12.5L195.732 22.9167V44.4444L170.122 43.0556H147.866L108 45.8333L67.0732 44.4444L34.7561 45.8333L4.26829 43.0556V32.9861L0 22.9167L4.26829 2.77778Z" fill="white"/>
<path d="M39.3594 32.0742C38.4453 32.8867 37.2617 33.293 35.8086 33.293C34.3633 33.293 33.168 32.8867 32.2227 32.0742C31.2148 31.2227 30.7109 30.0781 30.7109 28.6406V19.5352C30.7109 18.1758 31.1797 17.0625 32.1172 16.1953C33.0625 15.3203 34.2969 14.8828 35.8203 14.8828C37.4453 14.8828 38.7031 15.3789 39.5938 16.3711C40.3594 17.2305 40.7422 18.3125 40.7422 19.6172V20.9883C40.7422 21.1992 40.7109 21.3477 40.6484 21.4336C40.5859 21.5195 40.4688 21.5625 40.2969 21.5625H37.3203C37.1562 21.5625 37.043 21.5234 36.9805 21.4453C36.918 21.3672 36.8906 21.2344 36.8984 21.0469V19.7461C36.8984 19.457 36.8008 19.2031 36.6055 18.9844C36.3867 18.7344 36.1094 18.6094 35.7734 18.6094C35.4141 18.6094 35.1328 18.7188 34.9297 18.9375C34.7344 19.1484 34.6367 19.4062 34.6367 19.7109V28.418C34.6367 28.7383 34.7383 29 34.9414 29.2031C35.168 29.4453 35.4609 29.5664 35.8203 29.5664C36.1719 29.5664 36.4531 29.4453 36.6641 29.2031C36.8438 29.0078 36.9375 28.7461 36.9453 28.418V26.6953C36.9453 26.5 36.9766 26.3672 37.0391 26.2969C37.1016 26.2266 37.207 26.1914 37.3555 26.1914H40.3555C40.5273 26.1914 40.6445 26.2266 40.707 26.2969C40.7695 26.3594 40.8008 26.4844 40.8008 26.6719V28.6406C40.8008 30.0859 40.3203 31.2305 39.3594 32.0742ZM44.8086 33C44.543 33 44.4102 32.8359 44.4102 32.5078V18.9023H41.9141C41.6562 18.9023 41.5273 18.7344 41.5273 18.3984V15.6797C41.5273 15.3438 41.6562 15.1758 41.9141 15.1758H50.832C51.0977 15.1758 51.2305 15.3438 51.2305 15.6797V18.3984C51.2305 18.7344 51.0977 18.9023 50.832 18.9023H48.3242V32.5078C48.3242 32.8359 48.1914 33 47.9258 33H44.8086ZM50.4453 33C50.1953 33 50.1094 32.832 50.1875 32.4961L53.9258 15.668C54.0117 15.3398 54.2031 15.1758 54.5 15.1758H57.3477C57.6445 15.1758 57.8398 15.3398 57.9336 15.668L61.6602 32.4961C61.7461 32.832 61.6641 33 61.4141 33H58.2148C57.8711 33 57.6758 32.8398 57.6289 32.5195L57.3359 30.5391H54.5L54.2305 32.5195C54.1836 32.8398 53.9883 33 53.6445 33H50.4453ZM54.9922 27.0469H56.8555L56.0938 21.5977L55.9297 19.6172L55.7656 21.5977L54.9922 27.0469ZM62.9844 33C62.6484 33 62.4805 32.832 62.4805 32.4961V15.6914C62.4805 15.3477 62.6484 15.1758 62.9844 15.1758H67.5781C68.9844 15.1758 70.1719 15.6367 71.1406 16.5586C72.1094 17.4727 72.5938 18.582 72.5938 19.8867V22.6523C72.5938 23.9883 72.1094 25.1172 71.1406 26.0391C70.1562 26.9844 68.9688 27.4531 67.5781 27.4453H66.3945V32.4961C66.3945 32.832 66.2344 33 65.9141 33H62.9844ZM66.3945 23.7305H67.5781C67.9062 23.7305 68.1719 23.6289 68.375 23.4258C68.5781 23.2227 68.6797 22.9688 68.6797 22.6641V19.9922C68.6797 19.6641 68.5742 19.4023 68.3633 19.207C68.1602 19.0039 67.8945 18.9023 67.5664 18.9023H66.3945V23.7305ZM76.5195 33C76.2539 33 76.1211 32.8359 76.1211 32.5078V18.9023H73.625C73.3672 18.9023 73.2383 18.7344 73.2383 18.3984V15.6797C73.2383 15.3438 73.3672 15.1758 73.625 15.1758H82.543C82.8086 15.1758 82.9414 15.3438 82.9414 15.6797V18.3984C82.9414 18.7344 82.8086 18.9023 82.543 18.9023H80.0352V32.5078C80.0352 32.8359 79.9023 33 79.6367 33H76.5195ZM98.2344 32.0742C97.3203 32.8867 96.1367 33.293 94.6836 33.293C93.2383 33.293 92.043 32.8867 91.0977 32.0742C90.0898 31.2227 89.5859 30.0781 89.5859 28.6406V19.5352C89.5859 18.1758 90.0547 17.0625 90.9922 16.1953C91.9375 15.3203 93.1719 14.8828 94.6953 14.8828C96.3203 14.8828 97.5781 15.3789 98.4688 16.3711C99.2344 17.2305 99.6172 18.3125 99.6172 19.6172V20.9883C99.6172 21.1992 99.5859 21.3477 99.5234 21.4336C99.4609 21.5195 99.3438 21.5625 99.1719 21.5625H96.1953C96.0312 21.5625 95.918 21.5234 95.8555 21.4453C95.793 21.3672 95.7656 21.2344 95.7734 21.0469V19.7461C95.7734 19.457 95.6758 19.2031 95.4805 18.9844C95.2617 18.7344 94.9844 18.6094 94.6484 18.6094C94.2891 18.6094 94.0078 18.7188 93.8047 18.9375C93.6094 19.1484 93.5117 19.4062 93.5117 19.7109V28.418C93.5117 28.7383 93.6133 29 93.8164 29.2031C94.043 29.4453 94.3359 29.5664 94.6953 29.5664C95.0469 29.5664 95.3281 29.4453 95.5391 29.2031C95.7188 29.0078 95.8125 28.7461 95.8203 28.418V26.6953C95.8203 26.5 95.8516 26.3672 95.9141 26.2969C95.9766 26.2266 96.082 26.1914 96.2305 26.1914H99.2305C99.4023 26.1914 99.5195 26.2266 99.582 26.2969C99.6445 26.3594 99.6758 26.4844 99.6758 26.6719V28.6406C99.6758 30.0859 99.1953 31.2305 98.2344 32.0742ZM108.863 33C108.59 33 108.453 32.8398 108.453 32.5195V18.7031L107.035 19.418C106.871 19.5039 106.758 19.4922 106.695 19.3828C106.625 19.2969 106.59 19.207 106.59 19.1133V16.8164C106.574 16.4883 106.668 16.2656 106.871 16.1484L108.219 15.4453C108.523 15.2969 108.742 15.2188 108.875 15.2109C109.078 15.1953 109.199 15.1875 109.238 15.1875H111.887C112.191 15.1875 112.348 15.3594 112.355 15.7031V32.4961C112.355 32.832 112.207 33 111.91 33H108.863ZM119.117 33.293C117.812 33.293 116.672 32.8711 115.695 32.0273C114.648 31.1445 114.125 30.0195 114.125 28.6523V19.5469C114.125 18.3125 114.527 17.2539 115.332 16.3711C116.238 15.3789 117.496 14.8828 119.105 14.8828C120.598 14.8828 121.801 15.3516 122.715 16.2891C123.598 17.2188 124.039 18.4336 124.039 19.9336C124.039 20.2148 124.004 20.4219 123.934 20.5547C123.871 20.6797 123.727 20.7422 123.5 20.7422H120.605C120.395 20.7422 120.258 20.6875 120.195 20.5781C120.133 20.4688 120.102 20.2695 120.102 19.9805C120.102 19.5195 120.02 19.1484 119.855 18.8672C119.691 18.5859 119.441 18.4453 119.105 18.4453C118.777 18.4453 118.527 18.5391 118.355 18.7266C118.129 18.9688 118.02 19.3984 118.027 20.0156V22.5352C118.473 22.0742 119.07 21.8477 119.82 21.8555C121.242 21.8555 122.312 22.2422 123.031 23.0156C123.758 23.7812 124.121 24.918 124.121 26.4258V28.6523C124.121 30.0117 123.598 31.1406 122.551 32.0391C121.551 32.875 120.406 33.293 119.117 33.293ZM119.117 29.6953C119.422 29.6953 119.68 29.5938 119.891 29.3906C120.102 29.1797 120.207 28.9336 120.207 28.6523V26.4023C120.207 26.1055 120.105 25.8555 119.902 25.6523C119.707 25.4492 119.445 25.3477 119.117 25.3477C118.812 25.3477 118.555 25.4492 118.344 25.6523C118.141 25.8555 118.039 26.1094 118.039 26.4141V28.6523C118.039 28.9414 118.145 29.1875 118.355 29.3906C118.566 29.5938 118.82 29.6953 119.117 29.6953ZM131.82 33C131.562 33 131.434 32.832 131.434 32.4961V15.6797C131.457 15.3438 131.586 15.1758 131.82 15.1758H135.523C135.656 15.1758 135.746 15.207 135.793 15.2695C135.848 15.332 135.895 15.4414 135.934 15.5977C135.941 15.6211 135.945 15.6445 135.945 15.668L138.125 23.8945L138.254 24.9258L138.395 23.8945L140.574 15.668C140.582 15.6523 140.594 15.6133 140.609 15.5508C140.625 15.4805 140.637 15.4375 140.645 15.4219C140.652 15.4062 140.664 15.3789 140.68 15.3398C140.703 15.293 140.723 15.2656 140.738 15.2578C140.754 15.25 140.773 15.2383 140.797 15.2227C140.82 15.1992 140.848 15.1875 140.879 15.1875C140.918 15.1797 140.957 15.1758 140.996 15.1758H144.711C144.953 15.1758 145.078 15.3438 145.086 15.6797V32.4961C145.086 32.832 144.957 33 144.699 33H141.805C141.539 33 141.41 32.832 141.418 32.4961L141.477 23.6719L141.57 22.6875L139.59 30.0234C139.559 30.1406 139.535 30.2227 139.52 30.2695C139.504 30.3164 139.48 30.3672 139.449 30.4219C139.418 30.4688 139.375 30.5 139.32 30.5156C139.273 30.5234 139.207 30.5273 139.121 30.5273H137.398C137.25 30.5273 137.148 30.4961 137.094 30.4336C137.047 30.3711 136.996 30.2344 136.941 30.0234L134.961 22.7578L135.055 23.6719L135.113 32.4961C135.113 32.832 134.98 33 134.715 33H131.82ZM146.141 33C145.891 33 145.805 32.832 145.883 32.4961L149.621 15.668C149.707 15.3398 149.898 15.1758 150.195 15.1758H153.043C153.34 15.1758 153.535 15.3398 153.629 15.668L157.355 32.4961C157.441 32.832 157.359 33 157.109 33H153.91C153.566 33 153.371 32.8398 153.324 32.5195L153.031 30.5391H150.195L149.926 32.5195C149.879 32.8398 149.684 33 149.34 33H146.141ZM150.688 27.0469H152.551L151.789 21.5977L151.625 19.6172L151.461 21.5977L150.688 27.0469ZM157.93 33C157.812 33 157.727 32.9453 157.672 32.8359C157.625 32.7266 157.617 32.6094 157.648 32.4844L159.477 25.8516C158.383 24.9453 157.836 23.7227 157.836 22.1836V19.9805C157.836 18.6602 158.32 17.5312 159.289 16.5938C160.258 15.6484 161.441 15.1758 162.84 15.1758H167.457C167.785 15.1758 167.945 15.3477 167.938 15.6914V32.4961C167.938 32.832 167.777 33 167.457 33H164.504C164.184 33 164.023 32.832 164.023 32.4961V27.082H162.781L161.598 32.5547C161.574 32.7266 161.531 32.8438 161.469 32.9062C161.406 32.9688 161.305 33 161.164 33H157.93ZM162.84 23.3672H164.023V18.9023H162.852C162.523 18.9023 162.258 19 162.055 19.1953C161.852 19.3828 161.75 19.6445 161.75 19.9805V22.3008C161.75 22.6055 161.848 22.8594 162.043 23.0625C162.246 23.2656 162.512 23.3672 162.84 23.3672Z" fill="#5C427F"/>
</svg>
