<svg viewBox="0 0 156 35" fill="none" xmlns="http://www.w3.org/2000/svg">
<path opacity="0.7" d="M3.32927 2.12121L19.9756 2.65152L38.5244 0L78 2.12121L99.4024 0L115.335 1.06061L137.451 0L152.671 2.12121L156 9.54545L152.671 17.5V33.9394L132.695 32.8788H115.335L84.24 35L52.3171 33.9394L27.1098 35L3.32927 32.8788V25.1894L0 17.5L3.32927 2.12121Z" fill="white"/>
<path d="M17.3594 26.0742C16.4453 26.8867 15.2617 27.293 13.8086 27.293C12.3633 27.293 11.168 26.8867 10.2227 26.0742C9.21484 25.2227 8.71094 24.0781 8.71094 22.6406V13.5352C8.71094 12.1758 9.17969 11.0625 10.1172 10.1953C11.0625 9.32031 12.2969 8.88281 13.8203 8.88281C15.4453 8.88281 16.7031 9.37891 17.5938 10.3711C18.3594 11.2305 18.7422 12.3125 18.7422 13.6172V14.9883C18.7422 15.1992 18.7109 15.3477 18.6484 15.4336C18.5859 15.5195 18.4688 15.5625 18.2969 15.5625H15.3203C15.1562 15.5625 15.043 15.5234 14.9805 15.4453C14.918 15.3672 14.8906 15.2344 14.8984 15.0469V13.7461C14.8984 13.457 14.8008 13.2031 14.6055 12.9844C14.3867 12.7344 14.1094 12.6094 13.7734 12.6094C13.4141 12.6094 13.1328 12.7188 12.9297 12.9375C12.7344 13.1484 12.6367 13.4062 12.6367 13.7109V22.418C12.6367 22.7383 12.7383 23 12.9414 23.2031C13.168 23.4453 13.4609 23.5664 13.8203 23.5664C14.1719 23.5664 14.4531 23.4453 14.6641 23.2031C14.8438 23.0078 14.9375 22.7461 14.9453 22.418V20.6953C14.9453 20.5 14.9766 20.3672 15.0391 20.2969C15.1016 20.2266 15.207 20.1914 15.3555 20.1914H18.3555C18.5273 20.1914 18.6445 20.2266 18.707 20.2969C18.7695 20.3594 18.8008 20.4844 18.8008 20.6719V22.6406C18.8008 24.0859 18.3203 25.2305 17.3594 26.0742ZM22.8086 27C22.543 27 22.4102 26.8359 22.4102 26.5078V12.9023H19.9141C19.6562 12.9023 19.5273 12.7344 19.5273 12.3984V9.67969C19.5273 9.34375 19.6562 9.17578 19.9141 9.17578H28.832C29.0977 9.17578 29.2305 9.34375 29.2305 9.67969V12.3984C29.2305 12.7344 29.0977 12.9023 28.832 12.9023H26.3242V26.5078C26.3242 26.8359 26.1914 27 25.9258 27H22.8086ZM28.4453 27C28.1953 27 28.1094 26.832 28.1875 26.4961L31.9258 9.66797C32.0117 9.33984 32.2031 9.17578 32.5 9.17578H35.3477C35.6445 9.17578 35.8398 9.33984 35.9336 9.66797L39.6602 26.4961C39.7461 26.832 39.6641 27 39.4141 27H36.2148C35.8711 27 35.6758 26.8398 35.6289 26.5195L35.3359 24.5391H32.5L32.2305 26.5195C32.1836 26.8398 31.9883 27 31.6445 27H28.4453ZM32.9922 21.0469H34.8555L34.0938 15.5977L33.9297 13.6172L33.7656 15.5977L32.9922 21.0469ZM40.9844 27C40.6484 27 40.4805 26.832 40.4805 26.4961V9.69141C40.4805 9.34766 40.6484 9.17578 40.9844 9.17578H45.5781C46.9844 9.17578 48.1719 9.63672 49.1406 10.5586C50.1094 11.4727 50.5938 12.582 50.5938 13.8867V16.6523C50.5938 17.9883 50.1094 19.1172 49.1406 20.0391C48.1562 20.9844 46.9688 21.4531 45.5781 21.4453H44.3945V26.4961C44.3945 26.832 44.2344 27 43.9141 27H40.9844ZM44.3945 17.7305H45.5781C45.9062 17.7305 46.1719 17.6289 46.375 17.4258C46.5781 17.2227 46.6797 16.9688 46.6797 16.6641V13.9922C46.6797 13.6641 46.5742 13.4023 46.3633 13.207C46.1602 13.0039 45.8945 12.9023 45.5664 12.9023H44.3945V17.7305ZM54.5195 27C54.2539 27 54.1211 26.8359 54.1211 26.5078V12.9023H51.625C51.3672 12.9023 51.2383 12.7344 51.2383 12.3984V9.67969C51.2383 9.34375 51.3672 9.17578 51.625 9.17578H60.543C60.8086 9.17578 60.9414 9.34375 60.9414 9.67969V12.3984C60.9414 12.7344 60.8086 12.9023 60.543 12.9023H58.0352V26.5078C58.0352 26.8359 57.9023 27 57.6367 27H54.5195ZM76.2344 26.0742C75.3203 26.8867 74.1367 27.293 72.6836 27.293C71.2383 27.293 70.043 26.8867 69.0977 26.0742C68.0898 25.2227 67.5859 24.0781 67.5859 22.6406V13.5352C67.5859 12.1758 68.0547 11.0625 68.9922 10.1953C69.9375 9.32031 71.1719 8.88281 72.6953 8.88281C74.3203 8.88281 75.5781 9.37891 76.4688 10.3711C77.2344 11.2305 77.6172 12.3125 77.6172 13.6172V14.9883C77.6172 15.1992 77.5859 15.3477 77.5234 15.4336C77.4609 15.5195 77.3438 15.5625 77.1719 15.5625H74.1953C74.0312 15.5625 73.918 15.5234 73.8555 15.4453C73.793 15.3672 73.7656 15.2344 73.7734 15.0469V13.7461C73.7734 13.457 73.6758 13.2031 73.4805 12.9844C73.2617 12.7344 72.9844 12.6094 72.6484 12.6094C72.2891 12.6094 72.0078 12.7188 71.8047 12.9375C71.6094 13.1484 71.5117 13.4062 71.5117 13.7109V22.418C71.5117 22.7383 71.6133 23 71.8164 23.2031C72.043 23.4453 72.3359 23.5664 72.6953 23.5664C73.0469 23.5664 73.3281 23.4453 73.5391 23.2031C73.7188 23.0078 73.8125 22.7461 73.8203 22.418V20.6953C73.8203 20.5 73.8516 20.3672 73.9141 20.2969C73.9766 20.2266 74.082 20.1914 74.2305 20.1914H77.2305C77.4023 20.1914 77.5195 20.2266 77.582 20.2969C77.6445 20.3594 77.6758 20.4844 77.6758 20.6719V22.6406C77.6758 24.0859 77.1953 25.2305 76.2344 26.0742ZM86.8633 27C86.5898 27 86.4531 26.8398 86.4531 26.5195V12.7031L85.0352 13.418C84.8711 13.5039 84.7578 13.4922 84.6953 13.3828C84.625 13.2969 84.5898 13.207 84.5898 13.1133V10.8164C84.5742 10.4883 84.668 10.2656 84.8711 10.1484L86.2188 9.44531C86.5234 9.29688 86.7422 9.21875 86.875 9.21094C87.0781 9.19531 87.1992 9.1875 87.2383 9.1875H89.8867C90.1914 9.1875 90.3477 9.35938 90.3555 9.70312V26.4961C90.3555 26.832 90.207 27 89.9102 27H86.8633ZM97.1172 27.293C95.8125 27.293 94.6719 26.8711 93.6953 26.0273C92.6484 25.1445 92.125 24.0195 92.125 22.6523V13.5469C92.125 12.3125 92.5273 11.2539 93.332 10.3711C94.2383 9.37891 95.4961 8.88281 97.1055 8.88281C98.5977 8.88281 99.8008 9.35156 100.715 10.2891C101.598 11.2188 102.039 12.4336 102.039 13.9336C102.039 14.2148 102.004 14.4219 101.934 14.5547C101.871 14.6797 101.727 14.7422 101.5 14.7422H98.6055C98.3945 14.7422 98.2578 14.6875 98.1953 14.5781C98.1328 14.4688 98.1016 14.2695 98.1016 13.9805C98.1016 13.5195 98.0195 13.1484 97.8555 12.8672C97.6914 12.5859 97.4414 12.4453 97.1055 12.4453C96.7773 12.4453 96.5273 12.5391 96.3555 12.7266C96.1289 12.9688 96.0195 13.3984 96.0273 14.0156V16.5352C96.4727 16.0742 97.0703 15.8477 97.8203 15.8555C99.2422 15.8555 100.312 16.2422 101.031 17.0156C101.758 17.7812 102.121 18.918 102.121 20.4258V22.6523C102.121 24.0117 101.598 25.1406 100.551 26.0391C99.5508 26.875 98.4062 27.293 97.1172 27.293ZM97.1172 23.6953C97.4219 23.6953 97.6797 23.5938 97.8906 23.3906C98.1016 23.1797 98.207 22.9336 98.207 22.6523V20.4023C98.207 20.1055 98.1055 19.8555 97.9023 19.6523C97.707 19.4492 97.4453 19.3477 97.1172 19.3477C96.8125 19.3477 96.5547 19.4492 96.3438 19.6523C96.1406 19.8555 96.0391 20.1094 96.0391 20.4141V22.6523C96.0391 22.9414 96.1445 23.1875 96.3555 23.3906C96.5664 23.5938 96.8203 23.6953 97.1172 23.6953ZM109.82 27C109.562 27 109.434 26.832 109.434 26.4961V9.67969C109.457 9.34375 109.586 9.17578 109.82 9.17578H113.523C113.656 9.17578 113.746 9.20703 113.793 9.26953C113.848 9.33203 113.895 9.44141 113.934 9.59766C113.941 9.62109 113.945 9.64453 113.945 9.66797L116.125 17.8945L116.254 18.9258L116.395 17.8945L118.574 9.66797C118.582 9.65234 118.594 9.61328 118.609 9.55078C118.625 9.48047 118.637 9.4375 118.645 9.42188C118.652 9.40625 118.664 9.37891 118.68 9.33984C118.703 9.29297 118.723 9.26562 118.738 9.25781C118.754 9.25 118.773 9.23828 118.797 9.22266C118.82 9.19922 118.848 9.1875 118.879 9.1875C118.918 9.17969 118.957 9.17578 118.996 9.17578H122.711C122.953 9.17578 123.078 9.34375 123.086 9.67969V26.4961C123.086 26.832 122.957 27 122.699 27H119.805C119.539 27 119.41 26.832 119.418 26.4961L119.477 17.6719L119.57 16.6875L117.59 24.0234C117.559 24.1406 117.535 24.2227 117.52 24.2695C117.504 24.3164 117.48 24.3672 117.449 24.4219C117.418 24.4688 117.375 24.5 117.32 24.5156C117.273 24.5234 117.207 24.5273 117.121 24.5273H115.398C115.25 24.5273 115.148 24.4961 115.094 24.4336C115.047 24.3711 114.996 24.2344 114.941 24.0234L112.961 16.7578L113.055 17.6719L113.113 26.4961C113.113 26.832 112.98 27 112.715 27H109.82ZM124.141 27C123.891 27 123.805 26.832 123.883 26.4961L127.621 9.66797C127.707 9.33984 127.898 9.17578 128.195 9.17578H131.043C131.34 9.17578 131.535 9.33984 131.629 9.66797L135.355 26.4961C135.441 26.832 135.359 27 135.109 27H131.91C131.566 27 131.371 26.8398 131.324 26.5195L131.031 24.5391H128.195L127.926 26.5195C127.879 26.8398 127.684 27 127.34 27H124.141ZM128.688 21.0469H130.551L129.789 15.5977L129.625 13.6172L129.461 15.5977L128.688 21.0469ZM135.93 27C135.812 27 135.727 26.9453 135.672 26.8359C135.625 26.7266 135.617 26.6094 135.648 26.4844L137.477 19.8516C136.383 18.9453 135.836 17.7227 135.836 16.1836V13.9805C135.836 12.6602 136.32 11.5312 137.289 10.5938C138.258 9.64844 139.441 9.17578 140.84 9.17578H145.457C145.785 9.17578 145.945 9.34766 145.938 9.69141V26.4961C145.938 26.832 145.777 27 145.457 27H142.504C142.184 27 142.023 26.832 142.023 26.4961V21.082H140.781L139.598 26.5547C139.574 26.7266 139.531 26.8438 139.469 26.9062C139.406 26.9688 139.305 27 139.164 27H135.93ZM140.84 17.3672H142.023V12.9023H140.852C140.523 12.9023 140.258 13 140.055 13.1953C139.852 13.3828 139.75 13.6445 139.75 13.9805V16.3008C139.75 16.6055 139.848 16.8594 140.043 17.0625C140.246 17.2656 140.512 17.3672 140.84 17.3672Z" fill="#5C427F"/>
</svg>
