<svg width="375" height="690" viewBox="0 0 375 690" fill="none" preserveAspectRatio="none" xmlns="http://www.w3.org/2000/svg">
<g clip-path="url(#clip0_4368_2939)">
<path opacity="0.9" d="M-193.54 -124.074H-19.75L102.456 -110.033L191.5 -150.025L337.656 -110.033L614 -137.05L825.25 -110.033L1036.5 -163L1247.75 -124.074L1444.88 -110.033L1459 -48.1769L1444.26 26.0128L1429.52 470.203L1459 549.515V625.413L1304.25 639.074L1036.5 625.413L956.667 598.017L825.25 625.413L655.759 639.074L508.375 625.413L423.015 610.992L191.5 651.363H85L-19.75 625.413H-231L-220.867 555.587L-210.735 485.762L-231 -48.1769L-193.54 -124.074Z" fill="#EB5DBF"/>
<path d="M191.5 651.5L375 619.5V0H0V630L85 651.5H191.5Z" fill="#D55AB1"/>
</g>
<defs>
<clipPath id="clip0_4368_2939">
<rect width="375" height="690" fill="white"/>
</clipPath>
</defs>
</svg>
