<svg viewBox="0 0 86 87" fill="none" xmlns="http://www.w3.org/2000/svg">
<path opacity="0.8" d="M43 0C19.2983 0 0 19.3214 0 43.0515C0 66.7816 19.2791 86.1031 43 86.1031C66.7208 86.1031 86 66.7816 86 43.0515C86 19.3214 66.7208 0 43 0Z" fill="white"/>
<path opacity="0.8" d="M42.618 7.9483C23.2897 7.9483 7.55225 23.7046 7.55225 43.0561C7.55225 62.4076 23.2741 78.1638 42.618 78.1638C61.9619 78.1638 77.6838 62.4076 77.6838 43.0561C77.6838 23.7046 61.9619 7.9483 42.618 7.9483Z" fill="#EB5DBF"/>
<path d="M58 42L32 57L32 27L58 42Z" fill="white"/>
</svg>
