<svg width="22" height="22" viewBox="0 0 22 22" fill="none" xmlns="http://www.w3.org/2000/svg">
<path d="M5.50004 7.33333H3.66671C2.65419 7.33333 1.83337 8.15414 1.83337 9.16667V17.4167C1.83337 18.4292 2.65419 19.25 3.66671 19.25H5.50004C6.51256 19.25 7.33337 18.4292 7.33337 17.4167V9.16667C7.33337 8.15414 6.51256 7.33333 5.50004 7.33333Z" stroke="#007567" stroke-width="1.5" stroke-linecap="round" stroke-linejoin="round"/>
<path d="M14.5539 19.25H11.1936C10.4697 19.25 9.76196 19.0357 9.15965 18.6342L7.74157 17.6888C7.48655 17.5188 7.33337 17.2326 7.33337 16.9261V9.4101C7.33337 9.25058 7.375 9.09381 7.45415 8.95531L11 2.75H12.218C14.0484 2.75 15.1401 4.78992 14.1248 6.31285L12.8334 8.25H17.8186C19.0113 8.25 19.8865 9.37088 19.5972 10.528L18.111 16.4726C17.703 18.1049 16.2364 19.25 14.5539 19.25Z" stroke="#007567" stroke-width="1.5" stroke-linecap="round" stroke-linejoin="round"/>
</svg>


