<svg width="22" height="22" viewBox="0 0 22 22" fill="none" xmlns="http://www.w3.org/2000/svg">
<path d="M13.75 14.6667C13.75 14.6667 12.7188 13.75 11 13.75C9.28129 13.75 8.25004 14.6667 8.25004 14.6667M15.5834 9.16668C15.5834 9.67294 15.173 10.0833 14.6667 10.0833C14.1604 10.0833 13.75 9.67294 13.75 9.16668C13.75 8.66042 14.1604 8.25001 14.6667 8.25001C15.173 8.25001 15.5834 8.66042 15.5834 9.16668ZM8.25004 9.16668C8.25004 9.67294 7.83963 10.0833 7.33337 10.0833C6.82711 10.0833 6.41671 9.67294 6.41671 9.16668C6.41671 8.66042 6.82711 8.25001 7.33337 8.25001C7.83963 8.25001 8.25004 8.66042 8.25004 9.16668ZM20.1667 11C20.1667 16.0626 16.0627 20.1667 11 20.1667C5.93743 20.1667 1.83337 16.0626 1.83337 11C1.83337 5.9374 5.93743 1.83334 11 1.83334C16.0627 1.83334 20.1667 5.9374 20.1667 11Z" stroke="#007567" stroke-width="1.5" stroke-linecap="round"/>
</svg>



