<svg width="22" height="22" viewBox="0 0 22 22" fill="none" xmlns="http://www.w3.org/2000/svg">
<path d="M15.2514 9.28427C14.5723 7.60298 12.9247 6.41666 11 6.41666C8.46874 6.41666 6.41671 8.46869 6.41671 11C6.41671 12.9246 7.60302 14.5722 9.28432 15.2514M10.9226 20.1663C5.89566 20.1248 1.83337 16.0368 1.83337 11C1.83337 5.93738 5.93743 1.83333 11 1.83333C16.0368 1.83333 20.1248 5.89562 20.1664 10.9226M11.0526 12.3049L13.4475 19.4897C13.7484 20.3923 15.0252 20.3923 15.3261 19.4897L16.2104 16.8366C16.309 16.5409 16.541 16.3089 16.8366 16.2104L19.4897 15.326C20.3924 15.0251 20.3924 13.7483 19.4897 13.4474L12.305 11.0525C11.5309 10.7945 10.7946 11.5309 11.0526 12.3049Z" stroke="#007567" stroke-width="1.5" stroke-linecap="round" stroke-linejoin="round"/>
</svg>
