<svg xmlns="http://www.w3.org/2000/svg" style="display: none">
  
  <symbol id="login-bg" viewBox="0 0 78 32" preserveAspectRatio="none">
    <path d="M4.16794 2.46154L13.0992 0L22.3282 2.46154L42.2748 0.492308L58.6489 2.46154H67.729H76.8092L76.2137 10.3385L78 16.2462V23.1385L75.0229 31.5077L58.3511 32L40.4885 30.0308L22.0305 32L2.38168 31.5077L4.16794 23.1385L0 17.7231L4.16794 9.35385V2.46154Z" fill="currentColor"/>
  </symbol>

  <symbol id="register-bg" viewBox="0 0 200 36" preserveAspectRatio="none">
    <path d="M4.26829 2L25.6098 2.5L49.3902 0L100 2L127.439 0L147.866 1L176.22 0L195.732 2L200 9L195.732 16.5V32L170.122 31H147.866L103.659 36L67.0732 32L34.7561 33L4.26829 31V23.75L0 16.5L4.26829 2Z" fill="currentColor"/>
  </symbol>

  <symbol id="burger" viewBox="0 0 44 40" preserveAspectRatio="none">
    <path d="M2.6969 3.07692L8.47598 0L14.4477 3.07692L27.3543 0.615385L31.4787 3.07692H37.3541H43.2295L42.8442 12.9231L44 20.3077V28.9231L42.0736 39.3846L31.286 40L26.1985 37.5385L14.2551 40L1.54109 39.3846L2.6969 28.9231L0 22.1538L2.6969 11.6923V3.07692Z" fill="#007567"/>
  </symbol>




  <symbol id="header-bg" viewBox="0 0 1398 74" preserveAspectRatio="none">
    <g opacity="0.9" filter="url(#filter0_d_2028_1271)">
    <path d="M10 -29.5H111.25L192.5 -41L355 -29.5L460 -41L517.5 -29.5H680L757 -41L842.5 -29.5H1005L1089.5 -41L1167.5 -29.5H1248.75L1290 -34L1388 -29.5L1368 54.5L1248.75 50.5L1209.5 58.5L1167.5 50.5H1005L967.5 58.5L923.75 50.5H842.5L680 58.5L517.5 50.5L435.5 58.5L355 50.5H192.5L98.5 58.5L10 50.5V-29.5Z" fill="#5C427F"/>
    </g>
    <defs>
    <filter id="filter0_d_2028_1271" x="0" y="-46" width="1398" height="119.5" filterUnits="userSpaceOnUse" color-interpolation-filters="sRGB">
    <feFlood flood-opacity="0" result="BackgroundImageFix"/>
    <feColorMatrix in="SourceAlpha" type="matrix" values="0 0 0 0 0 0 0 0 0 0 0 0 0 0 0 0 0 0 127 0" result="hardAlpha"/>
    <feOffset dy="5"/>
    <feGaussianBlur stdDeviation="5"/>
    <feComposite in2="hardAlpha" operator="out"/>
    <feColorMatrix type="matrix" values="0 0 0 0 0 0 0 0 0 0 0 0 0 0 0 0 0 0 0.2 0"/>
    <feBlend mode="normal" in2="BackgroundImageFix" result="effect1_dropShadow_2028_1271"/>
    <feBlend mode="normal" in="SourceGraphic" in2="effect1_dropShadow_2028_1271" result="shape"/>
    </filter>
    </defs>
  </symbol>

</svg>