<svg width="64" height="64" viewBox="0 0 64 64" fill="none" xmlns="http://www.w3.org/2000/svg">
<g clip-path="url(#clip0_4353_560)">
<path d="M5.39408 50.4637C3.72958 50.2861 2.73267 49.4931 1.66093 48.2623C0.75084 47.2183 0.244903 46.2079 0.116174 44.778C-0.246065 40.7427 0.376626 36.1225 0.13713 32.0259C0.436501 29.1234 2.51114 26.3433 5.46593 26.0279C6.01976 25.9698 9.35472 26.1137 9.51944 25.9545C9.45352 25.3146 9.10032 24.5706 9.08232 23.9367C9.0644 23.303 9.43856 22.6294 9.43256 22.0998C9.4116 20.6117 8.63928 20.278 9.19312 18.3919C9.45056 17.5193 10.0223 17.2989 10.2678 16.7754C10.5133 16.2518 10.4744 15.4098 10.7498 14.8465C11.109 14.1147 11.7826 13.7075 12.3724 13.2023C12.9173 10.8111 12.2347 6.64097 14.8512 5.39178C16.6954 4.51 18.5305 5.1744 19.665 6.80631C20.7039 8.29738 21.5721 10.0426 22.5839 11.5643C22.6588 11.6071 22.9372 11.3989 23.063 11.3683C24.7035 10.958 25.7752 11.0652 27.1344 12.1582C27.32 12.3083 27.7062 12.8563 27.9187 12.8226C28.1522 12.4552 28.3498 12.045 28.6432 11.7173C30.0143 10.1742 32.4182 10.2079 33.9181 11.5336C34.2684 11.8429 34.5438 12.2225 34.8162 12.5991C35.0288 12.6481 35.6275 11.6867 35.7802 11.5336C36.822 10.4865 38.5763 10.3365 39.8935 10.857C40.2947 11.0162 40.5133 11.3438 40.9054 11.4877L44.429 6.94715C45.5606 5.8786 47.1832 5.52344 48.6053 6.20314C51.1618 7.42784 50.6889 10.955 50.8834 13.3401C51.4163 13.9126 52.1229 14.2678 52.491 14.9996C52.8264 15.667 52.7845 16.5059 52.967 17.155C53.0569 17.4734 53.5898 17.899 53.7035 18.2358C54.1556 19.5676 54.0269 20.3178 53.6915 21.6313C53.5688 22.1119 53.1916 22.9295 53.1527 23.3611C53.1227 23.7133 52.982 25.4279 53.2574 25.8105H57.7061C57.8019 25.8105 59.1371 26.1933 59.2748 26.2637C60.8076 27.0475 61.0621 28.6947 61.3225 30.2592C61.6668 32.3351 63.3971 42.3808 63.6906 45.3016C63.9839 48.2225 62.7834 50.0137 59.8616 50.2494C58.5922 50.3535 57.2541 50.2341 56.0206 49.9524C55.9727 50.5402 55.85 51.1495 55.7003 51.7191C55.6374 51.9578 55.9967 54.4562 56.0746 55.0717C56.1883 55.978 55.6764 57.368 55.0178 57.9926C54.1047 58.8621 52.5989 59.0367 51.3894 58.9815C50.5422 58.9418 49.6171 58.8989 48.734 58.9019C46.6264 58.908 17.1594 58.9754 14.001 58.9845C12.2466 58.9907 10.1271 59.2479 8.83088 57.8089C7.14839 55.9443 8.06744 52.7569 7.72019 50.4699C6.97176 50.4117 6.12155 50.5464 5.38809 50.4699L5.39408 50.4637Z" fill="black"/>
<path d="M11.1007 35.0093H8.05285L8.04133 31.9067H5.2271V41.0033L5.48373 43.5828H8.26045L8.27493 40.0315H6.94563V37.2321H10.3798L11.3227 37.8592L11.5159 46.7596L10.7114 46.825L9.10533 46.7864L8.71605 45.8829L6.99753 46.8814L4.05354 46.8398L2.51954 45.1073L2.39844 31.678L3.02992 29.9068L4.34477 28.8904L9.68205 28.8518L10.8527 30.3585L11.2073 32.9498C11.2073 32.9498 11.0978 35.2916 11.0978 35.0063L11.1007 35.0093Z" fill="white"/>
<path d="M20.5481 30.3257L19.3342 28.7803H14.6544L13.2329 30.183L12.7629 30.8694L12.5697 32.6406L12.3477 36.8664V41.122L12.5149 44.064L13.1521 44.9496L14.0662 46.0343C14.0662 46.0343 14.9802 47.1487 17.5004 46.8634C18.9969 46.691 19.9657 45.7787 19.9657 45.7787L21.0181 43.6658L21.2113 37.7253V32.5277L20.5453 30.3286L20.5481 30.3257ZM18.1376 42.1175L18.0569 43.8471L15.5713 43.9214L15.3118 42.8872V40.0878L15.3954 35.2052L15.4705 31.8917L18.3135 31.8679L18.1405 42.1175H18.1376Z" fill="white"/>
<path d="M31.3518 45.7729V40.4891L30.853 38.8903L29.9938 38.1207V37.7492L31.2134 35.8621L31.0087 30.3436L29.0884 28.822L24.6738 28.8399L22.791 28.9528V32.7507L22.543 33.0657L22.5978 46.7714H25.9223V43.9453L26.0319 42.1741L25.9771 39.7759H27.1132L27.6121 40.1474L27.8341 41.0033V45.5709L28.1397 46.7417L31.5278 46.712L31.3518 45.7699V45.7729ZM27.9811 34.6645L27.7994 36.0345L27.2574 36.5486H25.5302V32.6942L25.5734 31.4936L27.8744 31.5233L27.9782 34.6645H27.9811Z" fill="white"/>
<path d="M33.3362 28.8604L33.2266 30.6494L32.9297 30.8395V33.5053L33.0046 39.3685V44.3551L33.0796 44.9643V46.679H36.5887V43.4041L36.5138 43.0237L36.6234 32.4028V28.8634C36.6234 28.8634 33.2987 28.9763 33.3362 28.8634V28.8604Z" fill="white"/>
<path d="M38.6955 28.6704L38.5859 34.4207V44.9289L38.6234 46.7178H40.2871L41.2099 46.8694H44.0904V45.232L44.0529 43.8233C44.0529 43.8233 44.2 43.5202 44.0529 43.5202H42.0576L41.9826 43.2171L42.1297 36.6673L42.3142 28.6734H40.9475L40.4313 28.6348L38.6955 28.6734V28.6704Z" fill="white"/>
<path d="M45.2705 28.706L45.1234 34.6821L45.0859 35.2141L45.1234 46.7118L47.7099 46.8633H50.5904C50.5904 46.8633 50.7 43.5142 50.5529 43.5142C50.4059 43.5142 48.4105 43.4756 48.4105 43.4756L48.2807 43.2289L48.6326 36.6613L48.8171 28.6674H47.4503L46.9342 28.6287L45.2705 28.706Z" fill="white"/>
<path d="M60.0095 37.1604L59.7499 35.6745L58.8071 28.6553H53.8591L53.3977 32.893L52.9911 35.4071L52.0309 41.9925L51.4023 46.676L54.8481 46.6819L55.2979 44.6196L55.3671 43.4635L58.0515 43.4338L58.4552 46.6374H61.5982L60.7476 40.9642L60.0095 37.1575V37.1604ZM55.096 39.6715L55.3181 35.6745L55.7996 32.0193H56.5752L57.0914 37.312L57.2384 39.6359L55.096 39.6745V39.6715Z" fill="white"/>
<path d="M10.5039 55.9392V50.3552H13.2057V51.4726H11.0345C11.1815 51.4726 11.3084 51.532 11.4122 51.6509C11.516 51.7698 11.5679 51.9153 11.5679 52.0877V52.5899H12.6607L12.4416 53.7073H11.5679V54.8218H13.2057V55.9392H10.5039Z" fill="white"/>
<path d="M14.168 55.9392V50.3552H15.3243L16.4863 53.5409V50.3552H17.5474V55.9392H16.3912L15.2348 52.7594V55.9392H14.1708H14.168Z" fill="white"/>
<path d="M18.5078 55.9392V50.3552H21.2096V51.4726H19.0384C19.1854 51.4726 19.3123 51.532 19.4161 51.6509C19.5199 51.7698 19.5718 51.9153 19.5718 52.0877V52.5899H20.6646L20.4455 53.7073H19.5718V54.8218H21.2096V55.9392H18.5078Z" fill="white"/>
<path d="M22.168 55.9392V50.3552H24.6766C24.8467 50.3552 24.9938 50.4265 25.1177 50.5692C25.2417 50.7118 25.3023 50.8842 25.3023 51.0833V53.6568C25.3023 53.7965 25.2706 53.9243 25.2072 54.0432C25.1437 54.159 25.0572 54.2482 24.9476 54.3047L25.3109 55.9392H24.2181L23.8664 54.379H23.2348V55.9392H22.1708H22.168ZM23.232 53.2616H24.244V51.4756H22.6985C22.8456 51.4756 22.9724 51.535 23.0763 51.6538C23.18 51.7727 23.232 51.9184 23.232 52.0907V53.2616Z" fill="white"/>
<path d="M26.902 55.9392C26.729 55.9392 26.5819 55.8678 26.4579 55.7252C26.3339 55.5825 26.2734 55.4131 26.2734 55.214V51.0833C26.2734 50.8842 26.3339 50.7118 26.4579 50.5692C26.5819 50.4265 26.729 50.3552 26.902 50.3552H28.6839C28.857 50.3552 29.004 50.4265 29.128 50.5692C29.252 50.7118 29.3126 50.8842 29.3126 51.0833V51.8619L28.2486 52.1412V51.4726H26.801C26.9482 51.4726 27.075 51.532 27.1788 51.6509C27.2826 51.7698 27.3345 51.9153 27.3345 52.0877V54.8218H28.2486V53.7073H27.7266L27.9458 52.5899H29.3126V55.214C29.3126 55.4101 29.252 55.5825 29.128 55.7252C29.004 55.8678 28.857 55.9392 28.6839 55.9392H26.902Z" fill="white"/>
<path d="M31.339 55.9392V54.0966L30.0703 50.3552H31.2064L31.8667 52.7029L32.5242 50.3552H33.6602L32.3915 54.0966V55.9392H31.339Z" fill="white"/>
<path d="M35.5547 55.7282L35.5922 50.1472L38.0546 50.177C38.2248 50.177 38.3718 50.2513 38.4929 50.3968C38.614 50.5425 38.6746 50.7118 38.6746 50.9139L38.6457 55.0447C38.6457 55.2408 38.5823 55.4103 38.4583 55.5529C38.3344 55.6955 38.1872 55.7639 38.0172 55.7608L35.5547 55.7311V55.7282ZM36.6244 54.6227L37.5904 54.6346L37.6135 51.2854L36.1169 51.2676C36.264 51.2676 36.3909 51.33 36.4918 51.4518C36.5928 51.5737 36.6446 51.7193 36.6446 51.8887L36.6244 54.6227Z" fill="white"/>
<path d="M39.6044 55.7755L39.642 50.1946L42.1505 50.2243C42.3207 50.2243 42.4677 50.2986 42.5888 50.4442C42.7099 50.5898 42.7704 50.7592 42.7704 50.9613L42.7532 53.5348C42.7532 53.6745 42.7186 53.8023 42.6552 53.9182C42.5917 54.0341 42.5023 54.1202 42.3928 54.1768L42.7445 55.8171L41.6517 55.8053L41.3085 54.2391L40.6771 54.2302L40.6656 55.7904L39.6016 55.7785L39.6044 55.7755ZM40.6857 53.1098L41.6978 53.1217L41.7093 51.3357L40.1638 51.3179C40.3109 51.3179 40.4377 51.3803 40.5387 51.5021C40.6396 51.6239 40.6915 51.7696 40.6915 51.939L40.6828 53.1098H40.6857Z" fill="white"/>
<path d="M43.7031 55.8263L43.7406 50.2454L44.8046 50.2572L44.7671 55.8382L43.7031 55.8263Z" fill="white"/>
<path d="M45.7294 55.8499L45.7669 50.269L46.9231 50.2839L48.0621 53.4815L48.0852 50.2987L49.1434 50.3106L49.1059 55.8945L47.9497 55.8796L46.8136 52.6851L46.7905 55.8648L45.7266 55.8529L45.7294 55.8499Z" fill="white"/>
<path d="M50.0703 55.9006L50.1078 50.3196L51.1718 50.3315L51.1517 53.1219L52.3223 50.3434L53.4785 50.3582L52.4377 52.7326L53.5391 55.9421L52.4088 55.9303L51.7975 54.1858L51.0363 55.9124L50.0703 55.9006Z" fill="white"/>
<path d="M15.825 6.64966L15.159 13.3895L15.1042 17.3123L14.6053 17.6541L13.1088 15.0835L13.0454 18.929L11.6758 18.3643L12.5869 22.4861L11.7623 22.6139L12.9012 25.8086L16.7362 25.5619L26.3179 24.1919L37.0414 23.9749L45.4323 25.7996L49.9852 25.9749L50.6743 23.3003L50.0227 23.1072L51.4269 18.4178L50.1495 18.9824L50.236 15.2529L47.7967 19.5946L48.1283 14.4178L47.8601 7.5709L40.5909 17.027L38.708 12.5159L35.1614 16.9141L31.3927 12.5159C31.3927 12.5159 28.1777 17.5411 28.1229 17.3123C28.0681 17.0835 24.1899 13.0865 24.1899 13.0865L22.1946 16.9706L15.825 6.64966Z" fill="white"/>
</g>
<defs>
<clipPath id="clip0_4353_560">
<rect width="64" height="54" fill="white" transform="translate(0 5)"/>
</clipPath>
</defs>
</svg>
